<?xml version="1.0" encoding="UTF-8" standalone="no"?>
<!-- Created with Inkscape (http://www.inkscape.org/) -->

<svg
   xmlns:dc="http://purl.org/dc/elements/1.1/"
   xmlns:cc="http://creativecommons.org/ns#"
   xmlns:rdf="http://www.w3.org/1999/02/22-rdf-syntax-ns#"
   xmlns:svg="http://www.w3.org/2000/svg"
   xmlns="http://www.w3.org/2000/svg"
   xmlns:xlink="http://www.w3.org/1999/xlink"
   xmlns:sodipodi="http://sodipodi.sourceforge.net/DTD/sodipodi-0.dtd"
   xmlns:inkscape="http://www.inkscape.org/namespaces/inkscape"
   width="433"
   height="478"
   id="svg2"
   sodipodi:version="0.32"
   inkscape:version="0.47pre4 r22446"
   sodipodi:docname="TUX-Scandiano.svg"
   inkscape:output_extension="org.inkscape.output.svg.inkscape"
   version="1.0"
   inkscape:export-filename="D:\Amministrativi_personale\LUG\tux-scandiano.png"
   inkscape:export-xdpi="150"
   inkscape:export-ydpi="150">
  <defs
     id="defs4">
    <inkscape:perspective
       sodipodi:type="inkscape:persp3d"
       inkscape:vp_x="0 : 526.18109 : 1"
       inkscape:vp_y="0 : 1000 : 0"
       inkscape:vp_z="744.09448 : 526.18109 : 1"
       inkscape:persp3d-origin="372.04724 : 350.78739 : 1"
       id="perspective4989" />
    <linearGradient
       id="linearGradient23837">
      <stop
         id="stop23839"
         offset="0"
         style="stop-color:#ffba00;stop-opacity:1;" />
      <stop
         id="stop23841"
         offset="1"
         style="stop-color:#ffffba;stop-opacity:1;" />
    </linearGradient>
    <linearGradient
       id="linearGradient10084">
      <stop
         style="stop-color:#000000;stop-opacity:1;"
         offset="0"
         id="stop10086" />
      <stop
         style="stop-color:#000000;stop-opacity:0;"
         offset="1"
         id="stop10088" />
    </linearGradient>
    <linearGradient
       id="linearGradient5197">
      <stop
         style="stop-color:#000000;stop-opacity:1;"
         offset="0"
         id="stop5199" />
      <stop
         style="stop-color:#ffffff;stop-opacity:1;"
         offset="1"
         id="stop5201" />
    </linearGradient>
    <linearGradient
       id="linearGradient3225">
      <stop
         style="stop-color:#000000;stop-opacity:0.71951222;"
         offset="0"
         id="stop3227" />
      <stop
         style="stop-color:#ffffff;stop-opacity:0"
         offset="1"
         id="stop3229" />
    </linearGradient>
    <linearGradient
       inkscape:collect="always"
       xlink:href="#linearGradient3225"
       id="linearGradient3231"
       x1="533.03326"
       y1="446.52438"
       x2="547.33417"
       y2="428.58325"
       gradientUnits="userSpaceOnUse" />
    <linearGradient
       inkscape:collect="always"
       xlink:href="#linearGradient5197"
       id="linearGradient7163"
       x1="263.61029"
       y1="435.38452"
       x2="358.50229"
       y2="314.54004"
       gradientUnits="userSpaceOnUse"
       spreadMethod="reflect" />
    <linearGradient
       inkscape:collect="always"
       xlink:href="#linearGradient5197"
       id="linearGradient8142"
       x1="228.8004"
       y1="401.76709"
       x2="361.57016"
       y2="343.16568"
       gradientUnits="userSpaceOnUse" />
    <linearGradient
       inkscape:collect="always"
       xlink:href="#linearGradient5197"
       id="linearGradient10090"
       x1="353.82788"
       y1="353.77969"
       x2="370.98239"
       y2="331.95367"
       gradientUnits="userSpaceOnUse" />
    <linearGradient
       inkscape:collect="always"
       xlink:href="#linearGradient5197"
       id="linearGradient10111"
       gradientUnits="userSpaceOnUse"
       x1="353.82788"
       y1="353.77969"
       x2="370.98239"
       y2="331.95367" />
    <linearGradient
       inkscape:collect="always"
       xlink:href="#linearGradient5197"
       id="linearGradient11090"
       x1="283.11636"
       y1="420.78415"
       x2="450.77399"
       y2="341.96973"
       gradientUnits="userSpaceOnUse" />
    <linearGradient
       inkscape:collect="always"
       xlink:href="#linearGradient5197"
       id="linearGradient13044"
       x1="335.76212"
       y1="383.67514"
       x2="432.98227"
       y2="334.34232"
       gradientUnits="userSpaceOnUse" />
    <linearGradient
       inkscape:collect="always"
       xlink:href="#linearGradient5197"
       id="linearGradient14025"
       x1="584.44714"
       y1="496.83411"
       x2="411.60892"
       y2="312.98669"
       gradientUnits="userSpaceOnUse" />
    <linearGradient
       inkscape:collect="always"
       xlink:href="#linearGradient5197"
       id="linearGradient15004"
       x1="379.11264"
       y1="378.87973"
       x2="383.80917"
       y2="225.32318"
       gradientUnits="userSpaceOnUse"
       spreadMethod="repeat" />
    <linearGradient
       inkscape:collect="always"
       xlink:href="#linearGradient5197"
       id="linearGradient16954"
       x1="333.62714"
       y1="305.53073"
       x2="338.83194"
       y2="276.24545"
       gradientUnits="userSpaceOnUse" />
    <linearGradient
       inkscape:collect="always"
       xlink:href="#linearGradient5197"
       id="linearGradient17933"
       x1="416.03726"
       y1="314.99216"
       x2="416.67383"
       y2="287.50903"
       gradientUnits="userSpaceOnUse" />
    <filter
       inkscape:collect="always"
       x="-0.058825664"
       width="1.1176513"
       y="-0.10828153"
       height="1.2165631"
       id="filter19925"
       color-interpolation-filters="sRGB">
      <feGaussianBlur
         inkscape:collect="always"
         stdDeviation="3.0337616"
         id="feGaussianBlur19927" />
    </filter>
    <filter
       inkscape:collect="always"
       x="-0.075075254"
       width="1.1501505"
       y="-0.2717368"
       height="1.5434736"
       id="filter21885"
       color-interpolation-filters="sRGB">
      <feGaussianBlur
         inkscape:collect="always"
         stdDeviation="6.0915256"
         id="feGaussianBlur21887" />
    </filter>
    <linearGradient
       inkscape:collect="always"
       xlink:href="#linearGradient23837"
       id="linearGradient23835"
       x1="278.7821"
       y1="598.48175"
       x2="300.01877"
       y2="538.17981"
       gradientUnits="userSpaceOnUse" />
    <linearGradient
       inkscape:collect="always"
       xlink:href="#linearGradient23837"
       id="linearGradient3203"
       gradientUnits="userSpaceOnUse"
       x1="278.7821"
       y1="598.48175"
       x2="300.01877"
       y2="538.17981" />
    <linearGradient
       inkscape:collect="always"
       xlink:href="#linearGradient23837"
       id="linearGradient4182"
       x1="346.8956"
       y1="409.87292"
       x2="406.49899"
       y2="371.66501"
       gradientUnits="userSpaceOnUse" />
    <linearGradient
       inkscape:collect="always"
       xlink:href="#linearGradient3225"
       id="linearGradient5169"
       x1="375.17139"
       y1="481.12695"
       x2="375.17139"
       y2="627.55237"
       gradientUnits="userSpaceOnUse" />
    <filter
       inkscape:collect="always"
       x="-0.075239249"
       width="1.1504785"
       y="-0.52976316"
       height="2.0595264"
       id="filter6160"
       color-interpolation-filters="sRGB">
      <feGaussianBlur
         inkscape:collect="always"
         stdDeviation="10.041395"
         id="feGaussianBlur6162" />
    </filter>
    <linearGradient
       inkscape:collect="always"
       xlink:href="#linearGradient5197"
       id="linearGradient7141"
       x1="267.00482"
       y1="450.1579"
       x2="195.34068"
       y2="423.26831"
       gradientUnits="userSpaceOnUse" />
    <linearGradient
       inkscape:collect="always"
       xlink:href="#linearGradient5197"
       id="linearGradient9469"
       gradientUnits="userSpaceOnUse"
       spreadMethod="reflect"
       x1="263.61029"
       y1="435.38452"
       x2="358.50229"
       y2="314.54004" />
    <linearGradient
       inkscape:collect="always"
       xlink:href="#linearGradient3225"
       id="linearGradient9471"
       gradientUnits="userSpaceOnUse"
       x1="533.03326"
       y1="446.52438"
       x2="547.33417"
       y2="428.58325" />
    <linearGradient
       inkscape:collect="always"
       xlink:href="#linearGradient5197"
       id="linearGradient9473"
       gradientUnits="userSpaceOnUse"
       x1="283.11636"
       y1="420.78415"
       x2="450.77399"
       y2="341.96973" />
    <linearGradient
       inkscape:collect="always"
       xlink:href="#linearGradient5197"
       id="linearGradient9475"
       gradientUnits="userSpaceOnUse"
       x1="584.44714"
       y1="496.83411"
       x2="411.60892"
       y2="312.98669" />
    <linearGradient
       inkscape:collect="always"
       xlink:href="#linearGradient5197"
       id="linearGradient9477"
       gradientUnits="userSpaceOnUse"
       x1="335.76212"
       y1="383.67514"
       x2="432.98227"
       y2="334.34232" />
    <linearGradient
       inkscape:collect="always"
       xlink:href="#linearGradient5197"
       id="linearGradient9479"
       gradientUnits="userSpaceOnUse"
       x1="228.8004"
       y1="401.76709"
       x2="361.57016"
       y2="343.16568" />
    <linearGradient
       inkscape:collect="always"
       xlink:href="#linearGradient23837"
       id="linearGradient9481"
       gradientUnits="userSpaceOnUse"
       x1="346.8956"
       y1="409.87292"
       x2="406.49899"
       y2="371.66501" />
    <linearGradient
       inkscape:collect="always"
       xlink:href="#linearGradient3225"
       id="linearGradient9483"
       gradientUnits="userSpaceOnUse"
       x1="375.17139"
       y1="481.12695"
       x2="375.17139"
       y2="627.55237" />
    <linearGradient
       inkscape:collect="always"
       xlink:href="#linearGradient5197"
       id="linearGradient9485"
       gradientUnits="userSpaceOnUse"
       x1="267.00482"
       y1="450.1579"
       x2="195.34068"
       y2="423.26831" />
    <linearGradient
       inkscape:collect="always"
       xlink:href="#linearGradient5197"
       id="linearGradient9487"
       gradientUnits="userSpaceOnUse"
       spreadMethod="repeat"
       x1="379.11264"
       y1="378.87973"
       x2="383.80917"
       y2="225.32318" />
    <linearGradient
       inkscape:collect="always"
       xlink:href="#linearGradient5197"
       id="linearGradient9489"
       gradientUnits="userSpaceOnUse"
       x1="333.62714"
       y1="305.53073"
       x2="338.83194"
       y2="276.24545" />
    <linearGradient
       inkscape:collect="always"
       xlink:href="#linearGradient5197"
       id="linearGradient9491"
       gradientUnits="userSpaceOnUse"
       x1="416.03726"
       y1="314.99216"
       x2="416.67383"
       y2="287.50903" />
    <linearGradient
       inkscape:collect="always"
       xlink:href="#linearGradient5197"
       id="linearGradient9493"
       gradientUnits="userSpaceOnUse"
       x1="353.82788"
       y1="353.77969"
       x2="370.98239"
       y2="331.95367" />
    <linearGradient
       inkscape:collect="always"
       xlink:href="#linearGradient5197"
       id="linearGradient9495"
       gradientUnits="userSpaceOnUse"
       x1="353.82788"
       y1="353.77969"
       x2="370.98239"
       y2="331.95367" />
    <linearGradient
       inkscape:collect="always"
       xlink:href="#linearGradient23837"
       id="linearGradient9497"
       gradientUnits="userSpaceOnUse"
       x1="278.7821"
       y1="598.48175"
       x2="300.01877"
       y2="538.17981" />
    <linearGradient
       inkscape:collect="always"
       xlink:href="#linearGradient23837"
       id="linearGradient9499"
       gradientUnits="userSpaceOnUse"
       x1="278.7821"
       y1="598.48175"
       x2="300.01877"
       y2="538.17981" />
    <linearGradient
       inkscape:collect="always"
       xlink:href="#linearGradient5197"
       id="linearGradient2380"
       gradientUnits="userSpaceOnUse"
       x1="416.03726"
       y1="314.99216"
       x2="416.67383"
       y2="287.50903"
       gradientTransform="translate(-162.39701,383.19088)" />
    <linearGradient
       inkscape:collect="always"
       xlink:href="#linearGradient5197"
       id="linearGradient2383"
       gradientUnits="userSpaceOnUse"
       x1="333.62714"
       y1="305.53073"
       x2="338.83194"
       y2="276.24545"
       gradientTransform="translate(-162.39701,383.19088)" />
    <linearGradient
       inkscape:collect="always"
       xlink:href="#linearGradient5197"
       id="linearGradient2386"
       gradientUnits="userSpaceOnUse"
       spreadMethod="repeat"
       x1="379.11264"
       y1="378.87973"
       x2="383.80917"
       y2="225.32318"
       gradientTransform="translate(-162.39701,383.19088)" />
    <linearGradient
       inkscape:collect="always"
       xlink:href="#linearGradient5197"
       id="linearGradient2390"
       gradientUnits="userSpaceOnUse"
       x1="267.00482"
       y1="450.1579"
       x2="195.34068"
       y2="423.26831"
       gradientTransform="translate(-162.39701,383.19088)" />
    <linearGradient
       inkscape:collect="always"
       xlink:href="#linearGradient3225"
       id="linearGradient2394"
       gradientUnits="userSpaceOnUse"
       x1="375.17139"
       y1="481.12695"
       x2="375.17139"
       y2="627.55237"
       gradientTransform="translate(-162.39701,383.19088)" />
    <linearGradient
       inkscape:collect="always"
       xlink:href="#linearGradient23837"
       id="linearGradient2397"
       gradientUnits="userSpaceOnUse"
       x1="346.8956"
       y1="409.87292"
       x2="406.49899"
       y2="371.66501"
       gradientTransform="translate(-162.39701,383.19088)" />
    <linearGradient
       inkscape:collect="always"
       xlink:href="#linearGradient5197"
       id="linearGradient2401"
       gradientUnits="userSpaceOnUse"
       x1="228.8004"
       y1="401.76709"
       x2="361.57016"
       y2="343.16568"
       gradientTransform="translate(-162.39701,383.19088)" />
    <linearGradient
       inkscape:collect="always"
       xlink:href="#linearGradient5197"
       id="linearGradient2404"
       gradientUnits="userSpaceOnUse"
       x1="335.76212"
       y1="383.67514"
       x2="432.98227"
       y2="334.34232"
       gradientTransform="translate(-162.39701,383.19088)" />
    <linearGradient
       inkscape:collect="always"
       xlink:href="#linearGradient5197"
       id="linearGradient2407"
       gradientUnits="userSpaceOnUse"
       x1="584.44714"
       y1="496.83411"
       x2="411.60892"
       y2="312.98669"
       gradientTransform="translate(-162.39701,383.19088)" />
    <linearGradient
       inkscape:collect="always"
       xlink:href="#linearGradient3225"
       id="linearGradient2411"
       gradientUnits="userSpaceOnUse"
       x1="533.03326"
       y1="446.52438"
       x2="547.33417"
       y2="428.58325"
       gradientTransform="translate(-162.39701,383.19088)" />
  </defs>
  <sodipodi:namedview
     id="base"
     pagecolor="#ffffff"
     bordercolor="#666666"
     borderopacity="1.0"
     inkscape:pageopacity="0.0"
     inkscape:pageshadow="2"
     inkscape:zoom="0.65724983"
     inkscape:cx="387.34665"
     inkscape:cy="438.36108"
     inkscape:document-units="px"
     inkscape:current-layer="layer1"
     inkscape:window-width="1680"
     inkscape:window-height="976"
     inkscape:window-x="0"
     inkscape:window-y="25"
     showguides="true"
     inkscape:guide-bbox="true"
     showgrid="false"
     inkscape:window-maximized="1" />
  <metadata
     id="metadata7">
    <rdf:RDF>
      <cc:Work
         rdf:about="">
        <dc:format>image/svg+xml</dc:format>
        <dc:type
           rdf:resource="http://purl.org/dc/dcmitype/StillImage" />
      </cc:Work>
    </rdf:RDF>
  </metadata>
  <g
     inkscape:label="Livello 1"
     inkscape:groupmode="layer"
     id="layer1"
     style="display:inline"
     transform="translate(0,-574.36218)">
     <path
       style="fill:#f2f2f2;fill-opacity:1;fill-rule:evenodd;stroke:none"
       d="m 122.34619,925.53833 c 0,0 -5.40652,-8.10977 -6.30761,-9.91195 -0.90108,-1.80217 -15.769,-58.57059 -12.16466,-77.4934 3.60435,-18.92281 4.95598,-33.34019 8.10978,-37.39507 3.1538,-4.05489 21.17552,-26.58204 23.42824,-27.93367 2.25271,-1.35163 11.71411,-16.6701 17.57117,-16.6701 5.85706,0 47.75757,18.92281 53.16408,18.02173 5.40652,-0.90109 28.83476,-0.90109 30.63693,-2.25272 1.80217,-1.35163 8.56032,-6.75814 8.56032,-6.75814 l 6.3076,-3.60435 c 0,0 14.41738,-1.35163 17.12064,-1.35163 2.70326,0 19.82389,9.91195 24.32932,14.86792 4.50543,4.95598 32.88965,37.39508 32.4391,54.51571 -0.45054,17.12064 0,30.63693 -1.80217,35.5929 -1.80217,4.95598 -6.75815,22.52715 -8.10977,27.48313 -1.35163,4.95597 -4.05489,15.31846 -4.50544,19.37335 -0.45054,4.05489 -5.40651,8.10977 -7.20868,9.91195 -1.80218,1.80217 -25.23041,5.40651 -29.73585,7.20869 -4.50543,1.80217 -18.47226,11.71411 -22.52715,13.51629 -4.05489,1.80217 -13.06575,8.10977 -13.06575,8.10977 0,0 -12.6152,12.61521 -15.31846,13.96684 -2.70326,1.35163 -25.68095,5.85706 -33.79073,0.90108 -8.10977,-4.95597 -17.12063,-13.51629 -21.17552,-18.47226 -4.05489,-4.95598 -13.06575,-14.41738 -16.21955,-17.12064 -3.1538,-2.70326 -29.73584,-3.60434 -29.73584,-4.50543 z"
       id="path17935" />
     <path
       style="opacity:0.1372549;fill:#000000;fill-opacity:1;fill-rule:evenodd;stroke:#000000;stroke-width:1px;stroke-linecap:butt;stroke-linejoin:miter;stroke-opacity:1;"
       d="m 318.08339,382.62994 4.95598,1.80217 8.33504,4.05489 5.63179,2.02744 6.08233,0 7.88451,0 37.62034,-3.1538 5.85706,-1.35163 6.53287,-3.37907 10.58777,-4.05489 5.18124,-0.90108 4.28016,0.45054 2.70326,-0.45054 2.02744,2.25271 2.92853,5.40652 3.60435,8.56032 c 0,0 -36.04345,50.91136 -53.16408,50.01027 -17.12064,-0.90108 -48.60125,-30.67006 -46.63121,-27.25785 1.97004,3.41221 -22.97769,-27.7084 -22.97769,-27.7084 l 8.56031,-6.3076 z"
       id="path18906"
       transform="matrix(1.0235525,0,0,1.050454,-174.59713,344.7751)" />
     <path
       sodipodi:type="arc"
       style="fill:url(#linearGradient9469);fill-opacity:1;stroke:none"
       id="path6186"
       sodipodi:cx="338.00449"
       sodipodi:cy="338.83038"
       sodipodi:rx="34.831955"
       sodipodi:ry="48.884331"
       d="m 372.83644,338.83038 a 34.831955,48.884331 0 1 1 -69.66391,0 34.831955,48.884331 0 1 1 69.66391,0 z"
       transform="matrix(1.0429185,0,0,0.9847095,-178.39857,389.11924)" />
    <path
       id="path6184"
       d="m 124.35224,923.38881 c 0,0 -9.56757,-27.50678 -9.86656,-49.63179 -0.29899,-22.12502 -1.49493,-34.98145 2.69088,-51.72471 4.18581,-16.74325 4.18581,-18.83616 4.18581,-18.83616 l -21.527036,41.26017 c 0,0 -3.28885,18.23819 -3.58784,20.03211 -0.29899,1.79392 2.69088,34.68246 2.69088,34.68246 l 3.288846,11.36149 7.17569,11.3615 4.18581,3.88683 10.76352,-2.3919 z"
       style="fill:#cccccc;fill-opacity:1;fill-rule:evenodd;stroke:none" />
    <path
       style="fill:#cccccc;fill-opacity:1;fill-rule:evenodd;stroke:none"
       d="m 301.0324,923.98678 c 0,0 9.56757,-27.50678 9.86656,-49.63179 0.29899,-22.12502 1.49493,-34.98145 -2.69088,-51.72471 -4.18581,-16.74325 -4.18581,-18.83616 -4.18581,-18.83616 l 21.52704,41.26017 c 0,0 3.28885,18.23819 3.58784,20.03211 0.29899,1.79392 -2.69088,34.68246 -2.69088,34.68246 l -3.28885,11.36149 -7.17569,11.3615 -4.18581,3.88683 -10.76352,-2.3919 z"
       id="path4226" />
    <path
       style="fill:url(#linearGradient2411);fill-opacity:1;fill-rule:evenodd;stroke:none"
       d="m 339.17429,785.25247 1.30008,5.20032 54.34339,55.38346 5.20033,4.42028 2.08013,-1.04007 -2.34015,-6.76042 -7.54047,-10.66066 -9.6206,-10.40065 -16.12101,-13.78086 -10.40065,-8.32052 -8.84055,-8.06051 -3.64023,-3.64022 -1.56009,-1.30009 -2.86018,-1.04006 z"
       id="path2253" />
    <path
       sodipodi:type="arc"
       style="fill:url(#linearGradient9473);fill-opacity:1;stroke:none"
       id="path10113"
       sodipodi:cx="416.48849"
       sodipodi:cy="341.96973"
       sodipodi:rx="33.7855"
       sodipodi:ry="27.805765"
       d="m 450.27399,341.96973 a 33.7855,27.805765 0 1 1 -67.57099,0 33.7855,27.805765 0 1 1 67.57099,0 z"
       transform="matrix(1.1172474,0,0,1.1962252,-215.26548,315.63933)" />
    <path
       style="fill:url(#linearGradient2407);fill-opacity:1;fill-rule:evenodd;stroke:none"
       d="m 264.55602,744.59475 c 0,0 8.07264,-0.59797 11.66048,-2.09291 3.58784,-1.49493 8.67062,-5.08277 8.67062,-5.08277 0,0 7.77365,-14.35137 -3.58784,-31.09462 -11.3615,-16.74326 -39.76524,-13.4544 -39.76524,-13.4544 l -3.58784,2.0929 26.60982,49.6318 z"
       id="path13048" />
    <path
       style="fill:url(#linearGradient2404);fill-opacity:1;fill-rule:evenodd;stroke:none"
       d="m 239.74012,694.96295 0,0 c 0,0 16.74326,2.98987 26.60982,22.12502 9.86656,19.13515 -0.59797,27.80577 -0.59797,27.80577 0,0 -19.73313,3.88682 -31.6926,-2.3919 -11.95947,-6.27872 -17.64021,-27.20779 -17.64021,-27.20779 0,0 0.59797,-6.87669 9.56757,-12.85643 8.9696,-5.97973 14.05238,-7.17568 13.75339,-7.47467 z"
       id="path12067" />
    <path
       style="fill:url(#linearGradient2401);fill-opacity:1;fill-rule:evenodd;stroke:none"
       d="m 149.74512,688.98322 c 0,0 -2.98987,26.9088 9.26859,43.05409 12.25845,16.14528 33.48651,22.72299 33.48651,22.72299 0,0 6.27872,-29.89867 -5.38176,-45.147 -11.66049,-15.24832 -37.37334,-20.63008 -37.37334,-20.63008 z"
       id="path7165"
       sodipodi:nodetypes="cscsc" />
    <path
       style="opacity:0.21568627;fill:#000000;fill-opacity:1;fill-rule:evenodd;stroke:none;"
       d="m 119.81152,934.52679 c 0,0 15.01616,-5.00539 36.94453,2.62187 21.92837,7.62726 31.70079,15.25451 32.6542,15.73122 0.9534,0.4767 18.82979,10.96418 18.82979,10.96418 0,0 6.67385,3.57528 16.44627,0.23835 9.77243,-3.33692 28.12552,-15.73122 31.22409,-18.35309 3.09857,-2.62187 20.73661,-9.53407 24.07353,-10.01077 3.33693,-0.47671 10.01078,-1.90682 15.25452,-1.90682 5.24374,0 10.48748,0.23836 10.48748,0.23836 l 3.81363,-8.58067 1.66846,-10.01078 c 0,0 -7.62726,-5.95879 -27.88716,-2.86022 -20.25991,3.09858 -42.42662,12.63265 -56.96608,17.63804 -14.53946,5.00538 -9.05737,4.76703 -13.82441,5.48209 -4.76703,0.71505 -21.69001,-11.20254 -30.50903,-14.30111 -8.81902,-3.09857 -25.98035,-8.58066 -36.70618,-8.81902 -10.72583,-0.23835 -17.87638,-0.71505 -21.21331,0.95341 -3.33692,1.66846 -7.62726,5.00539 -7.62726,5.00539 l 3.33693,15.96957 z"
       id="path20898" />
    <path
       style="fill:url(#linearGradient2397);fill-opacity:1;fill-rule:evenodd;stroke:none"
       d="m 179.52927,758.67858 c -0.45758,0.11439 -1.48714,3.20306 -1.48714,3.20306 0,0 -0.45758,1.60152 -0.22879,2.74547 0.22879,1.14395 0,2.17351 0.57198,3.08867 0.57197,0.91515 27.11158,30.31464 27.11158,30.31464 0,0 1.71593,2.74547 4.80459,2.40229 3.08866,-0.34318 4.11821,-0.68637 5.03337,-1.25834 0.91516,-0.57198 23.22216,-22.99337 23.22216,-22.99337 l 7.89325,-10.06675 c 0,0 0.57197,-2.4023 0.34318,-4.5758 -0.22879,-2.1735 -3.77503,-5.71974 -3.77503,-5.71974 0,0 -3.43184,-2.2879 -4.347,-2.63108 -0.91516,-0.34319 -14.52815,-6.17733 -23.22216,-6.40612 -8.69401,-0.22879 -22.4214,3.31745 -22.4214,3.31745 l -13.49859,8.57962 z"
       id="path3205" />
    <path
       style="opacity:0.21176471;fill:#000000;fill-opacity:1;fill-rule:evenodd;stroke:url(#linearGradient2394);stroke-width:1px;stroke-linecap:butt;stroke-linejoin:miter;stroke-opacity:1;"
       d="m 70.053374,971.10987 c 0,0 -16.93044,7.32127 -16.93044,12.35464 0,5.03338 1.83031,20.59109 77.788506,29.74269 75.9582,9.1516 59.94292,-12.8122 76.87336,-12.8122 16.93044,0 14.64254,4.1182 16.93044,5.9485 2.2879,1.8303 32.03057,13.2698 72.75514,7.7788 40.72458,-5.4909 70.92483,-16.01524 74.58546,-26.99715 3.66064,-10.98191 -21.04866,-15.5577 -21.04866,-15.5577 L 70.053374,971.10987 z"
       id="path4184"
       inkscape:export-filename="D:\Amministrativi_personale\LUG\tux-scandiano.png"
       inkscape:export-xdpi="150"
       inkscape:export-ydpi="150" />
    <path
       id="path2227"
       d="m 80.543884,983.59441 c -8.6969,-3.10087 -12.06828,-8.84453 -11.45095,-19.50845 0.88847,-15.34777 10.64991,-26.53615 31.535866,-36.1458 12.76971,-5.87536 20.58635,-7.21671 38.71718,-6.6439 12.81762,0.40494 16.30001,0.87934 23.54271,3.20717 16.13541,5.18596 29.62164,14.92648 35.42209,25.58382 3.03081,5.56859 4.39804,14.78061 3.16735,21.34073 -0.87024,4.63879 -4.98074,9.44365 -10.04807,11.74542 -3.7555,1.70588 -7.68428,1.83418 -55.54137,1.81381 -41.041526,-0.0175 -52.280786,-0.30033 -55.344806,-1.3928 z m 55.743126,-11.64619 c 21.64457,-1.08199 22.15819,-1.15789 24.83393,-3.67008 9.30834,-8.7394 6.21357,-24.16731 -6.60281,-32.91602 -8.05548,-5.49882 -16.80637,-7.60625 -29.41856,-7.08472 -17.25471,0.7135 -29.066816,6.82535 -34.582416,17.89372 -4.40046,8.83057 -2.72067,18.26079 4.30597,24.17331 3.83964,3.23085 6.701296,3.34153 41.463886,1.60379 z m 97.10168,11.90473 c -1.65,-0.57322 -4.6422,-2.60979 -6.64934,-4.52571 -13.44307,-12.83213 -1.97106,-38.5112 22.41185,-50.16687 12.48809,-5.96964 23.63024,-8.35862 38.7109,-8.29998 15.40128,0.0599 20.89902,1.1065 32.94631,6.27211 11.82479,5.0702 18.65842,9.5844 24.98051,16.50178 8.08492,8.84618 11.39293,21.99471 7.73574,30.74759 -1.73906,4.16217 -6.65005,8.30326 -11.41702,9.62718 -5.0709,1.40833 -104.62725,1.26538 -108.71895,-0.1561 z m 103.56557,-13.50852 c 13.33663,-11.22203 6.18429,-31.61242 -13.81348,-39.38049 -8.05969,-3.13076 -24.0111,-3.81433 -32.8947,-1.40965 -21.47962,5.81426 -31.73306,25.38871 -20.00348,38.18789 l 3.23354,3.52841 14.45628,0.73718 c 7.95095,0.40545 21.50924,0.80651 30.12954,0.89124 l 15.67328,0.15405 3.21902,-2.70863 z M 207.2277,800.76762 c -1.18854,-0.66801 -8.49665,-8.41456 -16.24023,-17.21456 -12.83137,-14.58189 -14.08011,-16.3382 -14.08901,-19.81574 -0.005,-2.09866 0.45717,-4.68823 1.02788,-5.75461 1.28999,-2.41036 10.04888,-6.86869 20.07301,-10.21727 12.9256,-4.31783 25.64262,-2.4339 43.03501,6.3753 2.00512,1.01558 4.36762,2.56847 5.25,3.45085 1.95667,1.95667 2.08422,6.42293 0.25487,8.92471 -1.22453,1.67464 -1.3084,1.56571 -0.90592,-1.17659 0.62166,-4.23565 -2.11559,-8.92607 -6.51523,-11.16418 -10.10327,-5.13955 -25.22087,-7.89516 -33.98007,-6.19384 -7.29346,1.41663 -16.74932,5.31554 -16.74932,6.90621 0,0.72938 2.91885,2.34544 6.5,3.59881 12.91675,4.52075 23.72222,11.377 30.6076,19.42103 1.95154,2.27992 4.05865,4.14532 4.68247,4.14532 0.62383,0 3.12316,-1.9125 5.55407,-4.25 6.75384,-6.4943 3.36986,-1.46692 -7.01858,10.42711 -11.46278,13.12407 -15.86868,15.69493 -21.48655,12.53745 z m 7.88372,-3.55805 c 1.10741,-1.0756 -33.7313,-36.57826 -35.07767,-35.74616 -0.62978,0.38922 -1.14506,2.02466 -1.14506,3.6343 0,2.35665 2.64148,5.83885 13.56299,17.87979 7.45964,8.22425 14.32214,15.16203 15.25,15.41731 1.95971,0.53916 6.35882,-0.16451 7.40974,-1.18524 z"
       style="fill:#cda809" />
    <path
       style="fill:url(#linearGradient2390);fill-opacity:1;fill-rule:evenodd;stroke:none"
       d="m 81.316454,786.0773 c 0,0 -16.7882,15.65002 -21.62548,19.9182 -4.83728,4.26819 -11.52411,8.67865 -19.34911,16.36139 -7.82501,7.68273 -14.79639,16.50365 -15.2232,17.35729 -0.42682,0.85364 -2.84546,4.41046 -2.70319,6.54455 0.14227,2.1341 -0.56909,4.97955 0.99591,4.41046 1.565,-0.56909 32.86504,-29.87731 34.99913,-32.29594 2.1341,-2.41864 17.3573,-17.78412 20.4873,-21.05639 3.13,-3.27228 4.97955,-6.97138 4.97955,-6.97138 l 0.99591,-3.27227 0.14227,-0.99591 -3.69909,0 z"
       id="path6164" />
    <path
       id="path2225"
       d="m 197.58937,978.75359 c 3.74797,-4.28323 4.74795,-8.52277 4.05283,-17.18251 -0.34425,-4.28864 -1.40449,-7.94343 -3.33142,-11.48383 -3.30442,-6.07131 -12.01319,-14.466 -19.58666,-18.88026 -2.93449,-1.7104 -4.95124,-3.11974 -4.48166,-3.13187 1.8278,-0.0472 15.50194,7.74643 22.63829,12.90284 4.12937,2.98369 9.08294,5.97978 11.00794,6.65797 4.51135,1.58938 6.82677,0.63517 18,-7.41801 4.675,-3.36953 12.55,-7.88948 17.5,-10.04432 12.50866,-5.44528 15.64291,-6.07306 5.74687,-1.15109 -24.27054,12.07141 -35.33978,36.25326 -22.87825,49.97981 l 3.13138,3.44926 -3.87451,-2.84512 c -3.42538,-2.51531 -4.93232,-2.89811 -13,-3.3023 -9.04071,-0.45293 -9.1673,-0.42669 -13.62549,2.82501 l -4.5,3.28218 3.20068,-3.65776 z m -97.5582,-64.6211 C 86.012014,892.96957 78.607314,871.46031 77.039824,847.3469 c -0.3649,-5.61339 -1.13819,-10.68089 -1.71841,-11.26112 -1.96267,-1.96266 -12.72734,2.50268 -29.93272,12.41652 -16.74295,9.64739 -17.71319,10.03623 -21.05816,8.43942 -2.44759,-1.16842 -3.03169,-2.15907 -3.47664,-5.89651 -0.64916,-5.4528 1.10599,-9.50447 7.66956,-17.70479 7.61897,-9.51889 12.25958,-14.02415 24.86524,-24.13998 35.92518,-28.82935 44.97511,-45.45477 47.500896,-87.26274 1.0338,-17.11189 1.68753,-21.14206 5.17194,-31.88464 11.06853,-34.12464 41.67373,-62.59839 77.31981,-71.93498 39.25595,-10.2821 80.39074,1.36085 108.75042,30.78114 20.49674,21.26329 28.94006,41.59554 30.79367,74.15384 2.32755,40.88292 11.55376,57.51435 48.17229,86.83677 19.18335,15.36114 31.86229,30.97684 32.06579,39.49301 0.11993,5.01889 -1.16222,7.17416 -4.81293,8.09043 -2.79677,0.70194 -6.18246,-0.86701 -24.42814,-11.32021 -13.83031,-7.92357 -23.59333,-11.71041 -25.69477,-9.96636 -0.85111,0.70635 -1.34045,3.34388 -1.343,7.2388 -0.005,8.13113 -2.331,22.09942 -5.52057,33.15738 -4.21075,14.59828 -11.21795,28.20523 -24.59824,47.76615 -0.36353,0.53145 -1.50031,0.4409 -2.73054,-0.21749 -2.08426,-1.11547 -2.07035,-1.18061 1.24936,-5.85325 1.84639,-2.59888 4.09919,-6.18773 5.00622,-7.97523 1.47866,-2.91402 1.48729,-3.25 0.0834,-3.25 -1.19106,0 -1.54181,-1.01701 -1.46575,-4.25 0.055,-2.3375 -0.0599,-14.6 -0.25532,-27.25 -0.30301,-19.61452 -0.694,-24.46361 -2.65629,-32.94333 -7.22873,-31.23784 -21.41128,-56.19548 -40.61874,-71.47855 -10.17973,-8.09984 -14.1755,-9.6762 -21.46957,-8.46988 l -5.8551,0.96833 -0.40923,-2.78828 c -0.38247,-2.60596 -0.17534,-2.78907 3.16757,-2.80016 8.92819,-0.0296 21.7105,-5.62651 27.50957,-12.04538 4.78713,-5.29878 7.93455,-14.0155 7.92306,-21.94275 -0.023,-15.89065 -13.95071,-29.1602 -32.21347,-30.69129 -5.67597,-0.47585 -8.3813,-0.16113 -13.91774,1.61907 -7.66627,2.46504 -15.47239,7.83793 -19.02732,13.09638 l -2.34981,3.47584 -4.14841,13.1758 c 1.82944,0.3401 10.23843,-11.87984 9.55093,-11.80744 -1.97139,0.20761 -1.45377,3.36457 1.06847,6.51663 2.01726,2.52098 2.58442,2.73735 4.49504,1.71482 2.71142,-1.45111 2.7204,-2.09916 0.0792,-5.71495 -1.57347,-2.1541 -1.21273,-1.95965 1.42411,0.76764 7.95454,8.2274 -3.53292,16.49207 -5.33775,26.97191 -0.0596,0.34591 -6.62861,-3.1665 -6.29266,-2.62293 0.39689,0.64218 0.66102,5.52347 -4.79288,5.06216 -4.61646,-0.39048 -2.75459,-14.75624 -4.63279,-14.74878 -8.6479,0.0344 -20.70014,7.30249 -20.73759,-4.81486 -0.019,-6.1424 0.39886,-8.1788 2.30838,-11.25 2.1756,-3.49917 5.16844,-5.06813 5.16844,-2.70951 0,0.57227 1.01098,2.48477 2.24662,4.25 1.23564,1.76523 2.33969,3.37605 2.45343,3.57961 0.59842,1.0709 5.29995,-1.14339 5.29995,-2.49614 0,-1.06181 0.54414,-1.37913 1.6423,-0.95773 2.88873,1.10851 1.03181,-9.66767 -3.10997,-18.048 -10.28625,-20.8128 -30.96297,-28.05068 -48.03233,-16.8137 -10.80227,7.11128 -19.46527,25.33402 -19.46527,40.94547 0,7.39464 2.55344,18.18752 5.92968,25.0635 4.31443,8.78671 13.95777,17.77659 21.38475,19.93567 3.12448,0.90831 7.24445,1.51677 9.1555,1.35212 3.34137,-0.28787 3.99603,0.29408 17.07064,15.17468 7.47781,8.51072 14.73265,16.0772 16.12188,16.8144 4.27127,2.26658 8.59764,0.69039 14.05867,-5.12187 2.69674,-2.87017 7.01322,-7.4685 9.59219,-10.2185 3.99725,-4.26233 4.53865,-4.58435 3.66966,-2.18268 -4.54131,12.55104 -14.34475,21.68268 -23.27782,21.68268 -6.00971,0 -10.69114,-3.54879 -21.09876,-15.99407 -8.57289,-10.25134 -12.82252,-14.05944 -17.85946,-16.00393 -1.80491,-0.69677 -6.31309,-2.62109 -10.01816,-4.27625 l -6.73651,-3.00939 -3.76349,2.50108 c -16.49334,10.96081 -31.48746,33.14435 -40.20279,59.47929 -5.58914,16.88859 -7.28813,28.47312 -7.01083,47.80327 0.3228,22.50211 -0.28444,31.5 -2.12582,31.5 -1.38536,0 0.87178,4.97696 4.62881,10.20648 3.96749,5.52245 4.15539,6.37504 1.55481,7.05511 -1.50407,0.39332 -3.34347,-1.69576 -8.9652,-10.18216 z m 227.85752,-9.07943 c 0.5887,-1.1 0.84537,-2 0.57037,-2 -0.275,0 -0.98167,0.9 -1.57037,2 -0.5887,1.1 -0.84537,2 -0.57037,2 0.275,0 0.98167,-0.9 1.57037,-2 z m 11.47281,-25.53342 c 3.18,-9.2949 5.5336,-21.94207 6.18512,-33.23608 0.8497,-14.72934 1.15471,-15.12867 9.42816,-12.34341 3.52765,1.18759 9.11391,3.64077 12.41391,5.45153 14.96661,8.21238 24.7629,14.1829 25.21834,15.36978 0.58155,1.51549 6.8794,1.75149 7.78166,0.2916 0.33992,-0.55 0.0242,-1 -0.70162,-1 -0.72581,0 -4.46487,-3.67176 -8.30902,-8.15947 -3.84415,-4.4877 -11.93936,-12.52914 -17.98936,-17.86986 -6.05,-5.34072 -15.725,-14.60646 -21.5,-20.59053 -9.4457,-9.78767 -10.77785,-11.63321 -13.26722,-18.38014 -1.52197,-4.125 -2.75947,-8.73074 -2.75,-10.23498 0.009,-1.50423 -1.28978,-4.87923 -2.88723,-7.5 -5.89664,-9.67398 -9.8726,-26.76562 -11.1114,-47.76502 -1.27291,-21.57771 -3.9217,-32.5604 -11.49609,-47.66636 -13.62865,-27.18026 -39.43581,-48.12082 -69.48806,-56.38432 -11.77953,-3.23904 -34.50025,-4.44462 -46.75684,-2.48096 -35.88721,5.74957 -67.87002,29.94493 -82.86254,62.68645 -5.62438,12.28284 -8.33688,24.54824 -9.3687,42.36348 -1.30295,22.49658 -5.069296,38.34728 -11.983276,50.43165 -1.68146,2.93888 -2.78083,6.03227 -2.45012,6.89408 0.62371,1.62537 -2.18818,10.04188 -5.49657,16.45221 -1.92315,3.72631 -20.61773,22.52601 -35.70211,35.90287 -4.46493,3.9595 -10.97577,10.597 -14.46853,14.75 -3.49277,4.15299 -6.95323,7.5509 -7.68991,7.5509 -0.73669,0 -1.06132,0.45 -0.7214,1 1.00514,1.62636 5.70917,1.14247 7.93555,-0.81631 2.54085,-2.23545 18.92964,-11.87688 27.06445,-15.92187 8.88898,-4.41999 16.44499,-6.71683 17.76246,-5.39936 0.59556,0.59556 1.45361,6.58148 1.90677,13.30203 0.94502,14.01511 4.34911,29.3514 8.94532,40.30092 3.29947,7.86032 5.11223,10.06726 2.21878,2.70126 -0.90484,-2.3035 -1.37533,-4.45801 -1.04553,-4.7878 0.32979,-0.32979 3.57556,1.92505 7.21282,5.01075 3.63726,3.08571 6.925086,5.61041 7.306286,5.61045 0.3812,4e-5 0.70147,-8.66246 0.71172,-19.25 0.0139,-14.30927 0.47346,-21.56004 1.7907,-28.25007 6.51382,-33.08269 21.35009,-59.82114 43.66266,-78.69041 l 5.47198,-4.62754 -4.63785,-4.95824 c -17.17001,-18.35613 -18.01023,-50.60486 -1.85109,-71.04771 5.04081,-6.37709 12.09818,-10.75904 21.14261,-13.12751 l 7.40236,-1.93847 -5,-0.0403 c -6.77927,-0.0546 -15.72433,2.17529 -23.52437,5.86435 -8.26764,3.91022 -9.09628,2.33905 -2.13988,-4.05738 7.65086,-7.03498 14.25763,-9.30609 27.18528,-9.34508 9.88088,-0.0298 10.92269,0.16601 17.12258,3.2182 6.55266,3.22587 16.36261,12.248 14.12757,12.99301 -0.61209,0.20403 -3.28601,-0.71823 -5.94204,-2.04947 -4.92134,-2.46664 -9.46164,-4.0346 -14.82914,-5.12113 -1.83688,-0.37183 -0.47991,0.62976 3.5,2.58337 12.07096,5.92527 21.43374,18.55005 24.3463,32.8286 0.66176,3.24418 1.46946,6.16478 1.79489,6.49022 0.32544,0.32543 1.78602,-1.84938 3.24573,-4.83292 6.91119,-14.12598 24.94476,-22.76877 41.24228,-19.76584 12.63003,2.32718 23.0789,9.75758 28.10033,19.98272 3.66283,7.45863 3.91684,19.07775 0.57624,26.35874 -3.21269,7.00219 -10.59671,14.3422 -17.96665,17.85955 -3.48652,1.66396 -6.33912,3.16369 -6.33912,3.33272 0,0.16904 2.5875,2.01822 5.75,4.1093 19.02663,12.5806 35.65743,35.40504 44.6317,61.25344 6.16482,17.75638 8.0707,29.93853 8.05361,51.47776 -0.008,10.3125 0.31184,18.75 0.71115,18.75 0.39932,0 3.56391,-2.475 7.03242,-5.5 9.0013,-7.8503 9.62745,-7.43986 4.82112,3.16027 -1.65,3.639 -2.96123,6.89162 -2.91385,7.22805 0.14539,1.03236 7.58196,-15.14674 9.38666,-20.42174 z M 287.20978,691.18926 c -5.16253,-4.67191 -14.87439,-9.93143 -21.68948,-11.74608 -7.69132,-2.04795 -20.21773,-1.76176 -27.99227,0.63956 -3.61424,1.11632 -9.57123,4.04132 -13.23776,6.5 -3.66653,2.45867 -6.98104,4.47032 -7.36558,4.47032 -0.38455,0 -2.13208,-2.21136 -3.88341,-4.91412 -9.66938,-14.92239 -28.98696,-24.58644 -45.11755,-22.57106 -11.33594,1.41634 -25.56883,9.07419 -31.62662,17.01636 -3.36313,4.40929 -4.40842,4.37685 -4.40842,-0.13683 0,-11.47046 7.16377,-26.43222 18.14402,-37.89435 17.06536,-17.81431 40.40735,-26.42794 68.35598,-25.22465 41.18138,1.77302 74.07586,29.53968 76.25849,64.37078 0.55843,8.91157 -0.12156,13.37636 -2.02754,13.31286 -0.67702,-0.0226 -3.11146,-1.74281 -5.40986,-3.82279 z m -54.82109,-11.70801 c 6.49456,-2.65115 7.97477,-2.85897 20.5,-2.87814 12.92025,-0.0198 13.84356,0.11808 21.5,3.21004 5.09773,2.05866 9.72322,3.23237 12.75,3.23531 l 4.75,0.005 0,-4.89467 c 0,-19.97011 -18.71337,-43.09033 -42.97472,-53.0949 -12.1276,-5.00103 -20.91465,-6.52181 -37.02528,-6.408 -17.16131,0.12122 -25.46195,1.97967 -39.5,8.84373 -19.98248,9.77065 -33.98751,26.7818 -37.49178,45.53921 -0.46372,2.48218 -0.70823,4.64796 -0.54335,4.81283 0.16487,0.16488 3.16523,-1.86412 6.66745,-4.50888 10.38405,-7.84168 17.63959,-10.61342 29.06271,-11.10246 7.82927,-0.33518 11.0046,-0.0138 16.5,1.66997 7.93461,2.43115 16.94115,8.08927 23.30497,14.64074 4.44299,4.57399 4.56968,4.62733 10,4.2104 3.025,-0.23226 8.65,-1.70816 12.5,-3.27978 z m -7.27976,10.41108 c 0.66458,-1.99372 9.9974,-6.68022 16.74635,-8.40922 12.84737,-3.29135 30.33502,-0.35365 37.5202,6.3029 l 2.98679,2.76705 -2.63933,0.30702 c -1.45163,0.16886 -6.33289,-0.39364 -10.84726,-1.25 -10.37553,-1.96821 -24.54005,-1.99159 -34.64902,-0.0572 -9.4186,1.80229 -9.60769,1.80933 -9.11773,0.33944 z m 53.45814,-0.7436 c -1.7949,-0.82186 -8.9968,-7.01603 -24.90365,-7.456 -11.72677,-0.32124 -19.84232,4.71933 -21.63722,5.54119 -2.70735,1.23968 8.77695,-1.32958 21.86249,-1.32958 13.08554,0 27.38573,4.48407 24.67838,3.24439 z M 82.454674,789.85272 c 2.60798,-4.91097 1.51301,-4.33023 -6.31598,3.3498 -4.2625,4.1814 -13.15,11.87001 -19.75,17.08579 -18.55345,14.66225 -32.45931,30.60862 -32.49062,37.25817 -0.01055,2.24095 56.0721,-53.01532 58.5566,-57.69376 z m 317.434016,57.66822 c 0,-1.92875 -3.58986,-8.37726 -7.37007,-13.23898 -5.97464,-7.68394 -15.22312,-16.44537 -26.12993,-24.75386 -4.95,-3.77076 -12.9375,-10.67666 -17.75,-15.34645 -8.62118,-8.36552 -9.8265,-9.12436 -7.64465,-4.81285 1.23824,2.44687 56.95222,58.68426 58.13807,58.68426 0.41612,0 0.75658,-0.23945 0.75658,-0.53212 z M 217.5192,742.30306 c -0.78147,-1.5125 -1.95079,-4.71974 -2.59848,-7.1272 -0.72914,-2.7102 -1.53313,-4.0217 -2.11111,-3.44372 -1.19947,1.19947 -3.89948,11.54659 -3.27617,12.55513 0.26031,0.42118 2.48328,0.76579 4.93995,0.76579 l 4.46666,0 -1.42085,-2.75 z m -9.60358,-6.5 c 1.95153,-4.29932 2.59101,-12.22924 1.16692,-14.47059 -0.60626,-0.95417 -1.62357,-0.96032 -4.66075,-0.0282 -2.5521,0.78326 -4.00109,0.84481 -4.2229,0.17937 -0.92461,-2.77381 -4.12826,-7.86994 -5.16455,-8.21537 -1.69738,-0.5658 -4.14565,5.991 -4.14565,11.10262 0,7.04835 7.41167,15.45054 13.79889,15.64302 0.71439,0.0215 2.16701,-1.87336 3.22804,-4.21086 z m 24.09428,1.02353 c 1.83523,-3.42917 2.81453,-8.84482 2.17637,-12.03561 -0.58578,-2.92891 -1.56884,-3.106 -6.57591,-1.18461 -0.9812,0.37652 -2.34513,-0.94145 -4.13506,-3.99573 -1.469,-2.50667 -3.12491,-4.55758 -3.67979,-4.55758 -1.57715,0 -3.90682,6.51621 -3.90682,10.92758 0,3.38578 0.62021,4.56725 4.08521,7.78211 6.26519,5.81292 10.04922,6.77617 12.036,3.06384 z m -31.74309,-58.07667 c -5.0281,-3.67664 -11.39433,-12.6001 -31.68538,-11.59703 -10.40451,0.50869 -22.03069,9.19466 -22.4342,9.35842 -1.4679,0.59572 16.7849,-4.94942 26.38221,-4.93862 14.49059,0.0163 29.20249,8.24855 27.73737,7.17723 z m 57.89271,245.69897 c 0.3323,-0.33229 1.19479,-0.36781 1.91667,-0.0789 0.79773,0.31922 0.56078,0.55618 -0.60417,0.60416 -1.05416,0.0434 -1.64479,-0.19293 -1.3125,-0.52522 z"
       style="fill:#636363"
       sodipodi:nodetypes="cssssssssscccsccccsssssssssssssssssssssssssssscccssssscccsssssssssssssssssssssssssssssscccsssssccsssccsssssssssssssssssssssssssssssssssssscccscccsssssssssssssssssssssssccssssssssssssccsscccssssssssssccscccssccsssccsssccsssssccsssccccssssssccssssssccsssccssc" />
    <path
       style="fill:url(#linearGradient2386);fill-opacity:1;fill-rule:evenodd;stroke:none"
       d="m 127.83122,683.69944 2.23008,3.5044 5.41589,0.63716 c 0,0 9.87605,-4.46015 11.78754,-5.41589 1.91149,-0.95575 20.38925,-7.00881 20.38925,-7.00881 l 8.9203,-0.95574 23.25649,7.32738 17.20343,14.65478 12.74328,-2.86724 19.75208,-3.18582 21.345,0.95574 20.07067,5.73448 c 0,0 7.96455,0 8.28313,-1.27433 0.31859,-1.27433 2.54866,-15.9291 1.59291,-19.4335 -0.95574,-3.5044 -5.73447,-17.52201 -8.28313,-20.38925 -2.54866,-2.86724 -14.65477,-14.65478 -15.9291,-15.92911 -1.27433,-1.27432 -14.65478,-10.83178 -16.88485,-12.10611 -2.23007,-1.27433 -17.52201,-7.00881 -17.52201,-7.00881 l -31.53962,-4.14156 -14.01761,0.63716 -19.11493,4.46015 -27.71664,17.20343 -13.38044,16.24768 -6.37164,12.4247 -2.23008,15.92911 z"
       id="path14027" />
    <path
       style="fill:url(#linearGradient2383);fill-opacity:1;fill-rule:evenodd;stroke:none"
       d="m 139.80473,683.25881 -0.11264,-2.59063 2.59063,-4.16752 5.85706,-4.84334 c 0,0 5.96969,-3.26644 6.42024,-3.37907 0.45054,-0.11264 6.64551,-3.1538 9.01086,-3.1538 2.36535,0 10.81303,-0.33791 10.81303,-0.33791 0,0 6.64551,0.11264 7.20869,0.22527 0.56318,0.11264 4.84334,1.5769 4.84334,1.5769 l 8.89822,3.71698 10.24986,8.56032 c 0,0 1.46426,2.59062 1.23899,3.1538 -0.22527,0.56318 -1.12636,1.5769 -1.12636,1.5769 0,0 -3.60434,-0.67581 -4.7307,-1.12636 -1.12636,-0.45054 -4.61807,-1.5769 -5.06861,-1.80217 -0.45054,-0.22527 -5.18124,-2.70326 -6.08233,-2.81589 -0.90109,-0.11264 -6.64551,-1.91481 -6.64551,-1.91481 l -4.7307,-1.01372 -4.28016,-0.78845 -5.51915,0.22527 -17.45855,4.50543 -6.42024,2.92853 -3.60434,1.23899 -1.35163,0.22528 z"
       id="path15977" />
    <path
       style="fill:url(#linearGradient2380);fill-opacity:1;fill-rule:evenodd;stroke:none"
       d="m 221.69093,694.18447 c 0,0 7.65923,-0.78845 9.91195,-1.5769 2.25271,-0.78845 13.40365,-2.14008 14.1921,-2.25271 0.78845,-0.11264 12.2773,-0.67582 15.54374,0 3.26644,0.67581 15.4311,2.59062 16.33218,2.59062 0.90109,0 5.74443,-0.22527 5.74443,-0.22527 0,0 1.23899,-2.25272 0.67581,-2.92853 -0.56318,-0.67582 -1.80217,-1.35163 -2.59062,-1.80217 -0.78845,-0.45055 -6.08233,-3.37908 -6.98342,-4.05489 -0.90108,-0.67581 -10.47512,-3.94225 -11.0383,-3.94225 -0.56318,0 -10.36249,-0.56318 -12.95311,-0.56318 -2.59063,0 -9.34877,0.78845 -10.36249,1.23899 -1.01373,0.45055 -7.09606,2.70326 -8.10978,3.1538 -1.01372,0.45055 -4.05489,1.68954 -5.18124,2.8159 -1.12636,1.12636 -2.47799,2.81589 -2.70326,3.26644 -0.22527,0.45054 -2.14008,4.28015 -2.47799,4.28015 z"
       id="path16956" />
    <path
       style="fill:#636363;fill-rule:evenodd;stroke:none"
       d="m 212.54195,730.05989 -3.10866,7.77165 -3.10866,8.11706 c 0,0 3.10866,-0.51811 6.56272,-0.34541 3.45407,0.1727 8.80787,1.03622 8.80787,1.03622 l -1.72703,-2.41785 -1.38163,-2.41784 c 0,0 -1.55433,-2.07244 -2.24514,-4.14488 -0.69081,-2.07244 -1.55433,-5.0084 -1.55433,-5.0084 l -1.20892,-2.24514 -1.03622,-0.34541 z"
       id="path9083" />
    <path
       id="path2223"
       d="m 326.88869,905.05306 c 0.5887,-1.1 1.29537,-2 1.57037,-2 0.275,0 0.0183,0.9 -0.57037,2 -0.5887,1.1 -1.29537,2 -1.57037,2 -0.275,0 -0.0183,-0.9 0.57037,-2 z m 3.08615,-5.11168 c -0.0474,-0.33643 1.26385,-3.58905 2.91385,-7.22805 4.80633,-10.60013 4.18018,-11.01057 -4.82112,-3.16027 -3.46851,3.025 -6.6331,5.5 -7.03242,5.5 -0.39931,0 -0.71933,-8.4375 -0.71115,-18.75 0.0171,-21.53923 -1.88879,-33.72138 -8.05361,-51.47776 -8.97427,-25.8484 -25.60507,-48.67284 -44.6317,-61.25344 -3.1625,-2.09108 -5.75,-3.94026 -5.75,-4.1093 0,-0.16903 2.8526,-1.66876 6.33912,-3.33272 7.36994,-3.51735 14.75396,-10.85736 17.96665,-17.85955 3.3406,-7.28099 3.08659,-18.90011 -0.57624,-26.35874 -5.02143,-10.22514 -15.4703,-17.65554 -28.10033,-19.98272 -16.29752,-3.00293 -34.33109,5.63986 -41.24228,19.76584 -1.45971,2.98354 -2.92029,5.15835 -3.24573,4.83292 -0.32543,-0.32544 -1.13313,-3.24604 -1.79489,-6.49022 -2.91256,-14.27855 -12.27534,-26.90333 -24.3463,-32.8286 -3.97991,-1.95361 -8.82859,-3.29311 -6.99171,-2.92128 5.3675,1.08653 13.39951,2.9924 18.32085,5.45904 2.65603,1.33124 5.32995,2.2535 5.94204,2.04947 2.23504,-0.74501 -7.57491,-9.76714 -14.12757,-12.99301 -6.19989,-3.05219 -7.2417,-3.248 -17.12258,-3.2182 -12.92765,0.039 -19.53442,2.3101 -27.18528,9.34508 -6.9564,6.39643 -6.12776,7.9676 2.13988,4.05738 7.80004,-3.68906 16.7451,-5.91896 23.52437,-5.86435 l 8.82962,1.16664 -11.23198,0.81211 c -9.04443,2.36847 -16.1018,6.75042 -21.14261,13.12751 -16.15914,20.44285 -15.31892,52.69158 1.85109,71.04771 l 4.63785,4.95824 -5.47198,4.62754 c -22.31257,18.86927 -37.14884,45.60772 -43.66266,78.69041 -1.31724,6.69003 -1.77684,13.9408 -1.7907,28.25007 -0.0102,10.58754 -0.33052,19.25004 -0.71172,19.25 -0.3812,-4e-5 -3.669026,-2.52474 -7.306286,-5.61045 -3.63726,-3.0857 -6.88303,-5.34054 -7.21282,-5.01075 -0.3298,0.32979 0.14069,2.4843 1.04553,4.7878 2.89345,7.366 1.08069,5.15906 -2.21878,-2.70126 -4.59621,-10.94952 -8.0003,-26.28581 -8.94532,-40.30092 -0.45316,-6.72055 -1.31121,-12.70647 -1.90677,-13.30203 -1.31747,-1.31747 -8.87348,0.97937 -17.76246,5.39936 -8.13481,4.04499 -24.5236,13.68642 -27.06445,15.92187 -2.22638,1.95878 -6.93041,2.44267 -7.93555,0.81631 -0.33992,-0.55 -0.01529,-1 0.7214,-1 0.73668,0 4.19714,-3.39791 7.68991,-7.5509 3.49276,-4.153 10.0036,-10.7905 14.46853,-14.75 15.08438,-13.37686 33.77896,-32.17656 35.70211,-35.90287 3.30839,-6.41033 6.12028,-14.82684 5.49657,-16.45221 -0.33071,-0.86181 0.76866,-3.9552 2.45012,-6.89408 6.91398,-12.08437 10.680326,-27.93507 11.983276,-50.43165 1.03182,-17.81524 3.74432,-30.08064 9.3687,-42.36348 14.99252,-32.74152 46.97533,-56.93688 82.86254,-62.68645 12.25659,-1.96366 34.97731,-0.75808 46.75684,2.48096 30.05225,8.2635 55.85941,29.20406 69.48806,56.38432 7.57439,15.10596 10.22318,26.08865 11.49609,47.66636 1.2388,20.9994 5.21476,38.09104 11.1114,47.76502 1.59745,2.62077 2.8967,5.99577 2.88723,7.5 -0.009,1.50424 1.22803,6.10998 2.75,10.23498 2.48937,6.74693 3.82152,8.59247 13.26722,18.38014 5.775,5.98407 15.45,15.24981 21.5,20.59053 6.05,5.34072 14.14521,13.38216 17.98936,17.86986 3.84415,4.48771 7.58321,8.15947 8.30902,8.15947 0.72581,0 1.04154,0.45 0.70162,1 -0.90226,1.45989 -7.20011,1.22389 -7.78166,-0.2916 -0.45544,-1.18688 -10.25173,-7.1574 -25.21834,-15.36978 -3.3,-1.81076 -8.88626,-4.26394 -12.41391,-5.45153 -8.27345,-2.78526 -8.57846,-2.38593 -9.42816,12.34341 -0.65152,11.29401 -3.00512,23.94118 -6.18512,33.23608 -1.8047,5.275 -9.24127,21.4541 -9.38666,20.42174 z M 294.50412,692.44919 c 0.35944,-1.43212 0.42382,-6.26963 0.14306,-10.75 -2.18263,-34.8311 -35.07711,-62.59776 -76.25849,-64.37078 -27.94863,-1.20329 -51.29062,7.41034 -68.35598,25.22465 -10.98025,11.46213 -18.14402,26.42389 -18.14402,37.89435 0,4.51368 1.04529,4.54612 4.40842,0.13683 6.05779,-7.94217 20.29068,-15.60002 31.62662,-17.01636 16.13059,-2.01538 35.44817,7.64867 45.11755,22.57106 1.75133,2.70276 3.49886,4.91412 3.88341,4.91412 0.38454,0 3.69905,-2.01165 7.36558,-4.47032 3.66653,-2.45868 9.62352,-5.38368 13.23776,-6.5 7.77454,-2.40132 20.30095,-2.68751 27.99227,-0.63956 6.81509,1.81465 16.52695,7.07417 21.68948,11.74608 4.96683,4.49482 6.41946,4.74572 7.29434,1.25993 z m -60.27746,-2.8963 c 10.10897,-1.9344 24.27349,-1.91102 34.64902,0.0572 4.51437,0.85636 9.39563,1.41886 10.84726,1.25 l 2.63933,-0.30702 -2.98679,-2.76705 c -7.18518,-6.65655 -24.67283,-9.59425 -37.5202,-6.3029 -6.74895,1.729 -16.08177,6.4155 -16.74635,8.40922 -0.48996,1.46989 -0.30087,1.46285 9.11773,-0.33944 z M 20.241474,848.94343 c 0.49191,-0.18796 0.06248,-0.0433 0.05764,-0.0233 -0.08581,0.35553 0.13362,-0.68953 -0.10557,0.55438 -0.23919,1.24391 -0.04157,-0.14195 0.04793,-0.53111 z m 380.749256,1.98336 c -0.0204,-1.65 1.00928,-1.99758 1.28321,-1.32055 0.27392,0.67703 0.51483,0.98058 0.26129,1.95355 -0.25354,0.97297 -1.52412,1.017 -1.5445,-0.633 z M 207.85768,744.68934 c -0.62331,-1.00854 3.34966,-12.40025 4.95193,-12.9572 1.66277,-0.57798 1.38197,0.73352 2.11111,3.44372 0.64769,2.40746 1.81701,5.6147 2.59848,7.1272 l 2.86724,3.83479 -5.91305,-1.08479 c -2.45667,0 -6.3554,0.0575 -6.61571,-0.36372 z m -7.65968,-6.10221 c -4.87664,-2.12087 -9.30931,-8.88999 -9.30931,-14.21623 0,-5.11162 2.44827,-11.66842 4.14565,-11.10262 1.03629,0.34543 4.23994,5.44156 5.16455,8.21537 0.22181,0.66544 1.6708,0.60389 4.2229,-0.17937 4.72369,-1.44974 5.43914,-0.69223 5.42963,5.74878 -0.007,5.05587 -3.18077,13.02062 -5.16384,12.96086 -0.71439,-0.0215 -2.7347,-0.66359 -4.48958,-1.42679 z m 25.5259,-0.35436 c -0.91564,-0.37384 -3.50314,-2.38535 -5.75,-4.47002 -3.465,-3.21486 -4.08521,-4.39633 -4.08521,-7.78211 0,-4.41137 2.32967,-10.92758 3.90682,-10.92758 0.55488,0 2.21079,2.05091 3.67979,4.55758 1.78993,3.05428 3.15386,4.37225 4.13506,3.99573 5.00707,-1.92139 5.99013,-1.7443 6.57591,1.18461 0.63816,3.19079 -0.34114,8.60644 -2.17637,12.03561 -1.19462,2.23215 -3.1769,2.67559 -6.286,1.40618 z"
       style="fill:#070707"
       sodipodi:nodetypes="csssccsssssssssssssssssssssscccscccsssssssssssssssssssssssssssssssssssssccssssssssssssccscccssccssccssccsscccccssssssccsssssssc" />
    <path
       sodipodi:type="arc"
       style="fill:url(#linearGradient9493);fill-opacity:1;stroke:#000000;stroke-opacity:1"
       id="path8144"
       sodipodi:cx="363.86685"
       sodipodi:cy="343.01617"
       sodipodi:rx="9.5675755"
       sodipodi:ry="17.191736"
       d="m 373.43443,343.01617 a 9.5675755,17.191736 0 1 1 -19.13515,0 9.5675755,17.191736 0 1 1 19.13515,0 z"
       transform="matrix(1.125,0,0,1,-209.07631,383.19088)" />
    <path
       style="fill:#000000;fill-opacity:1;stroke:#000000;stroke-width:0.93565798;stroke-opacity:1"
       d="m 195.69673,711.72213 c -1.79442,2.8545 -2.9375,7.02416 -2.9375,11.65625 0,8.59987 3.91482,15.56249 8.71875,15.5625 4.80394,0 8.6875,-6.96262 8.6875,-15.5625 0,-1.55605 -0.1062,-3.08178 -0.34375,-4.5 l -0.59375,0.3125 -7.75,2.96875 c 0,0 -0.91132,-3.87583 -2.40625,-5.96875 -0.59362,-0.83106 -1.96544,-2.6318 -3.375,-4.46875 z"
       id="path10092" />
    <g
       id="g10107"
       transform="matrix(0.8941064,0,0,0.865033,-99.663401,430.50188)">
      <path
         sodipodi:type="arc"
         style="fill:url(#linearGradient9495);fill-opacity:1;stroke:#000000;stroke-opacity:1"
         id="path10103"
         sodipodi:cx="363.86685"
         sodipodi:cy="343.01617"
         sodipodi:rx="9.5675755"
         sodipodi:ry="17.191736"
         d="m 373.43443,343.01617 a 9.5675755,17.191736 0 1 1 -19.13515,0 9.5675755,17.191736 0 1 1 19.13515,0 z"
         transform="matrix(1.125,0,0,1,-46.679302,0)" />
      <path
         style="fill:#000000;fill-opacity:1;stroke:#000000;stroke-width:0.93565798;stroke-opacity:1"
         d="m 358.09375,328.53125 c -1.79442,2.8545 -2.9375,7.02416 -2.9375,11.65625 0,8.59987 3.91482,15.56249 8.71875,15.5625 4.80394,0 8.6875,-6.96262 8.6875,-15.5625 0,-1.55605 -0.1062,-3.08178 -0.34375,-4.5 L 371.625,336 l -7.75,2.96875 c 0,0 -0.91132,-3.87583 -2.40625,-5.96875 -0.59362,-0.83106 -1.96544,-2.6318 -3.375,-4.46875 z"
         id="path10105" />
    </g>
    <path
       style="fill:#000000;fill-opacity:1;fill-rule:evenodd;stroke:none"
       d="m 175.39763,674.47322 6.53288,1.5769 6.19496,2.02744 2.25272,0.45054 -4.05489,-2.25271 -5.29388,-1.5769 -1.80217,-0.56318 -3.04117,0 -0.78845,0.33791 z"
       id="path15006" />
    <path
       sodipodi:type="arc"
       style="fill:url(#linearGradient9497);fill-opacity:1;stroke:none"
       id="path22858"
       sodipodi:cx="290.67001"
       sodipodi:cy="577.44623"
       sodipodi:rx="36.587002"
       sodipodi:ry="23.239302"
       d="m 327.25702,577.44623 a 36.587002,23.239302 0 1 1 -73.17401,0 36.587002,23.239302 0 1 1 73.17401,0 z"
       transform="matrix(1.0900561,0,0,1.1879104,-189.60361,269.25996)" />
    <path
       transform="matrix(1.0900561,0,0,1.1879104,-12.941176,269.25996)"
       d="m 327.25702,577.44623 a 36.587002,23.239302 0 1 1 -73.17401,0 36.587002,23.239302 0 1 1 73.17401,0 z"
       sodipodi:ry="23.239302"
       sodipodi:rx="36.587002"
       sodipodi:cy="577.44623"
       sodipodi:cx="290.67001"
       id="path3201"
       style="fill:url(#linearGradient9499);fill-opacity:1;stroke:none"
       sodipodi:type="arc" />
    <path
       style="fill:#cda809;fill-rule:evenodd;stroke:none"
       d="m 238.6441,775.2518 6.89977,-8.48732 0.54953,0.18318 -7.57142,9.2811 0.12212,-0.97696 z"
       id="path8112" />
  </g>
</svg>
