<?xml version="1.0" encoding="UTF-8" standalone="no"?>
<svg
   xmlns:dc="http://purl.org/dc/elements/1.1/"
   xmlns:cc="http://creativecommons.org/ns#"
   xmlns:rdf="http://www.w3.org/1999/02/22-rdf-syntax-ns#"
   xmlns:svg="http://www.w3.org/2000/svg"
   xmlns="http://www.w3.org/2000/svg"
   height="300"
   width="300"
   xml:space="preserve"
   viewBox="0 0 300 300"
   y="0px"
   x="0px"
   id="Layer_1"
   version="1.1"><metadata
     id="metadata11"><rdf:RDF><cc:Work
         rdf:about=""><dc:format>image/svg+xml</dc:format><dc:type
           rdf:resource="http://purl.org/dc/dcmitype/StillImage" /><dc:title></dc:title></cc:Work></rdf:RDF></metadata><defs
     id="defs9" /><g
     style="fill:#000000"
     transform="matrix(0.15201827,0,0,0.15201827,3.9675452,19.914682)"
     id="g3"><path
       style="fill:#000000"
       id="path5"
       d="m 1508.16,210.56 c -9.69,-8.31 -22.48,-12.01 -35.14,-10.04 L 619.9,331.77 c -21.34,3.29 -37.08,21.65 -37.08,43.24 l 0,864.44 c -31.27,-20.93 -68.89,-33.2 -109.38,-33.2 -108.73,0 -196.87,88.14 -196.87,196.87 0,108.73 88.14,196.88 196.87,196.88 108.73,0 196.87,-88.14 196.87,-196.87 l 0,-817.24 765.62,-117.79 0,640.1 c -31.27,-20.94 -68.89,-33.2 -109.38,-33.2 -108.73,0 -196.87,88.14 -196.87,196.87 0,108.73 88.14,196.88 196.87,196.88 108.73,0 196.87,-88.14 196.87,-196.88 l 0,-1028.12 c 0.01,-12.75 -5.56,-24.88 -15.26,-33.19 z" /></g></svg>