<?xml version="1.0" encoding="utf-8"?>
<!-- Generator: Adobe Illustrator 24.0.3, SVG Export Plug-In . SVG Version: 6.00 Build 0)  -->
<svg version="1.1" id="Layer_1" xmlns="http://www.w3.org/2000/svg" xmlns:xlink="http://www.w3.org/1999/xlink" x="0px" y="0px"
	 width="183.9px" height="181.5px" viewBox="0 0 183.9 181.5" style="enable-background:new 0 0 183.9 181.5;" xml:space="preserve"
	>
<style type="text/css">
	.st0{fill:#A18E8A;}
	.st1{fill:#5B3E3B;}
	.st2{fill:#C9BAB8;}
	.st3{opacity:0.8;}
	.st4{fill:#EB969D;}
	.st5{fill:#F9F4EA;}
	.st6{fill:#C6AA91;}
	.st7{fill:#77787B;}
	.st8{fill:#FFFFFF;}
	.st9{fill:#E2DED7;}
	.st10{fill:#3F3736;}
	.st11{fill:#8E1717;}
	.st12{fill:#6B0000;}
	.st13{fill:#BA5860;}
	.st14{fill:#89706E;}
	.st15{opacity:0.5;}
	.st16{fill:#A5535D;}
	.st17{opacity:0.6;fill:#EB969D;enable-background:new    ;}
</style>
<g id="Layer_2_1_">
</g>
<path class="st0" d="M95.8,89.3c0,0,17.2-10.5,40.4-12.3c0,0,8.5-4.8,18.7-8.1c0,0,4-4.7,9.4-3.7s4.8,7.5,4.8,7.5s3,1.8,0.7,6.8
	c0,0,2.8,4.5-3.2,6.9c-5.9,2.4-11.8-0.6-12.4-4.2c0,0-13.6,15.7-36.1,15.2c0,0,2.4,0.8,3.4,3s-3.8-0.8-3.8-0.8s4.1,2.5,4.4,7
	c0.1,1.5-0.8-0.7-2.7-1.9c0,0,2.9,4.7,1.1,9.3l0.3,3.7c0,0,8.3-4.9,15.9,0c7.6,4.9-2.1,27.4-18.6,38.5c0,0,2.4-1.2,4.8,0
	c0,0,0.9-2.4,4.4-0.9c0,0,0.4-2.3,3.6-0.9c3.2,1.4,4.8,9.3-3.6,9.6c0,0-0.7,0.7-3,0.4c0,0-2.8,1.1-5.3,0.4c0,0-7.3,0.7-10.6,0.2
	c-3.3-0.5-5.6,1.3-7.4-1.4c0,0-1.3,4.7-4.6,4.4c0,0-1.9,2.5-6.1,1.5c0,0-0.6,1.7-5,1.8c-4.4,0-8.9,0.6-7.8-5c0,0-1.1,2.7-3.6,3.9
	s-3.3-0.4-3.3-0.4s-1.7,2.6-5.5,1.8c0,0-1.5,2.2-4.8,2.1s-4.4-1.8-4.4-1.8s-1.7,0.2-6.2-0.3c-4.5-0.6-6.3-0.2-6.3-3.6
	c0-3.4,1.5-4.3,1.5-4.3s-8.8-6.7-5-27.3S68.2,81.3,95.8,89.3z"/>
<g>
	<path class="st1" d="M75,104L75,104c0.2,0.2,0.3,0.3,0.4,0.4c0.3,0.3,0.7,0.8,1.2,1.4c0.2,0.3,0.5,0.7,0.8,1.1
		c0.2,0.4,0.5,0.9,0.8,1.3c0.3,0.5,0.6,1,0.9,1.5c0.2,0.6,0.5,1.2,0.8,1.8c0.3,0.6,0.5,1.3,0.8,2c0.2,0.7,0.5,1.4,0.7,2.2
		c0.5,1.5,1,3,1.3,4.7s0.8,3.4,1.1,5.1c0.2,1.8,0.5,3.6,0.8,5.4c0.2,1.8,0.4,3.6,0.7,5.3c0.2,1.8,0.4,3.5,0.6,5.2
		c0.3,1.7,0.6,3.3,0.8,4.8c0.1,0.8,0.3,1.5,0.5,2.2s0.4,1.4,0.5,2c0.1,0.3,0.2,0.6,0.2,1c0.1,0.3,0.2,0.6,0.3,0.9
		c0.2,0.6,0.4,1.1,0.6,1.6s0.4,1,0.6,1.4s0.4,0.8,0.6,1.2c0.5,0.6,0.8,1.2,1.1,1.4c0.3,0.3,0.5,0.4,0.5,0.4s-0.2-0.1-0.5-0.4
		c-0.1-0.1-0.2-0.1-0.3-0.2c-0.1-0.1-0.2-0.2-0.3-0.3c-0.2-0.2-0.4-0.5-0.7-0.8c-0.2-0.3-0.4-0.7-0.7-1.1c-0.2-0.4-0.5-0.9-0.7-1.4
		s-0.4-1.1-0.7-1.6c-0.1-0.3-0.2-0.6-0.4-0.9c-0.1-0.3-0.2-0.6-0.3-1c-0.2-0.7-0.4-1.3-0.6-2s-0.4-1.4-0.6-2.2
		c-0.3-1.5-0.7-3.1-1-4.8s-0.5-3.4-0.7-5.2s-0.5-3.6-0.7-5.3c-0.2-1.8-0.5-3.6-0.7-5.3c-0.3-1.7-0.7-3.4-1-5.1s-0.8-3.2-1.2-4.7
		c-0.2-0.7-0.4-1.5-0.6-2.2c-0.3-0.7-0.5-1.3-0.7-2c-0.2-0.6-0.5-1.2-0.7-1.8c-0.2-0.6-0.5-1.1-0.7-1.6s-0.5-1-0.7-1.4
		c-0.3-0.4-0.5-0.8-0.7-1.1c-0.4-0.7-0.8-1.2-1.1-1.5C75.2,104.2,75.1,104.1,75,104L75,104z"/>
</g>
<g>
	<g>
		<path class="st1" d="M75.9,98.2c0,0-0.2-0.3-0.7-0.7c-0.5-0.4-1.2-1.1-2.4-1.5c-1.1-0.5-2.6-0.7-4.2-0.2c-1.5,0.6-3.1,1.8-4.1,3.6
			c-1,1.8-1.5,4-1.9,6.4c-0.3,2.4-0.4,4.9-0.3,7.5c0.2,5.2,1,10.8,2.2,16.2c0.6,2.7,1.3,5.4,2.1,8.1c0.8,2.6,1.8,5.1,2.9,7.5
			c1.1,2.3,2.4,4.6,3.6,6.6c1.2,2.1,2.3,4.1,3.2,6c0.9,1.9,1.4,3.9,1.5,5.6c0.2,1.7-0.1,3.2-0.3,4.4c-0.1,1.2,0.5,2.1,1,2.5
			c0.5,0.5,0.8,0.6,0.8,0.6s-0.3-0.1-0.8-0.6c-0.5-0.4-1.2-1.3-1.1-2.6c0.1-1.2,0.3-2.7,0.1-4.4c-0.2-1.7-0.7-3.5-1.6-5.4
			c-1.8-3.8-4.7-7.8-7-12.5c-1.2-2.4-2.2-4.9-3.1-7.6c-0.8-2.7-1.5-5.4-2.2-8.1c-1.2-5.5-2-11.1-2.1-16.4c-0.1-2.6,0.1-5.2,0.5-7.6
			s1-4.7,2.1-6.5c1.1-1.9,2.8-3.1,4.4-3.7c1.7-0.6,3.3-0.2,4.4,0.3s1.9,1.2,2.3,1.7C75.7,97.9,75.9,98.2,75.9,98.2z"/>
	</g>
</g>
<g>
	<path class="st1" d="M121.2,110.2c0,0,0.2,0.6,0.3,1.5c0,0.5,0,1-0.1,1.6c-0.1,0.3-0.1,0.6-0.2,0.9s-0.2,0.6-0.4,0.9
		c-0.1,0.3-0.3,0.6-0.5,0.8c-0.2,0.3-0.4,0.5-0.6,0.7s-0.4,0.4-0.6,0.6s-0.4,0.3-0.6,0.4c-0.4,0.3-0.8,0.4-1,0.5
		c-0.3,0.1-0.4,0.1-0.4,0.1s0.1-0.1,0.3-0.3c0.1-0.1,0.2-0.2,0.4-0.3c0.1-0.1,0.3-0.3,0.4-0.4c0.2-0.2,0.3-0.3,0.5-0.5
		s0.3-0.4,0.5-0.6c0.3-0.4,0.6-0.9,0.9-1.4s0.5-1,0.6-1.5c0.2-0.5,0.3-1,0.4-1.4C121.1,110.8,121.2,110.2,121.2,110.2z"/>
</g>
<g>
	<path class="st1" d="M120.7,115.6c0,0,0.1,0.7,0.3,2.1c0.1,1.3,0.3,3.2,0.3,5.5s-0.1,4.9-0.6,7.7c-0.2,1.4-0.6,2.8-1,4.3
		c-0.4,1.4-1,2.9-1.7,4.3l-0.5,1c-0.2,0.4-0.4,0.6-0.6,1c-0.4,0.6-0.8,1.3-1.3,1.9c-0.9,1.2-1.8,2.4-2.8,3.4s-2,1.9-3.1,2.7
		c-1,0.8-2.1,1.5-3,2.1c-1,0.6-1.9,1.1-2.8,1.4c-0.8,0.4-1.6,0.7-2.2,0.9c-1.3,0.4-2,0.5-2,0.5s0.7-0.2,1.9-0.7
		c0.6-0.3,1.3-0.6,2.1-1c0.4-0.2,0.8-0.4,1.3-0.7c0.4-0.3,0.9-0.5,1.4-0.9c1.9-1.2,3.9-2.9,5.8-5c0.9-1,1.9-2.1,2.7-3.3
		c0.4-0.6,0.8-1.2,1.2-1.9c0.2-0.3,0.4-0.6,0.6-0.9l0.5-1c0.7-1.3,1.2-2.7,1.7-4.1c0.4-1.4,0.8-2.8,1-4.2c0.5-2.7,0.8-5.4,0.9-7.6
		s0.1-4.1,0.1-5.4C120.8,116.3,120.7,115.6,120.7,115.6z"/>
</g>
<g>
	<path class="st1" d="M104.2,153.9c0,0-0.3,0.3-0.8,0.8s-1.1,1.1-1.7,1.8c-0.1,0.2-0.3,0.3-0.4,0.5s-0.3,0.3-0.3,0.5
		c-0.1,0.2-0.2,0.3-0.3,0.5c-0.1,0.2-0.2,0.3-0.2,0.5c-0.1,0.2-0.1,0.3-0.2,0.4c0,0.1-0.1,0.3-0.1,0.4c-0.1,0.2-0.1,0.3-0.1,0.3
		s0-0.1-0.1-0.3s-0.1-0.5-0.1-0.9c0-0.2,0-0.4,0.1-0.6c0-0.2,0.1-0.4,0.2-0.7c0.2-0.4,0.4-0.9,0.8-1.3c0.3-0.4,0.7-0.7,1.1-1
		s0.7-0.5,1.1-0.6C103.7,154,104.2,153.9,104.2,153.9z"/>
</g>
<g>
	<path class="st1" d="M85.4,142.5c0,0,0.2,0.7,0.4,1.8c0.1,0.5,0.2,1.2,0.3,1.8c0.1,0.7,0.2,1.4,0.3,2.1c0.1,0.7,0.2,1.4,0.3,2.1
		c0.1,0.7,0.2,1.3,0.3,1.8c0,0.3,0.1,0.5,0.1,0.7s0.1,0.4,0.1,0.6c0,0.3,0.1,0.5,0.1,0.5s-0.1-0.2-0.3-0.4c-0.1-0.1-0.2-0.3-0.3-0.5
		c-0.1-0.2-0.2-0.4-0.3-0.7c-0.1-0.3-0.2-0.5-0.3-0.8c-0.1-0.3-0.2-0.6-0.3-1c-0.2-0.7-0.3-1.4-0.4-2.1c-0.1-0.7-0.2-1.5-0.2-2.1
		c0-0.7-0.1-1.3,0-1.9C85.3,143.2,85.4,142.5,85.4,142.5z"/>
</g>
<g>
	<path class="st1" d="M80.4,106.2c0,0,0.1,0.1,0.2,0.4c0.2,0.2,0.3,0.6,0.5,1.1c0.1,0.2,0.2,0.5,0.3,0.8c0.1,0.3,0.2,0.6,0.2,0.9
		c0.1,0.3,0.1,0.6,0.2,0.9s0.1,0.6,0.1,1c0,0.3,0,0.7,0,1s-0.1,0.6-0.1,0.9s-0.1,0.6-0.1,0.9s-0.1,0.5-0.2,0.8
		c-0.3,1-0.5,1.6-0.5,1.6s-0.1-0.7-0.1-1.6c0-0.2,0-0.5,0-0.8s0-0.6,0-0.9s0-0.6,0-0.9s0-0.6-0.1-0.9c0-0.3,0-0.6-0.1-0.9
		c0-0.3-0.1-0.6-0.1-0.9s-0.1-0.6-0.1-0.8c0-0.3-0.1-0.5-0.1-0.8C80.5,106.9,80.4,106.2,80.4,106.2z"/>
</g>
<g>
	<path class="st1" d="M43.7,151c0,0-0.2-0.7-0.5-1.9c-0.1-0.6-0.3-1.3-0.4-2.2c-0.1-0.9-0.2-1.8-0.2-2.9c0-1.1,0-2.2,0.1-3.4
		s0.2-2.5,0.5-3.8c0.1-0.7,0.3-1.3,0.4-2c0.1-0.7,0.3-1.3,0.6-2c0.2-0.7,0.4-1.3,0.7-2c0.2-0.7,0.5-1.4,0.8-2c0.5-1.3,1.2-2.6,2-3.8
		c0.7-1.2,1.5-2.3,2.4-3.3s1.8-1.9,2.8-2.7c0.9-0.8,2-1.4,2.9-1.9c0.5-0.2,1-0.4,1.4-0.6c0.5-0.1,0.9-0.3,1.4-0.3
		c0.4-0.1,0.8-0.1,1.2-0.1c0.2,0,0.4,0,0.5,0c0.2,0,0.3,0.1,0.5,0.1c0.3,0.1,0.6,0.2,0.8,0.3c0.1,0.1,0.2,0.1,0.3,0.2
		s0.1,0.1,0.2,0.2c0.2,0.2,0.4,0.3,0.4,0.3s-0.1-0.1-0.4-0.3c-0.1,0-0.1-0.1-0.2-0.2c-0.1,0-0.2-0.1-0.3-0.1
		c-0.2-0.1-0.5-0.2-0.8-0.2c-0.1,0-0.3-0.1-0.5-0.1s-0.3,0-0.5,0c-0.4,0-0.7,0.1-1.2,0.1c-0.4,0.1-0.8,0.3-1.3,0.4
		c-0.4,0.2-0.9,0.4-1.3,0.6c-0.9,0.5-1.8,1.1-2.7,1.9c-0.5,0.4-0.9,0.8-1.3,1.3c-0.4,0.4-0.8,0.9-1.3,1.4c-0.8,1-1.6,2.1-2.3,3.3
		c-0.7,1.2-1.3,2.4-1.9,3.7c-0.3,0.6-0.5,1.3-0.8,1.9c-0.3,0.6-0.5,1.3-0.7,1.9c-0.4,1.3-0.8,2.6-1,3.9c-0.3,1.3-0.5,2.5-0.6,3.7
		s-0.2,2.3-0.2,3.4c0,1,0,2,0,2.9s0.1,1.6,0.2,2.2C43.5,150.3,43.7,151,43.7,151z"/>
</g>
<g>
	<path class="st1" d="M42.9,142.8c0,0-0.1,0.5-0.4,1.2c-0.2,0.7-0.5,1.6-0.7,2.4c0,0.2-0.1,0.4-0.1,0.7s-0.1,0.4-0.1,0.6
		c0,0.2-0.1,0.4-0.1,0.6c0,0.2-0.1,0.4-0.1,0.6c0,0.3,0,0.6,0,0.9c0,0.2,0,0.3,0,0.3s-0.3-0.4-0.5-1.1c-0.1-0.2-0.1-0.4-0.1-0.6
		c0-0.2-0.1-0.4-0.1-0.7c0-0.5,0.1-1,0.2-1.5c0.1-0.5,0.3-1,0.5-1.4s0.4-0.8,0.7-1.1C42.4,143.1,42.9,142.8,42.9,142.8z"/>
</g>
<g>
	<path class="st1" d="M129.9,123.3c0,0-0.9,0.5-2.1,1.5c-0.6,0.5-1.3,1-2,1.7c-0.4,0.3-0.7,0.7-1,1c-0.4,0.3-0.7,0.7-1,1.1
		c-0.3,0.4-0.6,0.8-1,1.1c-0.3,0.4-0.6,0.8-0.9,1.2s-0.5,0.8-0.8,1.1c-0.3,0.4-0.5,0.7-0.7,1s-0.4,0.6-0.6,0.9
		c-0.2,0.3-0.3,0.5-0.4,0.7c-0.2,0.4-0.4,0.6-0.4,0.6s0.1-0.2,0.2-0.7c0.1-0.4,0.3-1.1,0.6-1.8c0.2-0.4,0.3-0.8,0.5-1.1
		c0.2-0.4,0.4-0.8,0.7-1.2c0.3-0.4,0.5-0.8,0.8-1.2s0.6-0.8,1-1.2c0.4-0.4,0.7-0.8,1.1-1.1c0.4-0.4,0.8-0.7,1.1-1
		c0.8-0.6,1.5-1.1,2.2-1.5s1.3-0.6,1.7-0.8C129.6,123.4,129.9,123.3,129.9,123.3z"/>
</g>
<g>
	<path class="st1" d="M43.7,162.1c0,0,0.6,0.6,1.5,1.3c0.4,0.4,1,0.7,1.6,1.1c0.6,0.4,1.2,0.8,1.9,1c0.3,0.2,0.7,0.3,1,0.4
		c0.3,0.1,0.7,0.2,1,0.3s0.7,0.2,1,0.2c0.3,0.1,0.6,0.1,0.9,0.2c0.3,0,0.5,0.1,0.8,0.1c0.2,0,0.4,0,0.6,0.1c0.3,0,0.5,0.1,0.5,0.1
		S54.3,167,54,167c-0.2,0-0.4,0.1-0.6,0.1c-0.2,0.1-0.5,0-0.8,0.1c-0.3,0-0.6,0-1,0c-0.3,0-0.7,0-1.1-0.1c-0.4-0.1-0.8-0.1-1.1-0.3
		c-0.4-0.1-0.8-0.2-1.1-0.4c-0.4-0.2-0.7-0.4-1.1-0.6c-0.4-0.2-0.7-0.4-1-0.7c-0.6-0.5-1.1-1-1.5-1.4
		C44,162.9,43.7,162.1,43.7,162.1z"/>
</g>
<g>
	<path class="st1" d="M57,172.7c0,0-0.1-0.1-0.4-0.2c-0.2-0.2-0.6-0.5-0.9-0.9c-0.1-0.1-0.2-0.2-0.3-0.3s-0.1-0.3-0.2-0.4
		c-0.1-0.3-0.3-0.6-0.4-1c-0.1-0.4-0.3-0.7-0.3-1.2c-0.1-0.4-0.1-0.9-0.2-1.3c0-0.5,0-1,0-1.5c0-0.3,0-0.5,0-0.8s0.1-0.5,0.1-0.8
		c0.2-1.1,0.4-2.2,1-3.3c0.5-1.1,1.1-2.1,2-3s2.1-1.7,3.5-1.8s2.7,0.7,3.6,1.7c0.2,0.2,0.4,0.4,0.6,0.7s0.4,0.5,0.5,0.8
		c0.3,0.5,0.5,1.1,0.7,1.7c0.8,2.2,0.8,4.5,0.6,6.3c-0.1,0.5-0.2,0.9-0.3,1.3c-0.1,0.4-0.2,0.8-0.4,1.1c-0.3,0.7-0.6,1.3-1,1.7
		c-0.2,0.2-0.3,0.4-0.5,0.6c-0.1,0.1-0.3,0.3-0.4,0.3c-0.2,0.2-0.3,0.3-0.3,0.3s0.1-0.1,0.3-0.3c0.1-0.1,0.2-0.2,0.3-0.4
		c0.1-0.2,0.2-0.4,0.4-0.6c0.3-0.4,0.6-1,0.8-1.7c0.2-0.7,0.4-1.5,0.5-2.4s0.1-1.9-0.1-2.9c-0.1-1-0.4-2.1-0.8-3.1
		c-0.2-0.5-0.4-1-0.7-1.5c-0.1-0.3-0.3-0.5-0.5-0.7c-0.1-0.2-0.3-0.4-0.5-0.7c-0.7-0.8-1.7-1.4-2.8-1.3c-1.1,0.1-2.1,0.7-2.8,1.5
		c-0.8,0.8-1.4,1.7-1.9,2.7s-0.8,2-1,3c0,0.3-0.1,0.5-0.1,0.8c0,0.2,0,0.5-0.1,0.7c0,0.5-0.1,0.9-0.1,1.4c0,0.4,0.1,0.9,0.1,1.3
		c0,0.4,0.2,0.8,0.2,1.1c0.1,0.4,0.2,0.7,0.3,1c0.1,0.1,0.1,0.3,0.2,0.4c0.1,0.1,0.1,0.2,0.2,0.4c0.3,0.5,0.5,0.8,0.7,1
		C56.8,172.7,57,172.7,57,172.7z"/>
</g>
<g>
	<path class="st1" d="M63,157.5c0,0,0.2-0.3,0.8-0.8c0.5-0.4,1.4-1,2.6-1.4c0.6-0.1,1.3-0.3,2-0.2c0.7,0,1.5,0.2,2.2,0.5
		c0.2,0.1,0.3,0.1,0.6,0.3l0.5,0.3c0.2,0.1,0.3,0.2,0.5,0.4l0.5,0.5c0.5,0.7,0.8,1.5,1,2.3c0.1,0.4,0.2,0.8,0.2,1.2
		c0.1,0.4,0.1,0.8,0.1,1.2s0,0.8,0,1.2s-0.1,0.8-0.1,1.2c-0.1,0.8-0.3,1.5-0.6,2.1c-0.2,0.7-0.5,1.3-0.8,1.8s-0.6,1-1,1.4
		c-0.3,0.4-0.7,0.6-0.9,0.9c-0.3,0.2-0.5,0.3-0.7,0.4c-0.2,0.1-0.2,0.1-0.2,0.1s0.1-0.1,0.2-0.2c0.1-0.1,0.4-0.3,0.6-0.5
		c0.2-0.3,0.5-0.5,0.8-1c0.3-0.4,0.5-0.9,0.8-1.4c0.2-0.5,0.4-1.1,0.6-1.8c0.2-0.6,0.3-1.3,0.4-2c0.1-0.4,0.1-0.7,0.1-1.1
		c0-0.4,0-0.7,0-1.1c0-0.4,0-0.7-0.1-1.1c0-0.4-0.1-0.7-0.2-1.1c-0.2-0.7-0.5-1.4-0.9-2l-0.3-0.4c-0.1-0.1-0.2-0.3-0.4-0.4l-0.5-0.3
		c-0.1-0.1-0.3-0.1-0.4-0.2c-0.6-0.3-1.3-0.5-1.9-0.6s-1.2,0-1.8,0c-0.6,0.1-1.1,0.3-1.5,0.4c-0.4,0.2-0.8,0.4-1.1,0.5
		C63.3,157.2,63,157.5,63,157.5z"/>
</g>
<g>
	<path class="st1" d="M72.4,157.8c0,0,0.2-0.4,0.8-0.6c0.1-0.1,0.3-0.1,0.5-0.2c0.2,0,0.4-0.1,0.6-0.1s0.4,0,0.7,0.1
		c0.2,0.1,0.4,0.2,0.6,0.3s0.4,0.3,0.5,0.4c0.2,0.2,0.3,0.3,0.4,0.5c0.2,0.3,0.4,0.7,0.4,1c0.1,0.3,0.1,0.6,0.1,0.7
		c0,0.2,0,0.3,0,0.3s-0.1-0.1-0.2-0.2c-0.1-0.1-0.3-0.3-0.4-0.5c-0.1-0.1-0.2-0.2-0.3-0.3c-0.1-0.1-0.2-0.2-0.3-0.3
		c-0.1-0.1-0.2-0.2-0.4-0.3c-0.1-0.1-0.3-0.2-0.4-0.3s-0.3-0.2-0.4-0.2c-0.1-0.1-0.3-0.1-0.4-0.1c-0.3-0.1-0.6-0.1-0.9-0.1
		C72.8,157.7,72.4,157.8,72.4,157.8z"/>
</g>
<g>
	<path class="st1" d="M72,150.3c0,0,0.3,0.3,0.4,0.9c0.1,0.3,0.1,0.7,0.1,1c0,0.4,0,0.8-0.1,1.2c-0.1,0.2-0.1,0.4-0.2,0.6
		c-0.1,0.2-0.2,0.4-0.2,0.5c-0.2,0.3-0.3,0.7-0.5,0.9c-0.4,0.5-0.7,0.7-0.7,0.7s0-0.4,0.2-1c0.1-0.3,0.2-0.6,0.2-0.9
		c0.1-0.3,0.2-0.7,0.3-1c0-0.2,0.1-0.3,0.1-0.5s0.1-0.3,0.1-0.5c0.1-0.3,0.1-0.7,0.2-0.9C72,150.8,72,150.3,72,150.3z"/>
</g>
<g>
	<path class="st1" d="M81.9,164c0,0,0-0.4,0.2-1s0.5-1.5,1.1-2.4c0.3-0.5,0.7-1,1.2-1.4s1.1-0.8,1.9-1c0.2-0.1,0.4-0.1,0.6-0.1h0.3
		h0.1h0.1h0.1c0.1,0,0.4,0.1,0.6,0.1c0.2,0.1,0.4,0.1,0.6,0.3c0.7,0.4,1.2,1,1.6,1.7c0.8,1.3,1.2,2.8,1.4,4.1
		c0.2,1.4,0.1,2.7-0.2,3.8c-0.3,1.1-0.9,1.9-1.4,2.2c-0.3,0.2-0.5,0.3-0.7,0.3s-0.2,0.1-0.2,0.1s0.1,0,0.2-0.1s0.3-0.2,0.6-0.4
		c0.4-0.4,0.8-1.2,1-2.2s0.1-2.2-0.1-3.5s-0.7-2.6-1.4-3.7c-0.3-0.6-0.8-1.1-1.3-1.4c-0.1-0.1-0.3-0.1-0.4-0.2
		c-0.1,0-0.2-0.1-0.4-0.1c-0.3,0-0.6,0-0.9,0.1c-0.6,0.1-1.1,0.4-1.6,0.7s-0.8,0.7-1.2,1.1c-0.6,0.8-1.1,1.6-1.3,2.2
		C82.1,163.7,81.9,164,81.9,164z"/>
</g>
<g>
	<path class="st1" d="M89.2,159.6c0,0,0.1-0.3,0.5-0.7c0.2-0.2,0.4-0.4,0.8-0.6c0.2-0.1,0.3-0.2,0.5-0.3s0.4-0.2,0.6-0.2
		c0.2-0.1,0.5-0.1,0.7-0.2c0.3,0,0.5,0,0.8-0.1c0.2,0,0.2,0,0.4,0c0.1,0,0.3,0,0.4,0.1c0.4,0.1,0.6,0.2,0.9,0.4
		c1.1,0.7,1.9,1.8,2.5,2.9c0.6,1.2,0.9,2.4,0.9,3.6c0,1.2-0.3,2.4-0.9,3.2c-0.3,0.4-0.6,0.7-0.9,0.9s-0.6,0.4-0.9,0.5
		c-0.2,0.1-0.5,0.2-0.6,0.2s-0.2,0.1-0.2,0.1s0.1,0,0.2-0.1s0.3-0.2,0.5-0.3s0.5-0.3,0.7-0.6c0.3-0.2,0.5-0.6,0.7-1
		c0.4-0.8,0.6-1.8,0.5-2.8c-0.1-1.1-0.4-2.2-0.9-3.2c-0.2-0.5-0.5-1-0.9-1.5c-0.3-0.4-0.7-0.9-1.1-1.1c-0.2-0.1-0.4-0.3-0.6-0.3
		c-0.1,0-0.2-0.1-0.4-0.1h-0.3c-0.3,0-0.5,0-0.7,0s-0.5,0.1-0.7,0.1s-0.4,0.1-0.6,0.1c-0.2,0.1-0.4,0.1-0.5,0.2
		c-0.3,0.1-0.6,0.3-0.8,0.4C89.3,159.4,89.2,159.6,89.2,159.6z"/>
</g>
<g>
	<path class="st1" d="M93.5,157.9c0,0,0.1-0.2,0.5-0.5c0.3-0.3,0.9-0.6,1.6-0.7c0.4-0.1,0.8,0,1.2,0c0.4,0.1,0.9,0.2,1.3,0.5
		c0.4,0.2,0.8,0.5,1.2,0.8l0.5,0.5l0.5,0.6c0.3,0.4,0.5,0.9,0.7,1.3c0.2,0.5,0.3,0.9,0.4,1.4s0.1,0.9,0,1.4c0,0.4-0.1,0.8-0.3,1.2
		c-0.1,0.4-0.3,0.7-0.4,0.9c-0.2,0.3-0.3,0.5-0.5,0.6c-0.3,0.3-0.5,0.4-0.5,0.4s0.2-0.2,0.3-0.5c0.1-0.2,0.2-0.4,0.3-0.7
		c0.1-0.3,0.2-0.6,0.2-0.9c0-0.3,0.1-0.7,0.1-1.1c0-0.4-0.1-0.8-0.1-1.2c-0.1-0.4-0.2-0.8-0.4-1.2c-0.2-0.4-0.4-0.8-0.6-1.1
		l-0.4-0.5l-0.5-0.5c-0.3-0.3-0.6-0.6-1-0.8c-0.3-0.2-0.7-0.4-1-0.5s-0.7-0.2-1-0.2c-0.7,0-1.2,0.1-1.6,0.3
		C93.7,157.7,93.5,157.9,93.5,157.9z"/>
</g>
<g>
	<path class="st1" d="M111.6,95.3c0,0,0.7-0.1,1.8,0.1c0.5,0.1,1.1,0.2,1.8,0.3c0.6,0.2,1.3,0.4,2,0.6c0.3,0.1,0.6,0.3,1,0.4
		c0.3,0.2,0.6,0.4,0.9,0.5c0.6,0.4,1,0.8,1.4,1.2c0.2,0.2,0.3,0.4,0.5,0.6c0.1,0.2,0.2,0.3,0.3,0.5c0.1,0.3,0.2,0.4,0.2,0.4
		s-0.1-0.1-0.4-0.3c-0.2-0.2-0.6-0.4-1-0.7c-0.2-0.1-0.5-0.3-0.7-0.4c-0.3-0.1-0.5-0.3-0.8-0.4c-0.6-0.3-1.2-0.6-1.8-0.8
		c-0.6-0.3-1.2-0.5-1.8-0.7c-0.6-0.2-1.2-0.4-1.6-0.6C112.3,95.6,111.6,95.3,111.6,95.3z"/>
</g>
<path class="st2" d="M115.8,128.1c-0.1-0.2-0.1-0.5-0.1-0.7c-0.2,0.4-0.9,3.1-1.6,2.7c-0.4-0.2-0.3-1.1-0.3-1.1s-1.1,2.9-2.1,3.7
	c-0.5,0.4-0.6-0.5-0.6-0.5c-0.6,2-2.8,4.4-3,4c-0.3-0.4,0-1.2,0-1.2c-0.7,2.4-3.1,3.8-2.7,2.9c0.3-0.9,0.4-1.3,0.4-1.3
	c-1,0.9-1.6,0.1-1.6,0.1s0.6,1.3-0.7,1.1c-2.9-0.4-4.2-3.5-4.2-3.5s0.9,2.1-1,1.1c-2.4-1.3-4.3-4.2-4.3-4.2s0.4,1.9-1.1,0.9
	c-2.2-1.4-3.1-4-3.1-4s1.1,2.8-0.9,1.6s-2.6-5.9-2.6-5.9s0,6-1.8-1.6c-1.8-7.7,3-14.9,0.4-12.8s-1.7-0.7,1.3-5.4c0,0,0.2-0.1-1,0
	s2.4-4.4,5.9-4.6c2.8-0.1,3.6-0.5,2.2-0.7s0.6-1.9,6.7-1c0,0,2.5-2.2,6.9-2.2c4.4,0.1,1.2,0.9,1.2,0.9s2.7,0.2,4.8,0.8
	c0.3,0.4,1,0.6,1.4,0.9c0.5,0.3,0.9,0.7,1.3,1.2c0.8,0.9,1.7,2,2.3,3.1c-0.4-0.2-1.6-1-2.1-0.6c-0.4,0.4,0.5,1.1,0.8,1.3
	c1,1,1.8,2.6,2.3,4.1c0.3,0.8,0.4,1.8,0.5,2.7c-0.5-0.7-1.1-1.5-1.8-1.9c-1.1-0.6-0.2,1.1-0.2,1.5c0.7,3.6-0.3,7.9-1.4,9.3
	c-1,1.4,0.2,0.7,1,0.2s0.2,2.8-0.6,3.8C116.4,122.6,117.2,126,115.8,128.1z"/>
<g class="st3">
	<path class="st0" d="M81.9,164c0,0-1.9,0.3-2.6-3.5c-0.6-3.8-3.1-6.9-8.7-17.1c-5.6-10.2-8.6-24.1-8.5-36.3c0,0-1.7,26.8,10,43
		c0,0,0.2,4.2-1.2,5.8c0,0,1.2,0.9,1.7,1.6c4.3-1.6,5.7,6.2,4.9,9l0,0c-1,5.5,3.5,4.9,7.8,4.9c0.7,0,1.4-0.1,1.9-0.2
		C87.3,171.2,80.5,171.6,81.9,164z"/>
</g>
<path class="st0" d="M67.3,24.3c0,0-8-11-15.3-10.6c-4.5,0.3-7.9,19.4-7.7,27.8c0,0-2.4,2.2-3.4,7.7s-7.2,11.9-11.1,6.4
	c0,0-0.9,7.8,6.4,7.5c0,0-4.6,8.3,1.4,14.9c0,0,0.3-1.9,1.2-4.7c0,0-0.2,8.4,5,11.9c0,0-0.2-1.9-0.2-4.5c0,0,0,4.2,4,5.6
	c0,0-1.1-1.9-1-5.4c0,0,4.4,9.5,20,12.3c14.9,2.7,27-2,27-2s3.8,2,8.9-0.1c5.2-2.2,7.3-9.2,7.3-9.2s14.4-8.9,17-19
	c2.3-9.3,0.6-12.3,0.6-12.3s2.9,2,3.4,6.3c0,0,3.2-5.6-2-9.8c0,0,2.9-1.9,5.5-0.7c0,0-1-3.5-5.5-3.3c0,0,2.6-1.2,1.2-6.2
	c0,0-1.6,5.8-5.3,4.6c-2.4-0.7-6-5.6-6-5.6c6.4-14.4,2.6-26,0.5-27.9c-2-2-16.3,2-23.6,11.5c0,0-3.5-1.3-6.1,0.4
	c0,0,0.2-3.2,3.5-4.8c0,0-7.3-2.7-13.6,4.5c0,0,2.2-5.3-1.9-8.9C77.5,10.9,77.6,21.7,67.3,24.3z"/>
<path class="st4" d="M54.2,19.3c0,0-5.4,6.9-2.9,19.3c0,0,9,0.6,13.1-6.8C64.3,31.8,62.5,25.6,54.2,19.3z"/>
<path class="st4" d="M105.3,24c0,0,5.4,3.4,9.1,6.9c0,0,3.9-8.9,0.4-17C114.8,13.8,109.5,14.8,105.3,24z"/>
<g>
	<path class="st5" d="M75.2,68.8c5.6,0,9.4-4.9,8.6-12.7c-0.7-6.5-4.5-13.6-8.6-13.6s-7.9,7.1-8.6,13.6
		C65.8,63.9,69.6,68.8,75.2,68.8z"/>
	<g>
		<path class="st6" d="M75.3,69c2,0,3.9-0.6,5.5-1.9s2.7-3.3,3.2-5.3c0.7-2.7,0.5-5.5-0.1-8.2c-0.6-2.8-1.6-5.5-3.3-7.8
			c-1.2-1.7-2.8-3.3-4.9-3.5s-3.8,0.9-5.1,2.4c-1.8,2-2.9,4.6-3.7,7.2c-0.8,2.7-1.2,5.6-0.8,8.5c0.3,2.4,1.3,4.7,3,6.3
			C70.8,68.3,73,69,75.3,69c0.1,0,0.4,0,0.4-0.2s-0.5-0.2-0.6-0.2c-4.1,0-6.9-3.3-7.8-7.1c-0.5-2.4-0.4-5,0.1-7.4
			c0.5-2.6,1.4-5.1,2.8-7.4c1-1.6,2.5-3.5,4.5-4c1.9-0.4,3.7,1.4,4.7,2.8c1.5,2,2.5,4.4,3.2,6.8c0.7,2.5,1,5.1,0.7,7.7
			c-0.3,2.3-1.1,4.5-2.7,6.2c-1.5,1.5-3.4,2.3-5.6,2.4c-0.1,0-0.4,0-0.4,0.2C74.7,69,75.2,69,75.3,69z"/>
	</g>
</g>
<g>
	<path d="M77.5,66.5c3.1,0,5.6-3.4,5.6-7.5s-2.5-7.5-5.6-7.5S72,54.9,72,59.1C72,63.2,74.5,66.5,77.5,66.5z"/>
	<path class="st7" d="M77.9,66.2c2.7,0,4.9-2.9,4.9-6.6c0-3.6-2.2-6.6-4.9-6.6c-2.7,0-4.9,2.9-4.9,6.6C73,63.3,75.2,66.2,77.9,66.2z
		"/>
	<path d="M79.8,63.6c1.6,0,2.9-1.7,2.9-3.9c0-2.1-1.3-3.9-2.9-3.9s-2.9,1.7-2.9,3.9C76.9,61.9,78.2,63.6,79.8,63.6z"/>
	<path class="st8" d="M76.2,57.6c0.8,0.5,1.9,0.2,2.6-0.8c0.6-1,0.6-2.2-0.2-2.7c-0.8-0.5-1.9-0.2-2.6,0.8
		C75.3,55.9,75.4,57.1,76.2,57.6z"/>
	<path class="st8" d="M77,60.9c0.5,0,1-0.5,1-1.2s-0.4-1.2-1-1.2c-0.5,0-1,0.5-1,1.2S76.4,60.9,77,60.9z"/>
</g>
<g>
	<path class="st9" d="M83.8,56.2c-0.7-6.5-4.5-13.6-8.6-13.6s-7.9,7.1-8.6,13.6c-0.8,7.8,3,12.7,8.6,12.7
		C80.8,68.8,84.6,63.9,83.8,56.2z M74.1,64.9c-4.5,0-7.6-4-7-10.3c0.5-5.3,3.6-11,7-11c3.3,0,6.4,5.7,7,11
		C81.7,60.9,78.7,64.9,74.1,64.9z"/>
</g>
<g>
	<g>
		<path class="st5" d="M112.2,54.2c4.2-2.4,4.9-7.6,1-13c-3.3-4.6-9.1-8.2-12.1-6.5c-3.1,1.7-2.9,8.6-0.6,13.8
			C103.2,54.5,108.1,56.6,112.2,54.2z"/>
		<g>
			<path class="st6" d="M112.6,54.3c1.7-1,3-2.6,3.4-4.5c0.5-2.2,0-4.5-1-6.5c-1.1-2.2-2.7-4.2-4.6-5.8c-1.6-1.4-3.4-2.6-5.4-3.2
				c-1.5-0.4-3.2-0.6-4.6,0.3c-1.4,0.9-1.9,2.6-2.1,4.2c-0.3,2.2,0,4.4,0.5,6.5c0.6,2.2,1.5,4.4,2.9,6.3c1.3,1.7,3,3,5.1,3.5
				S110.9,55.3,112.6,54.3c0.3-0.2-0.6-0.4-0.8-0.3c-1.4,0.8-3,1.1-4.6,0.7c-1.7-0.5-3.2-1.7-4.2-3c-2.5-3.1-3.8-7.5-3.6-11.5
				c0-1.6,0.3-3.3,1.3-4.6c1-1.2,2.4-1.4,3.8-1c1.8,0.5,3.5,1.6,5,2.9c1.7,1.4,3.2,3.1,4.3,5c1.1,2,1.9,4.3,1.5,6.7
				c-0.3,2.1-1.6,3.8-3.4,4.9C111.5,54.2,112.4,54.5,112.6,54.3z"/>
		</g>
	</g>
	<g>
		<path d="M112.4,52.5c2.5-0.9,3.5-4.3,2.3-7.6s-4.2-5.3-6.7-4.4c-2.5,0.9-3.5,4.3-2.3,7.6C106.9,51.4,109.9,53.4,112.4,52.5z"/>
		<path class="st7" d="M112.6,52.1c2.2-0.8,3.1-3.8,2-6.7s-3.7-4.6-5.8-3.8c-2.2,0.8-3.1,3.8-2,6.7
			C107.8,51.2,110.5,52.9,112.6,52.1z"/>
		<path d="M113.5,50.2c1.3-0.5,1.8-2.2,1.2-3.9c-0.6-1.7-2.2-2.7-3.4-2.3c-1.3,0.5-1.8,2.2-1.2,3.9
			C110.7,49.7,112.2,50.7,113.5,50.2z"/>
		<path class="st8" d="M108.8,46.5c0.8,0.2,1.6-0.4,1.8-1.4c0.2-1-0.2-1.9-1-2.1c-0.8-0.2-1.6,0.4-1.8,1.4
			C107.6,45.3,108,46.3,108.8,46.5z"/>
		<path class="st8" d="M110.4,48.9c0.4-0.2,0.6-0.7,0.4-1.2s-0.7-0.8-1.1-0.7c-0.4,0.2-0.6,0.7-0.4,1.2
			C109.5,48.8,110,49.1,110.4,48.9z"/>
	</g>
	<g>
		<path class="st9" d="M113.3,41.1c-3.3-4.6-9.1-8.2-12.1-6.5c-3.1,1.7-2.9,8.6-0.6,13.8c2.7,6.1,7.6,8.2,11.7,5.8
			C116.4,51.8,117.1,46.6,113.3,41.1z M109.8,51.7c-3.4,1.9-7.3,0.2-9.5-4.7c-1.8-4.2-2-9.7,0.5-11.1s7.2,1.6,9.8,5.3
			C113.7,45.5,113.2,49.7,109.8,51.7z"/>
	</g>
</g>
<path class="st10" d="M70,42.5c0,0,0.8-3.6,4.6-3.8c3.8-0.2,3,3.6,0.9,2.8C73.4,40.6,71.3,41.3,70,42.5z"/>
<path class="st10" d="M102.7,32.1c0,0-3-2.1-5.9,0.4s0.3,4.7,1.3,2.6C99,33.1,101,32.1,102.7,32.1z"/>
<g>
	<g>
		<path class="st11" d="M104.3,73.6c-0.7,2.4-2.2,5-4.3,7.2c1.9,0.2,3.8,1.2,4.9,3.7c1.1-2.7,1.8-6.5,4.3-9.7
			C106.4,74.8,104.3,73.6,104.3,73.6z"/>
		<g>
			<path class="st12" d="M103.8,73.6c-0.8,2.7-2.3,5.1-4.2,7.2c-0.1,0.2,0.1,0.2,0.2,0.3c2.2,0.3,3.8,1.6,4.7,3.6
				c0.1,0.2,0.9,0.1,1-0.1c0.6-1.5,1.1-3.1,1.7-4.7c0.7-1.8,1.5-3.5,2.6-5c0.1-0.2-0.3-0.2-0.4-0.2c-1.6,0-3.2-0.4-4.6-1.2
				c-0.2-0.1-0.5-0.1-0.7,0c-0.1,0-0.4,0.2-0.2,0.3c1.6,0.9,3.4,1.2,5.2,1.3c-0.1-0.1-0.2-0.1-0.4-0.2c-1.1,1.5-2,3.2-2.6,5
				c-0.6,1.5-1,3.1-1.7,4.7c0.3,0,0.6-0.1,1-0.1c-0.9-2.2-2.8-3.5-5.1-3.8c0.1,0.1,0.1,0.2,0.2,0.3c2-2.1,3.6-4.5,4.3-7.3
				C104.9,73.4,103.9,73.4,103.8,73.6z"/>
		</g>
	</g>
	<g>
		<path class="st13" d="M100,80.9c-0.8,0.8-1.6,1.5-2.5,2.2c0.5,2.6,1.7,6.1,4.6,4.9c1.4-0.6,2.2-1.8,2.9-3.4
			C103.9,82,101.9,81.1,100,80.9z"/>
		<g>
			<path class="st12" d="M99.5,80.8c-0.8,0.8-1.6,1.5-2.5,2.2c0,0-0.1,0-0.1,0.1c0.4,2.2,1.3,5.4,4,5.4c1.4,0,2.7-0.9,3.5-2
				c0.2-0.3,0.4-0.6,0.6-0.9c0.1-0.3,0.5-0.8,0.3-1.1c-0.3-0.7-0.7-1.4-1.3-1.9c-1.1-1.1-2.5-1.7-4-1.9
				C99.9,80.6,99.5,80.6,99.5,80.8c0,0.2,0.3,0.3,0.5,0.3c1.2,0.2,2.4,0.7,3.2,1.6c0.2,0.3,0.5,0.5,0.6,0.8c0.2,0.3,0.6,0.8,0.4,1.2
				c-0.2,0.7-0.7,1.4-1.1,1.9c-0.6,0.7-1.9,1.8-2.9,1.2c-1-0.6-1.4-1.8-1.8-2.8c-0.1-0.4-0.2-0.7-0.3-1.1c0-0.2-0.1-0.3-0.1-0.5
				s0-0.2,0.2-0.4c0.8-0.6,1.5-1.3,2.2-2C100.7,80.8,99.7,80.5,99.5,80.8z"/>
		</g>
	</g>
</g>
<g>
	<g>
		<path class="st2" d="M92.5,58.8C75.9,67,75.7,83.5,85.4,85.7c9.6,2.2,17.2-5.8,18.9-12c0,0,8.1,4.5,13.3-3.7
			C122.7,61.6,108.6,50.9,92.5,58.8z"/>
		<g>
			<path class="st14" d="M92.1,58.7c-4.3,2.1-8.2,5.1-10.9,9.2c-1.9,2.9-3.2,6.5-2.8,10c0.3,2.8,1.7,5.5,4.2,7
				c1.6,1,3.6,1.3,5.5,1.3c2.4,0.1,4.9-0.5,7.1-1.5c4.5-2.1,8.3-6.3,9.6-11.1c-0.3,0.1-0.6,0.1-0.9,0.2c1.6,0.9,3.6,1.3,5.5,1.3
				c3.8,0,7.2-2.3,9-5.7c1.4-2.7,0.8-5.7-1.1-8c-2.2-2.8-5.8-4.5-9.3-5.1C102.6,55.2,97,56.3,92.1,58.7c-0.2,0.1-0.1,0.2,0,0.3
				c0.2,0.1,0.5,0,0.7-0.1c4.2-2.1,8.9-3.1,13.6-2.5c3.4,0.5,6.9,1.9,9.3,4.4c1.8,1.9,3,4.6,2.2,7.3c-0.5,1.7-1.7,3.3-3,4.4
				s-2.8,1.9-4.5,2c-1.9,0.2-4-0.2-5.7-1.1c-0.2-0.1-0.8-0.1-0.9,0.2c-1.1,4.1-4.1,7.7-7.6,10c-2,1.3-4.3,2.1-6.6,2.2
				c-2,0.1-4.1-0.1-5.9-1.1c-2.4-1.3-3.8-3.8-4.2-6.4C79,75,80,71.7,81.6,68.9c2.5-4.4,6.7-7.7,11.2-10c0.2-0.1,0.1-0.2,0-0.3
				C92.6,58.6,92.3,58.7,92.1,58.7z"/>
		</g>
	</g>
	<g>
		<path class="st14" d="M104,67.5c0,0,0.4,0.6,0.7,1.6c0.2,0.5,0.3,1.1,0.3,1.8c0,0.7,0,1.4-0.1,2.1c0,0.4-0.2,0.7-0.2,1.1
			c-0.1,0.3-0.2,0.7-0.4,1c-0.1,0.3-0.3,0.6-0.4,0.9s-0.3,0.5-0.5,0.7c-0.3,0.5-0.6,0.8-0.8,1c-0.2,0.2-0.3,0.3-0.3,0.3
			s0.1-0.2,0.2-0.5c0.1-0.1,0.1-0.3,0.2-0.5s0.2-0.4,0.3-0.7c0.1-0.2,0.2-0.5,0.3-0.8c0.1-0.3,0.2-0.6,0.3-0.9
			c0.1-0.3,0.2-0.6,0.3-0.9c0.1-0.3,0.2-0.6,0.2-1c0.1-0.7,0.2-1.3,0.2-2c0-0.6,0-1.2,0-1.7C104.1,68.2,104,67.5,104,67.5z"/>
	</g>
	<g>
		<path class="st14" d="M82.3,75.4c0,0-0.3,0.6-0.6,1.4c-0.2,0.4-0.3,0.9-0.5,1.4c-0.1,0.2-0.1,0.5-0.2,0.8s-0.1,0.5-0.1,0.8
			s-0.1,0.5,0,0.8c0,0.3,0,0.5,0.1,0.8c0,0.3,0.1,0.5,0.2,0.7s0.1,0.4,0.2,0.6s0.2,0.4,0.2,0.5c0.1,0.2,0.2,0.3,0.2,0.4
			C81.9,83.8,82,84,82,84s-0.1-0.1-0.3-0.2c-0.2-0.2-0.5-0.4-0.8-0.8c-0.1-0.1-0.2-0.2-0.2-0.3c-0.1-0.1-0.1-0.2-0.2-0.4
			c-0.1-0.2-0.3-0.5-0.3-0.8c-0.1-0.3-0.2-0.6-0.2-0.9c-0.1-0.3,0-0.6,0-1c0.1-0.6,0.2-1.3,0.5-1.8c0.2-0.5,0.5-1,0.8-1.4
			C81.8,75.8,82.3,75.4,82.3,75.4z"/>
	</g>
	<g>
		<path class="st14" d="M109.6,58.8c0,0,0.6-0.3,1.7-0.4c0.3,0,0.5,0,0.8,0s0.6,0,1,0.1c0.3,0.1,0.7,0.1,1,0.3
			c0.3,0.1,0.7,0.3,1,0.4c0.3,0.2,0.6,0.4,0.9,0.6c0.3,0.2,0.5,0.5,0.7,0.7s0.4,0.5,0.6,0.8c0.2,0.2,0.3,0.5,0.4,0.8
			c0.2,0.5,0.3,0.9,0.4,1.2s0.1,0.5,0.1,0.5s-0.1-0.1-0.3-0.4c-0.1-0.1-0.2-0.3-0.3-0.4c-0.1-0.2-0.3-0.3-0.4-0.5
			c-0.2-0.2-0.3-0.4-0.5-0.6c-0.2-0.2-0.4-0.4-0.6-0.6c-0.2-0.2-0.4-0.4-0.7-0.6c-0.3-0.2-0.5-0.4-0.8-0.5c-0.3-0.2-0.5-0.3-0.8-0.4
			c-0.3-0.1-0.6-0.2-0.9-0.3s-0.6-0.2-0.8-0.2c-0.3-0.1-0.5-0.1-0.8-0.1C110.3,58.8,109.6,58.8,109.6,58.8z"/>
	</g>
	<g class="st15">
		<g>
			<path class="st2" d="M92.5,58.8C75.9,67,75.7,83.5,85.4,85.7c9.6,2.2,17.2-5.8,18.9-12c0,0,8.1,4.5,13.3-3.7
				C122.7,61.6,108.6,50.9,92.5,58.8z M96.8,79.3c-4.9,5.5-13.2,4.2-13.7,0s2.6-7.8-0.1-5.3s-2.4-5.9,5.5-11.2
				c3.7-2.5-0.9,0.8,3.4,5c2.3,2.3,7.1,2.2,8.4,2.3C101.6,70.3,102.2,73.2,96.8,79.3z M110.7,71.7c-4-0.1-5.9-3.1-4.8-4.2
				c3.3-3.2,3-5.6,2.6-7.8c-0.3-1.8,5.6-0.8,7.9,3.5C118.7,67.1,114.7,71.7,110.7,71.7z"/>
		</g>
	</g>
</g>
<g>
	<g>
		<path class="st4" d="M98.7,57.5c-14.8,4-3.5,13,3,11.2C108.1,67,112,54,98.7,57.5z"/>
		<g>
			<path class="st16" d="M98.5,57.4c-2.2,0.6-4.6,1.4-6.3,3c-0.9,0.9-1.5,2.2-1.2,3.5c0.7,2.8,3.9,4.5,6.4,5.1c3,0.7,5.9,0,8.1-2.3
				c1.7-1.8,3.1-4.5,2.4-7C106.8,55.8,101.4,56.6,98.5,57.4c-0.7,0.2-0.1,0.5,0.3,0.4c2.4-0.6,6.6-1.4,8,1.6
				c0.9,2.1-0.2,4.7-1.5,6.5c-0.7,1-1.7,1.9-2.8,2.4c-1.1,0.6-2.4,0.7-3.7,0.5c-2.5-0.4-5.4-1.8-6.6-4.2c-1.9-4,3.8-6.1,6.5-6.8
				C99.5,57.5,98.9,57.3,98.5,57.4z"/>
		</g>
	</g>
	<g>
		<g>
			<path class="st4" d="M98.7,57.5c-14.8,4-3.5,13,3,11.2C108.1,67,112,54,98.7,57.5z M101.9,67.1c-3,0.8-10.5-3.6-6.9-7
				c3.9-3.8,11.4-3.3,11.7,0.3C106.9,62.6,104.4,66.5,101.9,67.1z"/>
		</g>
	</g>
	<path class="st17" d="M105.2,61.2c-1,2-3.4,1.8-5.2,0.4C96,58.4,107.9,55.7,105.2,61.2z"/>
</g>
<path class="st17" d="M114.9,25.5c-1.5,3.1-8.1-0.2-6.1-4.4c2.1-4.4,5.4-6.6,6.5-5.7c-0.2-0.5-0.4-1-0.6-1.5c0,0-5.3,1-9.4,10.1
	c0,0,5.4,3.4,9.1,6.9c0,0,1.9-4.3,1.8-9.7C116,22.3,115.3,24.6,114.9,25.5z"/>
<path class="st0" d="M40.2,154.3l3.4,7.4c0,0-25.7,4.4-32.8-17.3c-7-21.7,12.3-27,14.6-41.4c1.1-6.5-7.4-10.8-14.2-6.2
	c-1.8,1.2,0.6-2.8,2-3.9c0,0-1.9,0.5-3.4,2.5s-0.9-2.9,1.5-4.9c0,0-1.7,0.3-2.5,1.8c-0.7,1.4-1.7-6.4,6.2-9.5
	c7.8-3.2,21.9,4.2,18.3,18.7c-3.7,14.6-19,23.7-17.5,37.8C17.6,153.4,34.3,156.3,40.2,154.3z"/>
<g>
	<path class="st2" d="M27.9,108.8c-8,13.8-16.4,19.7-14.8,30.5c1.4,9.1,11.3,16.2,11.3,12.5c-4.2-2.4-7.7-6.4-8.3-12.5
		c-1.5-14.2,13.8-23.3,17.5-37.8c1.3-5.3,0.3-9.7-1.9-12.9c-0.6-0.5-1.2-0.8-1.9-1C26.6,86.8,35.9,95,27.9,108.8z"/>
</g>
</svg>
