<?xml version="1.0" encoding="utf-8"?>
<!-- Generator: Adobe Illustrator 24.0.3, SVG Export Plug-In . SVG Version: 6.00 Build 0)  -->
<svg version="1.1" id="Layer_1" xmlns="http://www.w3.org/2000/svg" xmlns:xlink="http://www.w3.org/1999/xlink" x="0px" y="0px"
	 width="1400px" height="980px" viewBox="0 0 1400 980" style="enable-background:new 0 0 1400 980;" xml:space="preserve">
<style type="text/css">
	.st0{fill:#DCB86F;}
	.st1{fill:#C39C56;}
	.st2{fill:#89B740;}
	.st3{fill:#92C54E;}
	.st4{opacity:0.28;fill:#288C44;enable-background:new    ;}
	.st5{fill:#3C2A12;}
	.st6{fill:#0E5566;}
	.st7{fill:#E2E2E2;}
	.st8{fill:#1CA8E0;}
	.st9{fill:#3AC5EE;}
	.st10{fill:#68CCF0;}
	.st11{fill:#129BC6;}
	.st12{fill:#D3D3D3;}
	.st13{fill:#0B7A99;}
	.st14{fill:#FFFFFF;}
	.st15{fill:#F8B918;}
	.st16{fill:#D1972A;}
	.st17{fill:#FFD477;}
	.st18{fill:#F2F2F2;}
	.st19{fill:#1C6E76;}
	.st20{fill:#FAB217;}
	.st21{fill:#BA822C;}
	.st22{fill:#F6C241;}
	.st23{fill:#A6DEF3;}
	.st24{fill:#EF4F42;}
	.st25{fill:#FCFDFC;}
	.st26{fill:#F4D091;}
	.st27{fill:#FFCA44;}
	.st28{fill:#F6BA17;}
	.st29{fill:#F6A2A4;}
	.st30{fill:#E1E677;}
	.st31{fill:#FBD064;}
	.st32{fill:#DA443B;}
	.st33{fill:#F2756F;}
	.st34{fill:#C7DA50;}
	.st35{fill:#D1D1D1;}
	.st36{fill:#AAAAAA;}
	.st37{fill:#707171;}
	.st38{fill:#EDECED;}
	.st39{fill:#825422;}
	.st40{fill:#A06C29;}
	.st41{fill:#288C44;}
	.st42{fill:#3BA956;}
	.st43{fill:#1D7732;}
	.st44{fill:#AEAEAF;}
	.st45{fill:#EFEFEF;}
</style>
<path class="st0" d="M1216.5,674.8l-28.1-9.2c0.4-9.1,5.2-18.1,14.3-23.2l0.6-0.4c10.2-5.8,15-16.4,14.2-26.6v-37.7
	c0,0-16.5-3.3-18.5-6.8c-1.5-2.5-77.3-45.8-118.6-69.2c1.1-8.3,5.9-16.2,14.3-20.8l43.9-24.2c10.3-5.7,15.2-16.3,14.5-26.5v-38.3
	l-36.8-18.3l-25.1,6.4l-153.7-89c-8.7-5-19.5-5-28.2,0l-35.7,20.6c-8.9,5.2-20,5-28.8-0.3l-34-20.7c-8.8-5.4-19.8-5.5-28.8-0.4
	l-526.3,303l-76.3,19.5V655l0,0c0.5,9,5.2,17.8,14.1,22.9l287.2,165.8c8.7,5,19.5,5,28.2,0L652,761.1c8.7-5,19.5-5,28.2,0
	l186.1,107.4c8.7,5,19.5,5,28.2,0l78.9-45.6c8.7-5,19.5-5,28.2,0l14.6,8.4c8.7,5,19.5,5,28.2,0l157.8-91.1
	c9.7-5.6,14.4-15.6,14.1-25.4v-40L1216.5,674.8L1216.5,674.8z"/>
<path class="st1" d="M1202.4,642.5h-172v192.7c4.9,0,9.8-1.2,14.2-3.8l157.8-91.1c9.7-5.6,14.4-15.6,14.1-25.4v-40l-28.1-9.2
	C1188.8,656.5,1193.5,647.7,1202.4,642.5z"/>
<path class="st1" d="M1202.6,642.4l0.6-0.4c10.2-5.8,15-16.4,14.2-26.6v-37.7c0,0-16.5-3.3-18.5-6.8c-0.7-1.2-16.9-10.8-38.3-23.2
	v128.6h55.8v-1.4l-28.1-9.2C1188.8,656.5,1193.5,647.5,1202.6,642.4z"/>
<path class="st1" d="M1094.9,480.7l43.8-24.1c10.3-5.7,15.2-16.3,14.5-26.5v-38.3l-36.8-18.3l-21.5,5.5V480.7L1094.9,480.7z"/>
<path class="st1" d="M497.3,847.4c4-0.3,8-1.6,11.7-3.7l143.1-82.6c4.4-2.5,9.2-3.8,14.1-3.8v-65.2H497.3V847.4z"/>
<path class="st1" d="M880.1,872.3c5,0.1,10-1.2,14.5-3.8l78.9-45.6c4.5-2.6,9.5-3.8,14.5-3.8V750H880.1V872.3z"/>
<path class="st2" d="M193.5,635.9l287.2,165.8c8.7,5,19.5,5,28.2,0L652,719.1c8.7-5,19.5-5,28.2,0l186.1,107.4c8.7,5,19.5,5,28.2,0
	l78.9-45.6c8.7-5,19.5-5,28.2,0l14.6,8.4c8.7,5,19.5,5,28.2,0l157.8-91.1c18.8-10.9,18.8-38,0-48.9l0,0c-18.9-10.9-18.8-38.2,0.2-49
	l0.6-0.4c19-10.8,19.1-38.1,0.2-49l-109.3-63.1c-19-11-18.8-38.5,0.5-49.1l43.9-24.2c19.2-10.6,19.5-38.2,0.5-49.1L937.5,249
	c-8.7-5-19.5-5-28.2,0l-35.7,20.6c-8.9,5.2-20,5-28.8-0.3l-34-20.7c-8.8-5.4-19.8-5.5-28.8-0.4L193.5,587
	C174.7,597.9,174.7,625,193.5,635.9z"/>
<path class="st3" d="M193.5,622.9l287.2,165.8c8.7,5,19.5,5,28.2,0L652,706.1c8.7-5,19.5-5,28.2,0l186.1,107.4c8.7,5,19.5,5,28.2,0
	l78.9-45.6c8.7-5,19.5-5,28.2,0l14.6,8.4c8.7,5,19.5,5,28.2,0l157.8-91.1c18.8-10.9,18.8-38,0-48.9l0,0c-18.9-10.9-18.8-38.2,0.2-49
	l0.6-0.4c19-10.8,19.1-38.1,0.2-49l-109.3-63.1c-19-11-18.8-38.5,0.5-49.1l43.9-24.2c19.2-10.6,19.5-38.2,0.5-49.1L937.5,236
	c-8.7-5-19.5-5-28.2,0l-35.7,20.6c-8.9,5.2-20,5-28.8-0.3l-34-20.7c-8.8-5.4-19.8-5.5-28.8-0.4L193.5,574
	C174.7,584.9,174.7,612,193.5,622.9z"/>
<path class="st4" d="M1034.1,564.8c0,0,105.1-63.9,104.9-64s50.2,29,50.2,29l-104,63.6L1034.1,564.8z"/>
<path class="st5" d="M529,598.7l41.3,32.6c0,0,259-139.6,259-141.3c0-1.7-13.8-44.3-13.8-44.3l-187.5,35L529,598.7z"/>
<g>
	<path class="st6" d="M560,613.3L560,613.3c9.3-5.4,20.9,1.3,20.9,12.1v24.2c0,14.3-7.6,27.6-20,34.8l-0.1,0.1
		c-9.3,5.4-21-1.3-21-12.1v-24.2C539.9,633.8,547.5,620.5,560,613.3z"/>
	<path class="st7" d="M560.1,623.9L560.1,623.9c6.5-3.8,14.7,0.9,14.7,8.5v17c0,10.1-5.4,19.4-14.1,24.5h-0.1
		c-6.5,3.8-14.8-0.9-14.8-8.5v-17C546,638.3,551.3,628.9,560.1,623.9z"/>
	<path class="st6" d="M560.3,640.2L560.3,640.2c2.3-1.3,5.1,0.3,5.1,3v5.9c0,3.5-1.9,6.8-4.9,8.5l0,0c-2.3,1.3-5.1-0.3-5.1-3v-5.9
		C555.4,645.2,557.2,641.9,560.3,640.2z"/>
</g>
<g>
	<path class="st6" d="M795.3,477.3L795.3,477.3c9.3-5.4,20.9,1.3,20.9,12.1v24.2c0,14.3-7.6,27.6-20,34.8l-0.1,0.1
		c-9.3,5.4-21-1.3-21-12.1v-24.2C775.2,497.8,782.9,484.5,795.3,477.3z"/>
	<path class="st7" d="M795.4,487.9L795.4,487.9c6.5-3.8,14.7,0.9,14.7,8.5v17c0,10.1-5.4,19.4-14.1,24.5h-0.1
		c-6.5,3.8-14.8-0.9-14.8-8.5v-17C781.3,502.3,786.7,492.9,795.4,487.9z"/>
	<path class="st6" d="M795.6,504.2L795.6,504.2c2.3-1.3,5.1,0.3,5.1,3v5.9c0,3.5-1.9,6.8-4.9,8.5l0,0c-2.3,1.3-5.1-0.3-5.1-3v-5.9
		C790.7,509.2,792.6,505.9,795.6,504.2z"/>
</g>
<path class="st8" d="M553,466.5l-15.3,107.6l-42.9,49.4v74.2l42.9-24.7v-29.9c0-12.1,6.5-23.3,17-29.4l9.4-5.4
	c7.4-4.2,16.6,1.1,16.6,9.6v30.2L773.4,537v-29.8c0-12.1,6.5-23.3,17-29.4l9.4-5.4c7.4-4.2,16.6,1.1,16.6,9.6v30.1l21.1-12.2V302.2
	L553,466.5z"/>
<path class="st9" d="M381.7,367.6L553,466.5l284.6-164.3l-171.4-98.9L381.7,367.6z"/>
<path class="st9" d="M396.2,349.9l160.4,92.6L823,288.7l-160.4-92.6L396.2,349.9z"/>
<path class="st11" d="M381.7,367.6l-15.3,107.6l171.3,98.9L553,466.5L381.7,367.6z"/>
<path class="st6" d="M388.6,380.6l-13.5,91.7l155.2,89.6l13.4-91.7L388.6,380.6z"/>
<path class="st9" d="M323.5,524.7l42.9-49.5l171.3,98.9l-42.9,49.5L323.5,524.7z"/>
<path class="st11" d="M488.2,612.9c-2.8,0-5.5-0.7-8.1-2.1l-138-79.7c-2.8-1.7-4.7-4.4-5.3-7.6c-0.5-3.2,0.4-6.4,2.5-8.9l0,0
	l32.1-37l0.4,0.2l160.5,92.7l-32,37C497.3,611,492.8,612.9,488.2,612.9z M340.2,515.1c-1.9,2.3-2.8,5.2-2.3,8.1
	c0.5,2.9,2.2,5.4,4.8,6.9l138,79.7c6.3,3.6,14.3,2.2,19-3.2l31.2-36l-159.1-91.9L340.2,515.1z"/>
<path class="st11" d="M323.5,598.9v-74.2l171.3,98.9v74.2L323.5,598.9z"/>
<path class="st6" d="M583.5,459l-17.2,9.9c-1.4,0.8-2.3,2.2-2.6,3.8l-10.9,76.5c-0.6,4.3,4,7.4,7.8,5.2l22.9-13.2V459L583.5,459z"/>
<path class="st6" d="M590.3,455.8l39.1-22.3c4.5-2.6,10.2,0.7,10.2,5.9v66.7c0,2.4-1.3,4.7-3.4,5.9l-46,26L590.3,455.8z"/>
<path class="st6" d="M584.4,631.8v-14.3c0-5-2.6-9.4-6.9-11.9c-4.3-2.5-9.4-2.5-13.7,0l-10.7,6.2c-1.9,1.1-4.2,1.1-6,0
	s-2.9-3-2.9-5.1v-36.8L559.5,468l0.2-0.1l70.5-40.8c3.2-1.8,6.9-1.8,10.1,0c3.1,1.8,5,5,5,8.7v160.7L584.4,631.8z M570.7,602.8
	c2.5,0,5,0.7,7.3,2c4.6,2.7,7.4,7.4,7.4,12.8V630l58.9-34.2V435.7c0-3.3-1.7-6.2-4.5-7.8c-2.8-1.6-6.2-1.6-9.1,0l-70.3,40.7
	L545.2,570v36.7c0,1.8,0.9,3.4,2.4,4.3c1.5,0.9,3.4,0.9,5,0l10.7-6.2C565.7,603.4,568.2,602.8,570.7,602.8z"/>
<path class="st12" d="M451.9,620.1l-0.1,8c0,3.4,1.8,6.5,4.7,8.2l38.3,22.1l21.4-12.4v-10.9c0-6.2-6.7-10.1-12.1-7l-9.4,5.4
	l-33.1-19.1C457.4,612,452,615.1,451.9,620.1z"/>
<path class="st12" d="M366.2,565.9v7.8c0,4.6-5,7.5-9,5.2l-33.8-19.5l0.2-24.7l37.1,21.5C364,558.2,366.2,561.9,366.2,565.9z"/>
<path class="st13" d="M467.1,620.8l-5.4-3.1c-3.2-1.8-7.1,0.5-7.1,4.1v6.3c0,2.7,1.4,5.2,3.8,6.5l5.4,3.1c3.2,1.8,7.1-0.5,7.1-4.1
	v-6.3C470.8,624.6,469.4,622.1,467.1,620.8z"/>
<path class="st14" d="M470.8,633.6v-6.3c0-2.7-1.4-5.2-3.8-6.5l-5.4-3.1c-1.1-0.6-2.2-0.8-3.3-0.5c-0.8,0.8-1.3,1.9-1.2,3.2v6.3
	c0,2.7,1.4,5.2,3.8,6.5l5.4,3.1c1.1,0.6,2.2,0.8,3.3,0.5C470.3,636,470.8,634.9,470.8,633.6z"/>
<path class="st13" d="M488.1,632.6l-5.4-3.1c-3.2-1.8-7.1,0.5-7.1,4.1v6.3c0,2.7,1.4,5.2,3.8,6.5l5.4,3.1c3.2,1.8,7.1-0.5,7.1-4.1
	v-6.3C491.9,636.4,490.5,633.9,488.1,632.6z"/>
<path class="st14" d="M491.9,645.4v-6.3c0-2.7-1.4-5.2-3.8-6.5l-5.4-3.1c-1.1-0.6-2.2-0.8-3.3-0.5c-0.8,0.8-1.3,1.9-1.2,3.2v6.3
	c0,2.7,1.4,5.2,3.8,6.5l5.4,3.1c1.1,0.6,2.2,0.8,3.3,0.5C491.4,647.8,491.9,646.7,491.9,645.4z"/>
<path class="st13" d="M338.5,546.6l-5.4-3.1c-3.2-1.8-7.1,0.5-7.1,4.1v6.3c0,2.7,1.4,5.2,3.8,6.5l5.4,3.1c3.2,1.8,7.1-0.5,7.1-4.1
	v-6.3C342.2,550.4,340.8,547.9,338.5,546.6z"/>
<path class="st14" d="M342.2,559.4v-6.3c0-2.7-1.4-5.2-3.8-6.5l-5.4-3.1c-1.1-0.6-2.2-0.8-3.3-0.5c-0.8,0.8-1.3,1.9-1.2,3.2v6.3
	c0,2.7,1.4,5.2,3.8,6.5l5.4,3.1c1.1,0.6,2.2,0.8,3.3,0.5C341.8,561.8,342.2,560.7,342.2,559.4z"/>
<path class="st13" d="M359.6,558.4l-5.4-3.1c-3.2-1.8-7.1,0.5-7.1,4.1v6.3c0,2.7,1.4,5.2,3.8,6.5l5.4,3.1c3.2,1.8,7.1-0.5,7.1-4.1
	v-6.3C363.3,562.2,361.9,559.7,359.6,558.4z"/>
<path class="st14" d="M363.3,571.2v-6.3c0-2.7-1.4-5.2-3.8-6.5l-5.4-3.1c-1.1-0.6-2.2-0.8-3.3-0.5c-0.8,0.8-1.3,1.9-1.2,3.2v6.3
	c0,2.7,1.4,5.2,3.8,6.5l5.4,3.1c1.1,0.6,2.2,0.8,3.3,0.5C362.8,573.6,363.3,572.5,363.3,571.2z"/>
<path class="st13" d="M453.3,564.7l-56.5-32.2c-1.8-1-4.2-0.7-5.6,0.9c-1.9,2.1-1.3,5.4,1.2,6.8l56.5,32.2c1.8,1,4,0.7,5.4-0.7l0,0
	C456.3,569.6,455.8,566.1,453.3,564.7z"/>
<path class="st13" d="M387.2,491.5l-13.6-7.8c-1-0.6-2.2-0.3-2.9,0.5c-1,1.1-0.7,2.9,0.6,3.6l13.6,7.8c0.9,0.5,2.1,0.4,2.8-0.4l0,0
	C388.8,494.2,388.5,492.3,387.2,491.5z"/>
<path class="st13" d="M523.1,569.2l-13.6-7.8c-1-0.6-2.2-0.3-2.9,0.5c-1,1.1-0.7,2.9,0.6,3.6l13.6,7.8c0.9,0.5,2.1,0.4,2.8-0.4l0,0
	C524.7,571.8,524.4,569.9,523.1,569.2z"/>
<path class="st15" d="M514.2,634.3l-2.4-0.3c-0.4-0.1-0.8-0.2-1.3-0.2l0,0l0,0c-0.4,0-0.9,0.2-1.3,0.4l-8.8,5.1
	c-1.9,1.1-3.1,3.1-3.1,5.3v2.5c0,1,0.5,1.9,1.2,2.4l0,0l0,0c0.6,0.5,1.4,0.7,2.2,0.6c1.1,0.2,2.1,0.4,2.1,0.4l1.5-2.2l6.4-3.7
	c1.9-1.1,3.1-3.1,3.1-5.3v-2.5c0-0.6-0.1-1.1-0.4-1.5L514.2,634.3z"/>
<path class="st16" d="M512.3,634.7l-8.8,5.1c-1.9,1.1-3.1,3.1-3.1,5.3v2.5c0,2.4,2.6,3.8,4.6,2.7l8.8-5.1c1.9-1.1,3.1-3.1,3.1-5.3
	v-2.5C516.9,635,514.3,633.5,512.3,634.7z"/>
<path class="st17" d="M508,637.1l-2-1l0,0l-5.7,3.3c-1.9,1.1-3.1,3.1-3.1,5.3v2.5c0,1,0.5,1.9,1.2,2.4l0,0l0,0
	c0.6,0.5,1.4,0.7,2.2,0.6c1.1,0.2,2.1,0.4,2.1,0.4l1.5-2.2l3.7-2.1L508,637.1L508,637.1z"/>
<path class="st15" d="M508,637.2l-4.6,2.6c-1.9,1.1-3.1,3.1-3.1,5.3v2.5c0,2.4,2.6,3.8,4.6,2.7l3-1.8v-11.3H508z"/>
<path class="st18" d="M320.7,592.2v7.8c0,3.2,1.7,6.2,4.5,7.8l162.6,93.9c5.6,3.2,12.5,3.2,18.2,0l32.4-18.7
	c2.8-1.6,4.5-4.6,4.5-7.8v-7.8c0-2.3-2.5-3.8-4.5-2.6L506,683.4c-5.6,3.2-12.5,3.2-18.2,0l-162.5-93.8
	C323.3,588.4,320.7,589.9,320.7,592.2z"/>
<path class="st18" d="M577.4,649.5v5c0,2.7,2.9,4.3,5.2,3l189.2-109.2c3.9-2.2,6.3-6.4,6.3-10.9v-5c0-2.7-2.9-4.3-5.2-3L583.7,638.6
	C579.8,640.8,577.4,645,577.4,649.5z"/>
<path class="st7" d="M812.9,513.5v5c0,2.7,2.9,4.3,5.2,3l18.1-10.4c3.9-2.2,6.3-6.4,6.3-10.9v-5c0-2.7-2.9-4.3-5.2-3l-18.1,10.4
	C815.3,504.9,812.9,509,812.9,513.5z"/>
<path class="st11" d="M396.2,349.9v15.6l160.4,92.6v-15.6L396.2,349.9z"/>
<path class="st6" d="M818.7,301.7v-2.6c0-2.5-2.7-4-4.8-2.8l-12.5,7.2c-1.4,0.8-2.3,2.3-2.3,3.9v2.6c0,2.5,2.7,4,4.8,2.8l12.5-7.2
	C817.8,304.9,818.7,303.4,818.7,301.7z"/>
<path class="st6" d="M796.5,314.5v-2.6c0-2.4-2.7-4-4.8-2.8l-12.5,7.2c-1.4,0.8-2.3,2.3-2.3,3.9v2.6c0,2.5,2.7,4,4.8,2.8l12.5-7.2
	C795.7,317.6,796.5,316.1,796.5,314.5z"/>
<path class="st6" d="M774.4,327.2v-2.6c0-2.5-2.7-4-4.8-2.8l-12.5,7.2c-1.4,0.8-2.3,2.3-2.3,3.9v2.6c0,2.4,2.7,4,4.8,2.8l12.5-7.2
	C773.5,330.3,774.4,328.8,774.4,327.2z"/>
<path class="st6" d="M752.3,339.9v-2.6c0-2.4-2.7-4-4.8-2.8l-12.5,7.2c-1.4,0.8-2.3,2.3-2.3,3.9v2.6c0,2.5,2.7,4,4.8,2.8l12.5-7.2
	C751.4,343,752.3,341.5,752.3,339.9z"/>
<path class="st6" d="M730.1,352.6V350c0-2.4-2.7-4-4.8-2.8l-12.5,7.2c-1.4,0.8-2.3,2.3-2.3,3.9v2.6c0,2.5,2.7,4,4.8,2.8l12.5-7.2
	C729.3,355.7,730.1,354.2,730.1,352.6z"/>
<path class="st20" d="M656.9,530.2l21.6,12.4l89.8-52.3L746.9,478L656.9,530.2z"/>
<path class="st21" d="M678.5,542.6v5.2l-21.6-12.4v-5.2L678.5,542.6z"/>
<path class="st22" d="M768.3,490.3v5.2l-89.8,52.3v-5.2L768.3,490.3z"/>
<path class="st23" d="M747.3,477.9V360.7l68.8-39.3l0.1,116.8L747.3,477.9z"/>
<path class="st24" d="M872.7,387.1c-13.8-25.4-32.9-47.7-55.9-65.2l-0.7-0.5l-159.2,90.8l56.6,65.8L872.7,387.1L872.7,387.1z"/>
<path class="st25" d="M802.3,427.2l39.5-22.5C828,379.3,809,357.1,786,339.5l-0.7-0.5l-0.7,0.3l-46.2,26.3L802.3,427.2z"/>
<path class="st24" d="M770,445.7l41.3-23.5c-13.8-25.4-32.9-47.6-55.8-65.1l-0.7-0.5l-0.9,0.3L711.5,381L770,445.7z"/>
<path class="st25" d="M741,462.2l39.6-22.6c-13.8-25.4-32.8-47.5-55.8-65l-0.7-0.5l-1.4,0.5L680,398.9L741,462.2z"/>
<path class="st11" d="M515.7,613.2c-0.3,0-0.6-0.1-0.9-0.2c-1-0.4-1.7-1.4-1.7-2.5c0-0.6,0.2-1.2,0.6-1.7l9.3-10.7
	c0.8-0.8,1.9-1.1,2.9-0.7c1,0.4,1.7,1.3,1.7,2.4c0,0.6-0.2,1.2-0.6,1.7l-9.3,10.7C517.2,612.9,516.4,613.2,515.7,613.2z
	 M524.9,598.3c-0.4,0-0.8,0.1-1.2,0.5l-9.3,10.7c-0.2,0.3-0.4,0.7-0.4,1.1c0,0.9,0.5,1.4,1,1.5c0.5,0.2,1.2,0.2,1.8-0.5l9.3-10.7
	c0.2-0.3,0.4-0.7,0.4-1.1c0-0.8-0.5-1.3-1-1.5C525.4,598.4,525.2,598.3,524.9,598.3z"/>
<path class="st6" d="M635.4,538L635.4,538c0,1.8,2,3,3.6,2l0,0c0.7-0.4,1.2-1.2,1.2-2l0,0c0-1.8-2-3-3.6-2l0,0
	C635.9,536.5,635.4,537.2,635.4,538z"/>
<path class="st8" d="M555.8,528.6l-2.9,20.6c-0.6,4.3,4,7.4,7.8,5.2l5.6-3.2l0,0L555.8,528.6z"/>
<path class="st11" d="M559.4,528.6l10.3,6v24.7l-4.8-2.8c-3.5-2-5.6-5.8-5.6-9.8L559.4,528.6z"/>
<path class="st13" d="M557.2,548.5c1.2,0,2.1,1.1,2.1,2.5s-0.9,2.5-2.1,2.5s-2.1-1.1-2.1-2.5S556,548.5,557.2,548.5z"/>
<path class="st12" d="M557.2,549.6l5.9-2.9l1.2,2.6l-5.9,2.8c-0.7,0.3-1.6,0-1.9-0.7l0,0C556.3,550.6,556.6,549.9,557.2,549.6z"/>
<path class="st26" d="M681.9,209.9v49.5l96.4-55.6c6.6-3.8,10.7-10.9,10.7-18.6l0,0c0-16.5-17.9-26.8-32.2-18.6L681.9,209.9z"/>
<path class="st0" d="M689.4,213.9v49.5l96.4-55.6c6.6-3.8,10.7-10.9,10.7-18.6l0,0c0-16.5-17.9-26.8-32.2-18.6L689.4,213.9z"/>
<path class="st27" d="M706.4,161.6l-44.1-25.5l0,0c-2.9-1.4-6.5-1.6-9.8,0.3L475.7,238.3c-13.6,7.9-22,22.4-22,38.2l0.2,47.4
	c0,15,7.3,27.5,17.9,35.2l0,0l0.1,0.1c2.4,1.8,47,27.4,47,27.4l39.2-47l104.8-60.7c3.2-1.9,5.2-5.3,5.2-9v-62.3L706.4,161.6z"/>
<path class="st28" d="M496.3,301.1l0.2,47.4c0.1,33.7,36.7,54.7,65.9,37.8l143.1-82.9c3.2-1.9,5.2-5.3,5.2-9V170.1
	c0-8-8.7-13-15.6-9L518.3,262.9C504.7,270.8,496.3,285.3,496.3,301.1z"/>
<path class="st29" d="M625.2,152.2l-149.5,86.2c-13.6,7.9-22,22.4-22,38.2l0.2,47.4c0,15,7.3,27.5,17.9,35.2l0,0l0.1,0.1
	c2.4,1.8,47,27.4,47,27.4l39.2-47L662.9,279c2.6-1.5,4.4-4.1,5-6.9l0.2-40.2v-24.2l0.1-0.2l0.2-30L625.2,152.2z"/>
<path class="st30" d="M625.1,201.3l-42.6-24.5l-106.8,61.5c-13.6,7.9-22,22.4-22,38.2l0.2,47.4c0,15,7.3,27.5,17.9,35.2l0,0l0.1,0.1
	c2.4,1.8,47,27.4,47,27.4l39.2-47l67-38.8L625.1,201.3z"/>
<path class="st31" d="M582.4,325.5v-99.1l-43-24.8l-63.7,36.7c-13.6,7.9-22,22.4-22,38.2l0.2,47.4c0,15,7.3,27.5,17.9,35.2l0,0
	l0.1,0.1c2.4,1.8,47,27.4,47,27.4l39.2-47L582.4,325.5z"/>
<path class="st32" d="M453.7,276.5l0.2,47.4c0,15,7.3,27.5,17.9,35.2l0,0l0.1,0.1c2.4,1.8,47,27.4,47,27.4l20.2-24.3V250.9
	l-42.6-24.6l-20.9,12C462.1,246.2,453.7,260.8,453.7,276.5z"/>
<path class="st33" d="M668.4,177.4l-0.9-0.5l-149.3,86c-13.6,7.9-22,22.4-22,38.2l0.2,47.4c0.1,33.7,36.7,54.7,65.9,37.8l105.2-60.9
	L668.4,177.4z"/>
<path class="st34" d="M625.1,201.3l-106.8,61.6c-13.6,7.9-22,22.4-22,38.2l0.2,47.4c0.1,33.7,36.7,54.7,65.9,37.8l62.8-36.3
	L625.1,201.3z"/>
<path class="st28" d="M582.4,226.4l-0.4-0.2l-63.8,36.7c-13.6,7.9-22,22.4-22,38.2l0.2,47.4c0.1,33.7,36.7,54.7,65.9,37.8l20.1-11.6
	V226.4L582.4,226.4z"/>
<path class="st24" d="M539.1,250.9l-20.8,12c-13.6,7.9-22,22.4-22,38.2l0.2,47.4c0.1,25.1,20.3,43.1,42.7,43.8V250.9H539.1z"/>
<path class="st36" d="M520.9,385.2v18c0,4.6,2.5,8.9,6.5,11.2l15.6,8.9c5.2,2.9,11.6-0.8,11.6-6.7l0.2-17.9c0-4.7-2.5-9.1-6.6-11.4
	l-15.8-8.9C527.3,375.5,520.9,379.2,520.9,385.2z"/>
<path class="st37" d="M554.8,398.7c0-4.7-2.5-9.1-6.6-11.4l-15.8-8.9c-1.7-1-3.5-1.2-5.2-0.9c-0.1,0.4-0.1,0.9-0.1,1.3v18
	c0,4.6,2.5,8.9,6.5,11.2l15.6,8.9c1.7,1,3.5,1.2,5.2,0.9c0.1-0.4,0.1-0.8,0.1-1.3L554.8,398.7z"/>
<path class="st38" d="M516.3,363.9l11.4-6.5l42.6,24.9l-10.8,6.1L516.3,363.9z"/>
<path class="st36" d="M559.1,437.8l42.9-24.4l-31.7-31.1l-10.8,6.1L559.1,437.8z"/>
<path class="st24" d="M693.2,393.1l-1.4-0.9l-7.3,4.2l-27.6,15.7l56.6,65.8l35.3-20.1C735,432.6,716,410.6,693.2,393.1z"/>
<path class="st38" d="M656.9,445.1l56.6,32.8l0,0c-13.8-25.4-32.9-47.7-55.9-65.2l-0.7-0.5L656.9,445.1L656.9,445.1z"/>
<g>
	<path class="st35" d="M1016.4,594.4l18-10.4c1-0.6,2.3-0.6,3.3,0l18,10.4c2.2,1.3,2.2,4.4,0,5.7l-18,10.4c-1,0.6-2.3,0.6-3.3,0
		l-18-10.4C1014.2,598.8,1014.2,595.6,1016.4,594.4z"/>
	<path class="st36" d="M1016.4,594.4l18-10.4c1-0.6,2.3-0.6,3.3,0l14.2,9.9c2.2,1.3,0,0-2.2,1.3l-13.6,15.7c-0.4,0.1-0.8,0-1.7-0.4
		l-18-10.4C1014.2,598.8,1014.2,595.6,1016.4,594.4z"/>
	<path class="st38" d="M1052.6,579.9l-14.9-8.6c-1-0.6-2.3-0.6-3.3,0l-14.9,8.6c-2.2,1.3-2.2,4.4,0,5.7l14.9,8.6
		c1,0.6,2.3,0.6,3.3,0l14.9-8.6C1054.8,584.3,1054.8,581.2,1052.6,579.9z"/>
</g>
<g>
	<path class="st35" d="M897.9,589.9l18-10.4c1-0.6,2.3-0.6,3.3,0l18,10.4c2.2,1.3,2.2,4.4,0,5.7l-18,10.4c-1,0.6-2.3,0.6-3.3,0
		l-18-10.4C895.7,594.3,895.7,591.1,897.9,589.9z"/>
	<path class="st36" d="M897.9,589.9l18-10.4c1-0.6,2.3-0.6,3.3,0l14.2,9.9c2.2,1.3,0,0-2.2,1.3l-13.6,15.7c-0.4,0.1-0.8,0-1.7-0.4
		l-18-10.4C895.7,594.3,895.7,591.1,897.9,589.9z"/>
	<path class="st38" d="M934.1,575.4l-14.9-8.6c-1-0.6-2.3-0.6-3.3,0l-14.9,8.6c-2.2,1.3-2.2,4.4,0,5.7l14.9,8.6c1,0.6,2.3,0.6,3.3,0
		l14.9-8.6C936.3,579.8,936.3,576.7,934.1,575.4z"/>
</g>
<path class="st4" d="M909.3,703.1c3.1-2.1,110.4-9.2,110.4-9.2h42.7l76.6-55.1l-81.7-42.4c0,0-123.2-26.8-123.2-21.1
	C934.1,581.1,909.3,703.1,909.3,703.1z"/>
<path class="st39" d="M965.4,676.1v35.3l8,4.7l0.8-34.9L965.4,676.1z"/>
<path class="st39" d="M1058.8,622v35.3l8,4.7l0.7-34.9L1058.8,622z"/>
<path class="st39" d="M871.3,622.5v35.3l8.1,4.7l0.7-34.9L871.3,622.5z"/>
<path class="st40" d="M982.7,711l-9.3,5.1l0.8-34.9l8.5-5.1V711z"/>
<path class="st40" d="M1076,656.9l-9.2,5.1l0.7-34.9l8.5-5.1V656.9z"/>
<path class="st40" d="M888.6,657.4l-9.2,5.1l0.7-34.9l8.5-5.1V657.4z"/>
<path class="st20" d="M866.5,615.9l107.3-62l107.9,61.4L974.2,678L866.5,615.9z"/>
<path class="st21" d="M866.5,615.9v14.2l107.7,62.1V678L866.5,615.9z"/>
<path class="st22" d="M1081.7,615.3v14.2l-107.5,62.7V678L1081.7,615.3z"/>
<g>
	<path class="st35" d="M888,687.1l18-10.4c1-0.6,2.3-0.6,3.3,0l18,10.4c2.2,1.3,2.2,4.4,0,5.7l-18,10.4c-1,0.6-2.3,0.6-3.3,0
		l-18-10.4C885.8,691.5,885.8,688.3,888,687.1z"/>
	<path class="st36" d="M888,687.1l18-10.4c1-0.6,2.3-0.6,3.3,0l14.2,9.9c2.2,1.3,0,0-2.2,1.3l-13.6,15.7c-0.4,0.1-0.8,0-1.6-0.4
		l-18-10.4C885.8,691.5,885.8,688.3,888,687.1z"/>
	<path class="st38" d="M924.2,672.6l-14.9-8.6c-1-0.6-2.3-0.6-3.3,0l-14.9,8.6c-2.2,1.3-2.2,4.4,0,5.7l14.9,8.6c1,0.6,2.3,0.6,3.3,0
		l14.9-8.6C926.4,677,926.4,673.8,924.2,672.6z"/>
</g>
<path class="st41" d="M1070.3,273.8l6.4-14.6c2.8-6.5,12.1-6.5,14.9,0l6.4,14.6l-13.8,8L1070.3,273.8z"/>
<path class="st42" d="M1070.3,273.8l-7.6,44.8l21.4,12.3v-49.1L1070.3,273.8z"/>
<path class="st41" d="M1098,273.8l-13.9,8v49.1l21.5-12.3L1098,273.8z"/>
<path class="st41" d="M1062.7,318.6l-21.4,61.8l43.1,24.9l-0.3-74.4L1062.7,318.6z"/>
<path class="st43" d="M1105.6,318.6l-21.5,12.3l0.3,74.4l42.7-24.8L1105.6,318.6z"/>
<path class="st42" d="M1041.3,380.4l-21.4,86.6l64.4,37.2l0.1-98.9L1041.3,380.4z"/>
<path class="st41" d="M1127.1,380.5l-42.7,24.8l-0.1,98.9l64-37.2L1127.1,380.5z"/>
<path class="st41" d="M1019.9,467l64.4,37.2l0.1,24.8l-43.1-24.9L1019.9,467z"/>
<path class="st43" d="M1148.3,467l-21.1,37.2l-42.8,24.8l-0.1-24.8L1148.3,467z"/>
<path class="st26" d="M1062.8,516.5l-7.6,48.3l29.2,16.8V529L1062.8,516.5z"/>
<path class="st0" d="M1105.8,516.6l7.6,48.2l-29,16.8V529L1105.8,516.6z"/>
<g>
	<path class="st35" d="M1021.5,691.9l18-10.4c1-0.6,2.3-0.6,3.3,0l18,10.4c2.2,1.3,2.2,4.4,0,5.7l-18,10.4c-1,0.6-2.3,0.6-3.3,0
		l-18-10.4C1019.3,696.3,1019.3,693.1,1021.5,691.9z"/>
	<path class="st36" d="M1021.5,691.9l18-10.4c1-0.6,2.3-0.6,3.3,0l14.2,9.9c2.2,1.3,0,0-2.2,1.3l-13.6,15.7c-0.4,0.1-0.8,0-1.6-0.4
		l-18-10.4C1019.3,696.3,1019.3,693.1,1021.5,691.9z"/>
	<path class="st38" d="M1057.7,677.4l-14.9-8.6c-1-0.6-2.3-0.6-3.3,0l-14.9,8.6c-2.2,1.3-2.2,4.4,0,5.7l14.9,8.6
		c1,0.6,2.3,0.6,3.3,0l14.9-8.6C1059.9,681.8,1059.9,678.7,1057.7,677.4z"/>
	<path class="st0" d="M759,614.5l-14.9-8.6c-1-0.6-2.3-0.6-3.3,0l-14.9,8.6c-2.2,1.3-2.2,4.4,0,5.7l14.9,8.6c1,0.6,2.3,0.6,3.3,0
		l14.9-8.6C761.2,618.9,761.2,615.8,759,614.5z"/>
	<path class="st0" d="M784.5,598.2l-14.9-8.6c-1-0.6-2.3-0.6-3.3,0l-14.9,8.6c-2.2,1.3-2.2,4.4,0,5.7l14.9,8.6c1,0.6,2.3,0.6,3.3,0
		l14.9-8.6C786.7,602.6,786.7,599.5,784.5,598.2z"/>
	<path class="st0" d="M809.9,582.7l-14.9-8.6c-1-0.6-2.3-0.6-3.3,0l-14.9,8.6c-2.2,1.3-2.2,4.4,0,5.7l14.9,8.6c1,0.6,2.3,0.6,3.3,0
		l14.9-8.6C812.1,587.1,812.1,584,809.9,582.7z"/>
</g>
<path class="st41" d="M934.4,120.7l6.4-14.6c2.8-6.5,12.1-6.5,14.9,0l6.4,14.6l-13.8,8L934.4,120.7z"/>
<path class="st42" d="M934.4,120.7l-7.6,44.8l21.5,12.4v-49.2L934.4,120.7z"/>
<path class="st41" d="M962.1,120.7l-13.8,8v49.2l21.4-12.4L962.1,120.7z"/>
<path class="st41" d="M926.8,165.5l-21.4,61.8l43.1,24.9l-0.2-74.3L926.8,165.5z"/>
<path class="st43" d="M969.7,165.5l-21.4,12.4l0.2,74.3l42.7-24.8L969.7,165.5z"/>
<path class="st42" d="M905.4,227.3L884,313.9l64.4,37.2l0.1-98.9L905.4,227.3z"/>
<path class="st41" d="M991.2,227.4l-42.7,24.8l-0.1,98.9l64.1-37.1L991.2,227.4z"/>
<path class="st41" d="M884,313.9l64.4,37.2l0.1,24.8L905.4,351L884,313.9z"/>
<path class="st43" d="M1012.5,314l-21.2,37.2l-42.8,24.7l-0.1-24.8L1012.5,314z"/>
<path class="st41" d="M842.5,500.2"/>
<path class="st26" d="M926.2,450.7l-3.8,24.4l14.8,8.5V457L926.2,450.7z"/>
<path class="st0" d="M948,450.7l3.8,24.4l-14.6,8.5V457L948,450.7z"/>
<g>
	<path class="st43" d="M961.3,438.2c0,13.3-10.8,24-24,24c-1.4,0-2.8-0.1-4.2-0.4c-11.3-2-19.9-11.8-19.9-23.7
		c0-11.8,8.6-21.7,19.9-23.7c1.4-0.2,2.8-0.4,4.2-0.4C950.6,414.2,961.3,425,961.3,438.2z"/>
	<path class="st41" d="M947.8,438.2c0,11.8-6.3,21.7-14.7,23.7c-11.3-2-19.9-11.8-19.9-23.7c0-11.8,8.6-21.7,19.9-23.7
		C941.5,416.5,947.8,426.4,947.8,438.2z"/>
</g>
<path class="st24" d="M955.5,433.8c1.3,0,2.4,1.1,2.4,2.4s-1.1,2.4-2.4,2.4s-2.4-1.1-2.4-2.4S954.2,433.8,955.5,433.8z"/>
<path class="st24" d="M926.6,432.2c1.3,0,2.4,1.1,2.4,2.4s-1.1,2.4-2.4,2.4s-2.4-1.1-2.4-2.4S925.3,432.2,926.6,432.2z"/>
<path class="st24" d="M924.1,449.9c1.3,0,2.4,1.1,2.4,2.4s-1.1,2.4-2.4,2.4s-2.4-1.1-2.4-2.4S922.8,449.9,924.1,449.9z"/>
<path class="st24" d="M938.3,441.3c1.3,0,2.4,1.1,2.4,2.4s-1.1,2.4-2.4,2.4s-2.4-1.1-2.4-2.4S937,441.3,938.3,441.3z"/>
<path class="st24" d="M924.1,415c1.3,0,2.4,1.1,2.4,2.4s-1.1,2.4-2.4,2.4s-2.4-1.1-2.4-2.4S922.8,415,924.1,415z"/>
<path class="st24" d="M950.4,450.9c1.3,0,2.4,1.1,2.4,2.4s-1.1,2.4-2.4,2.4s-2.4-1.1-2.4-2.4S949.1,450.9,950.4,450.9z"/>
<path class="st24" d="M947.9,414c1.3,0,2.4,1.1,2.4,2.4s-1.1,2.4-2.4,2.4s-2.4-1.1-2.4-2.4S946.6,414,947.9,414z"/>
<path class="st24" d="M940.3,424.7c1.3,0,2.4,1.1,2.4,2.4s-1.1,2.4-2.4,2.4s-2.4-1.1-2.4-2.4S939,424.7,940.3,424.7z"/>
<path class="st0" d="M918,469.7l3.8,24.4l-14.6,8.5V476L918,469.7z"/>
<g>
	<path class="st43" d="M931.3,457.2c0,13.3-10.8,24-24,24c-1.4,0-2.8-0.1-4.2-0.4c-11.3-2-19.9-11.8-19.9-23.7
		c0-11.8,8.6-21.7,19.9-23.7c1.4-0.2,2.8-0.4,4.2-0.4C920.6,433.2,931.3,444,931.3,457.2z"/>
	<path class="st41" d="M917.8,457.2c0,11.8-6.3,21.7-14.7,23.7c-11.3-2-19.9-11.8-19.9-23.7c0-11.8,8.6-21.7,19.9-23.7
		C911.5,435.5,917.8,445.4,917.8,457.2z"/>
</g>
<path class="st24" d="M925.5,452.8c1.3,0,2.4,1.1,2.4,2.4s-1.1,2.4-2.4,2.4s-2.4-1.1-2.4-2.4S924.2,452.8,925.5,452.8z"/>
<path class="st24" d="M891.6,448.2c1.3,0,2.4,1.1,2.4,2.4s-1.1,2.4-2.4,2.4s-2.4-1.1-2.4-2.4S890.3,448.2,891.6,448.2z"/>
<path class="st24" d="M894.1,468.9c1.3,0,2.4,1.1,2.4,2.4s-1.1,2.4-2.4,2.4s-2.4-1.1-2.4-2.4S892.8,468.9,894.1,468.9z"/>
<path class="st24" d="M908.3,460.3c1.3,0,2.4,1.1,2.4,2.4s-1.1,2.4-2.4,2.4s-2.4-1.1-2.4-2.4S907,460.3,908.3,460.3z"/>
<path class="st24" d="M894.1,434c1.3,0,2.4,1.1,2.4,2.4s-1.1,2.4-2.4,2.4s-2.4-1.1-2.4-2.4S892.8,434,894.1,434z"/>
<path class="st24" d="M920.4,469.9c1.3,0,2.4,1.1,2.4,2.4s-1.1,2.4-2.4,2.4s-2.4-1.1-2.4-2.4S919.1,469.9,920.4,469.9z"/>
<path class="st24" d="M917.9,433c1.3,0,2.4,1.1,2.4,2.4s-1.1,2.4-2.4,2.4s-2.4-1.1-2.4-2.4S916.6,433,917.9,433z"/>
<path class="st24" d="M910.3,443.7c1.3,0,2.4,1.1,2.4,2.4s-1.1,2.4-2.4,2.4s-2.4-1.1-2.4-2.4S909,443.7,910.3,443.7z"/>
<path class="st44" d="M785.8,259.2c2.1,1.2,43.5,25.1,43.5,25.1l43.5-25.1v-12.5l-15.8-8.9V218l-27.8-13.4l-27.6,13.5v15l-16,8.8
	L785.8,259.2z"/>
<path class="st45" d="M801.8,218.1c2.9,1.7,27.6,15.9,27.6,15.9l27.8-16l-27.8-13.4L801.8,218.1z"/>
<path class="st45" d="M785.8,241.8l27.4,14.6l16.1,25.4v-29.9L801.8,233L785.8,241.8z"/>
<path class="st45" d="M857.1,237.8l-20.5,12.5l36.3-3.6L857.1,237.8z"/>
<path class="st44" d="M1124.1,577.4c2.1,1.2,43.5,25.1,43.5,25.1l43.5-25.1V565l-15.8-8.9v-19.8l-27.8-13.4l-27.6,13.5v15l-16,8.8
	L1124.1,577.4z"/>
<path class="st45" d="M1140,536.3c2.9,1.7,27.6,15.9,27.6,15.9l27.8-16l-27.8-13.4L1140,536.3z"/>
<path class="st45" d="M1124,560.1l27.5,14.6l16.1,25.4v-30l-27.6-18.8L1124,560.1z"/>
<path class="st45" d="M1195.4,556l-20.5,12.6l36.3-3.6L1195.4,556z"/>
<path class="st26" d="M258.2,514.7l-3.8,24.4l14.8,8.5V521L258.2,514.7z"/>
<path class="st0" d="M280,514.7l3.8,24.4l-14.6,8.5V521L280,514.7z"/>
<g>
	<path class="st43" d="M293.3,502.2c0,13.3-10.8,24-24,24c-1.4,0-2.8-0.1-4.2-0.4c-11.3-2-19.9-11.8-19.9-23.7s8.6-21.7,19.9-23.7
		c1.4-0.2,2.8-0.4,4.2-0.4C282.6,478.2,293.3,489,293.3,502.2z"/>
	<path class="st41" d="M279.8,502.2c0,11.8-6.3,21.7-14.7,23.7c-11.3-2-19.9-11.8-19.9-23.7s8.6-21.7,19.9-23.7
		C273.5,480.5,279.8,490.4,279.8,502.2z"/>
</g>
<path class="st24" d="M287.5,497.8c1.3,0,2.4,1.1,2.4,2.4s-1.1,2.4-2.4,2.4s-2.4-1.1-2.4-2.4S286.2,497.8,287.5,497.8z"/>
<path class="st24" d="M258.6,496.2c1.3,0,2.4,1.1,2.4,2.4s-1.1,2.4-2.4,2.4s-2.4-1.1-2.4-2.4S257.3,496.2,258.6,496.2z"/>
<path class="st24" d="M256.1,513.9c1.3,0,2.4,1.1,2.4,2.4s-1.1,2.4-2.4,2.4c-1.3,0-2.4-1.1-2.4-2.4S254.8,513.9,256.1,513.9z"/>
<path class="st24" d="M270.3,505.3c1.3,0,2.4,1.1,2.4,2.4s-1.1,2.4-2.4,2.4s-2.4-1.1-2.4-2.4S269,505.3,270.3,505.3z"/>
<path class="st24" d="M256.1,479c1.3,0,2.4,1.1,2.4,2.4s-1.1,2.4-2.4,2.4c-1.3,0-2.4-1.1-2.4-2.4S254.8,479,256.1,479z"/>
<path class="st24" d="M282.4,514.9c1.3,0,2.4,1.1,2.4,2.4s-1.1,2.4-2.4,2.4s-2.4-1.1-2.4-2.4S281.1,514.9,282.4,514.9z"/>
<path class="st24" d="M279.9,478c1.3,0,2.4,1.1,2.4,2.4s-1.1,2.4-2.4,2.4s-2.4-1.1-2.4-2.4S278.6,478,279.9,478z"/>
<path class="st24" d="M272.3,488.7c1.3,0,2.4,1.1,2.4,2.4s-1.1,2.4-2.4,2.4s-2.4-1.1-2.4-2.4S271,488.7,272.3,488.7z"/>
<g>
	<g>
		<path class="st43" d="M263.3,521.2c0,13.3-10.8,24-24,24c-1.4,0-2.8-0.1-4.2-0.4c-11.3-2-19.9-11.8-19.9-23.7s8.6-21.7,19.9-23.7
			c1.4-0.2,2.8-0.4,4.2-0.4C252.6,497.2,263.3,508,263.3,521.2z"/>
		<path class="st41" d="M249.8,521.2c0,11.8-6.3,21.7-14.7,23.7c-11.3-2-19.9-11.8-19.9-23.7s8.6-21.7,19.9-23.7
			C243.5,499.5,249.8,509.4,249.8,521.2z"/>
	</g>
	<path class="st24" d="M257.5,516.8c1.3,0,2.4,1.1,2.4,2.4s-1.1,2.4-2.4,2.4s-2.4-1.1-2.4-2.4S256.2,516.8,257.5,516.8z"/>
	<path class="st24" d="M223.6,512.2c1.3,0,2.4,1.1,2.4,2.4s-1.1,2.4-2.4,2.4s-2.4-1.1-2.4-2.4S222.3,512.2,223.6,512.2z"/>
	<path class="st24" d="M226.1,532.9c1.3,0,2.4,1.1,2.4,2.4s-1.1,2.4-2.4,2.4s-2.4-1.1-2.4-2.4S224.8,532.9,226.1,532.9z"/>
	<path class="st24" d="M240.3,524.3c1.3,0,2.4,1.1,2.4,2.4s-1.1,2.4-2.4,2.4s-2.4-1.1-2.4-2.4S239,524.3,240.3,524.3z"/>
	<path class="st24" d="M226.1,498c1.3,0,2.4,1.1,2.4,2.4s-1.1,2.4-2.4,2.4s-2.4-1.1-2.4-2.4S224.8,498,226.1,498z"/>
	<path class="st24" d="M252.4,533.9c1.3,0,2.4,1.1,2.4,2.4s-1.1,2.4-2.4,2.4s-2.4-1.1-2.4-2.4S251.1,533.9,252.4,533.9z"/>
	<path class="st24" d="M249.9,497c1.3,0,2.4,1.1,2.4,2.4s-1.1,2.4-2.4,2.4s-2.4-1.1-2.4-2.4S248.6,497,249.9,497z"/>
	<path class="st24" d="M242.3,507.7c1.3,0,2.4,1.1,2.4,2.4s-1.1,2.4-2.4,2.4s-2.4-1.1-2.4-2.4S241,507.7,242.3,507.7z"/>
</g>
</svg>
