<?xml version="1.0" encoding="utf-8"?>
<!-- Generator: Adobe Illustrator 24.0.3, SVG Export Plug-In . SVG Version: 6.00 Build 0)  -->
<svg version="1.0" id="Layer_1" xmlns="http://www.w3.org/2000/svg" xmlns:xlink="http://www.w3.org/1999/xlink" x="0px" y="0px"
	 width="336px" height="235.2px" viewBox="0 0 336 235.2" style="enable-background:new 0 0 336 235.2;" xml:space="preserve">
<path style="fill:#0D2C47;" d="M0.1,0H336v117.4H0.1V0z"/>
<path style="fill:#FFFFFF;" d="M274.9,32.9c-0.6,0-1,0.4-1,1s0.4,1,1,1s1-0.4,1-1S275.4,32.9,274.9,32.9z"/>
<path style="fill:#FFFFFF;" d="M252,16.2c-0.6,0-1,0.4-1,1s0.4,1,1,1s1-0.4,1-1S252.6,16.2,252,16.2z"/>
<path style="fill:#FFFFFF;" d="M143.2,29c-0.6,0-1,0.4-1,1s0.4,1,1,1s1-0.4,1-1S143.7,29,143.2,29z"/>
<path style="fill:#FFFFFF;" d="M317.9,62.6c-0.6,0-1,0.4-1,1s0.4,1,1,1s1-0.4,1-1C318.9,63.1,318.5,62.6,317.9,62.6z"/>
<path style="fill:#FFFFFF;" d="M202.9,45.2c-0.6,0-1,0.4-1,1s0.4,1,1,1s1-0.4,1-1S203.5,45.2,202.9,45.2z"/>
<path style="fill:#FFFFFF;" d="M61.2,45.2c-0.6,0-1,0.4-1,1s0.4,1,1,1s1-0.4,1-1S61.7,45.2,61.2,45.2z"/>
<path style="fill:#FFFFFF;" d="M227.8,28.3c-0.3,0-0.6,0.3-0.6,0.6c0,0.3,0.3,0.6,0.6,0.6s0.6-0.3,0.6-0.6
	C228.4,28.6,228.2,28.3,227.8,28.3z"/>
<path style="fill:#FFFFFF;" d="M107.5,11.5c-0.3,0-0.6,0.4-0.5,0.7c0,0.3,0.3,0.5,0.5,0.5c0.3,0,0.6-0.4,0.5-0.7
	C108,11.8,107.8,11.5,107.5,11.5z"/>
<path style="fill:#FFFFFF;" d="M8,45.2c-0.3,0-0.6,0.3-0.6,0.6s0.3,0.6,0.6,0.6c0.3,0,0.6-0.3,0.6-0.6C8.6,45.4,8.3,45.2,8,45.2
	L8,45.2z"/>
<path style="fill:#FFFFFF;" d="M330.3,21.9c-0.3,0-0.6,0.3-0.6,0.6c0,0.3,0.3,0.6,0.6,0.6c0.3,0,0.6-0.3,0.6-0.6
	C330.9,22.2,330.7,21.9,330.3,21.9z"/>
<path style="fill:#FFFFFF;" d="M249.6,68.4c-0.3,0-0.6,0.3-0.6,0.6c0,0.3,0.3,0.6,0.6,0.6s0.6-0.3,0.6-0.6
	C250.2,68.7,250,68.4,249.6,68.4z"/>
<path style="fill:none;" d="M281.3,97.6c-0.3,0-0.6,0.3-0.6,0.6c0,0.3,0.3,0.6,0.6,0.6c0.3,0,0.6-0.3,0.6-0.6S281.6,97.6,281.3,97.6
	z"/>
<path style="fill:#FFFFFF;" d="M40.1,51.1c-0.3,0-0.6,0.4-0.5,0.7c0,0.3,0.3,0.5,0.5,0.5c0.3,0,0.6-0.4,0.5-0.7
	C40.6,51.3,40.3,51.1,40.1,51.1z"/>
<path style="fill:#FFFFFF;" d="M251,51.1c-0.3,0-0.6,0.4-0.5,0.7c0,0.3,0.3,0.5,0.5,0.5c0.3,0,0.6-0.4,0.5-0.7
	C251.5,51.3,251.3,51.1,251,51.1z"/>
<path style="fill:#FFFFFF;" d="M168.1,11.1c-0.3,0-0.6,0.3-0.6,0.6s0.3,0.6,0.6,0.6s0.6-0.3,0.6-0.6
	C168.7,11.4,168.4,11.1,168.1,11.1z"/>
<path style="fill:#FFFFFF;" d="M317.8,11.1c-0.3,0-0.6,0.3-0.6,0.6s0.3,0.6,0.6,0.6c0.3,0,0.6-0.3,0.6-0.6
	C318.4,11.4,318.1,11.1,317.8,11.1z"/>
<path style="fill:#FFFFFF;" d="M40.7,19.9c-0.3,0-0.6,0.3-0.6,0.6c0,0.3,0.3,0.6,0.6,0.6s0.6-0.3,0.6-0.6
	C41.3,20.2,41,19.9,40.7,19.9z"/>
<path style="fill:#FFFFFF;" d="M179.3,17.9c-0.3,0-0.6,0.3-0.6,0.6c0,0.3,0.3,0.6,0.6,0.6s0.6-0.3,0.6-0.6
	C179.9,18.2,179.7,17.9,179.3,17.9z"/>
<path style="opacity:0.4;fill:#FFFFFF;enable-background:new    ;" d="M326.1,65.7c-2.2,2.7-2.8,6.3-1.7,9.6c-1,0-2,0.3-2.9,0.9
	c-0.3-0.4-0.6-0.7-1-1c0.1-0.4,0.2-0.8,0.2-1.2c0.1-2.3-1.7-4.2-4-4.3c-0.8,0-1.7,0.2-2.4,0.6c-0.7-0.7-1.6-1.1-2.6-1.2
	c0-1-0.2-1.9-0.6-2.7c0.5-2.5-1.1-5-3.7-5.5c-1.5-0.3-3.1,0.2-4.2,1.3c-1.4-2.3-4.1-3.4-6.8-2.8c-0.6-0.4-1.2-0.8-1.8-1.1
	c-4.2-1.8-9,0.2-10.8,4.4c-1.2,2.9-0.7,6.3,1.4,8.6c-0.2,0-0.4-0.1-0.7-0.1c-1.1,0-2.1,0.4-2.8,1.2c-0.4-0.5-0.8-0.9-1.3-1.2
	c0-0.1,0-0.3,0-0.4c0-2.6-2.2-4.6-4.7-4.6c-1.4,0-2.7,0.7-3.6,1.8c0.4-2.5-1.4-4.9-3.9-5.3c-1.3-0.2-2.6,0.2-3.6,1
	c-1.1,0.9-1.7,2.2-1.7,3.6c-2.2,0.2-4,1.9-4.3,4.1h-0.1c-3.1,0.1-5.5,2.6-5.4,5.7c0,0.7,0.2,1.4,0.5,2.1c-0.3-0.1-0.7-0.1-1.1-0.1
	c-1.6,0-3,0.9-3.7,2.3c-3.3-1.3-7.1,0.3-8.4,3.6c-0.3,0.8-0.5,1.6-0.4,2.5c0,1.5,0.5,2.9,1.5,4h-0.4c-3.8,0-6.9,3.1-6.9,6.9
	c0,0.6,0.1,1.2,0.3,1.8c-1.7-0.7-3.6-0.6-5.3,0.1c-0.2-1.2-0.6-2.4-1.4-3.3c-2.3-3-6.7-3.6-9.7-1.2l0,0c-0.2,0.2-0.4,0.4-0.6,0.6
	c-2.4-3-6.8-3.4-9.7-1c-1.5,1.3-2.5,3.1-2.5,5.2l0.4,0.6c-1.2,0-2.3,0.5-3.1,1.3c-1.4-2.3-4.1-3.4-6.8-2.8c-0.6-0.4-1.2-0.8-1.8-1.1
	c-4.2-1.8-9,0.1-10.8,4.3c-1.3,2.9-0.7,6.3,1.4,8.7c-0.2,0-0.5-0.1-0.7-0.1c-1.1,0-2.1,0.4-2.8,1.2c-0.4-0.5-0.8-0.9-1.3-1.2
	c0-0.1,0-0.3,0-0.4c0-2.6-2.2-4.7-4.8-4.6c-1.4,0-2.7,0.7-3.6,1.8c0.2-1.3-0.2-2.6-1-3.6c-1.6-2-4.5-2.3-6.5-0.7
	c-1.1,0.9-1.7,2.2-1.7,3.6c-2.2,0.2-4,1.9-4.3,4.1h-0.1c-3.1,0.1-5.5,1.9-5.5,5v0.1l183.9,0.2V65.5
	C333.4,62.6,327.7,63.6,326.1,65.7z"/>
<path style="opacity:0.4;fill:#FAFAFB;enable-background:new    ;" d="M130.7,107c0.2-0.6,0.3-1.3,0.3-2c0-4.2-4-7.6-8.9-7.6
	c-0.6,0-1.2,0-1.8,0.2c0.2-0.6,0.3-1.2,0.3-1.9c0.1-3.7-2.8-6.8-6.5-6.9c-1.8,0-3.5,0.8-4.7,2.2c-3.7-5.7-11.4-7.3-17.1-3.5
	c-1.6,1.1-3,2.5-3.9,4.2c-1.1-3.1-4-5.2-7.3-5.2c-1,0-2,0.2-2.9,0.6c0.1-0.5,0.2-1,0.2-1.5c-0.1-3-2.1-5.6-5-6.4
	c0.3-0.7,0.4-1.4,0.4-2.2c0.1-3-2.2-5.6-5.2-5.7c-0.5,0-0.9,0.1-1.4,0.2c0-0.2,0-0.3,0-0.5c0-4.4-3-7.9-6.7-7.9
	c-0.8,0-1.6,0.2-2.3,0.5c-1.4-5.1-6.8-8.1-11.9-6.7c-3,0.8-5.4,3-6.4,6c-1.6-1.7-3.8-2.7-6.1-2.6c-1,0-2,0.2-3,0.5
	c0.1-0.2,0.1-0.5,0.1-0.7c0-1.8-1.7-3.2-3.8-3.2c-0.4,0-0.8,0.1-1.1,0.2c0.1-0.2,0.1-0.5,0.1-0.7c0-1.5-1.3-2.8-2.8-2.8h-0.1
	c0-1.8-1.5-3.2-3.3-3.2c-0.5,0-0.9,0.1-1.3,0.3c-1-1.5-2.7-2.4-4.5-2.3c-2.2-0.1-4.2,1.2-5,3.3c-3,0.1-5.5,2.1-6.2,5
	c-0.4-0.1-0.9-0.2-1.3-0.2c-0.6,0-1.3,0.1-1.9,0.4v59.5H126C134.7,113.4,133.6,108.9,130.7,107z"/>
<path style="fill:#FFFFFF;" d="M167.5,60c28.8,0,52.2,23.4,52.2,52.2s-23.4,52.2-52.2,52.2s-52.2-23.4-52.2-52.2S138.7,60,167.5,60z
	"/>
<path style="fill:#00507E;" d="M-0.1,117.3h336.2v117.9H-0.1V117.3z"/>
<path style="opacity:0.4;fill:#606060;enable-background:new    ;" d="M65.9,188.7h14.5l-1.1,6.4c-3.5-0.2-7.3-0.2-12.3-0.1
	c0,0,7.4,26.1,11.4,40.2h5.9c4-14.2,11.4-40.2,11.4-40.2c-4.8-0.1-8.8-0.1-12.2,0.1l-1.6-6.4H99l0.7-1.8h2.6l-1.5-4.1h-32l-1.8,0.1
	c-1.7,0.1-3.5,0.4-5.2,0.9c-0.4,0.1-0.9,0.3-1.3,0.5c-0.9,0.4-4.7,2.7-4.7,2.7s3,0,7.2-0.1L65.9,188.7z"/>
<g style="opacity:0.37;">
	<g style="opacity:0.53;">
		<polygon style="fill:#20323A;" points="336,140.5 58,138.5 336,138.5 		"/>
	</g>
	<g style="opacity:0.28;">
		<polygon style="fill:#20323A;" points="336,211.7 125.5,209.9 336,207.4 		"/>
	</g>
	<g style="opacity:0.32;">
		<polygon style="fill:#20323A;" points="-0.3,167 210.2,167.6 -0.3,165.3 		"/>
	</g>
	<g style="opacity:0.13;">
		<polygon style="fill:#20323A;" points="336,171.5 145.8,171.5 336,170 		"/>
	</g>
	<g style="opacity:0.28;">
		<polygon style="fill:#20323A;" points="336,177.1 145.8,174.8 336,173 		"/>
	</g>
	<g style="opacity:0.3;">
		<polygon style="fill:#20323A;" points="336,203.8 0.2,203 0.2,201.5 336,202.3 		"/>
	</g>
</g>
<path style="fill:#07293C;" d="M0,134.6c0,0,123.1,0.1,123.7-0.7s-24.8-23.4-26.5-23.7s-19.1,0.5-20.2-0.4S33.9,70.4,33.5,70.1
	c-0.5-0.3-1.2-0.3-1.8,0C31.4,70.4,8.5,92.7,7.1,91.3S0,80.9,0,80.9V134.6z"/>
<path style="fill:#00507E;" d="M77,109.8c1,0.9,18.4,0.2,20.2,0.4c1.2,0.2,13,10.5,20.5,17.4h11.5c-3.3-3.7-38.8-34.9-39.3-34.9
	c-0.2,0-2.7,2.2-2.8,2.2s-2.7-2.8-2.9-2.8s-6.7,5.4-13.8,11.5C74.1,107.2,76.8,109.6,77,109.8z"/>
<path style="fill:#004168;" d="M30.3,71.5c-4.5-4.2-7.4-6.8-7.7-6.8c-0.6,0-1.4,1.1-2.3,1.1c-1.1,0-6.7-5.6-7.8-5.6
	C11,60.2,0,71.3,0,71.3v9.6c0,0,5.7,8.9,7.1,10.3C8.3,92.5,25.2,76.4,30.3,71.5z"/>
<path style="fill:#0A3455;" d="M255.9,126.8c-0.3-0.5-0.6-0.9-1.1-1.1c-0.3-0.2-48.6-29.2-50.1-29.2c-0.8,0-2.4,2-2.9,1.8
	s-6.8-3.6-7.7-3.6h-4.7c-0.6,0-2.5,1.6-3.5,2.2c-0.2,0.1-0.5,0.2-0.7,0.2h-1.8c-0.4,0-5.5,5-6.4,5h-7.1c-0.6,0-1.2,0.2-1.7,0.6
	c-2.9,2.4-13.4,10.8-13.8,11c-1.9,0.2-3.7,0.3-5.6,0.3c-0.7,0-11.5,8.3-17.6,12.9L255.9,126.8L255.9,126.8z"/>
<path style="fill:#07293C;" d="M335.9,114c-7.8,5.5-19.8,14.7-21.3,14.7c-3.1,0-15.3,0.1-16.8,0.1s-39.8,12.1-44.2,13.5h82.3
	L335.9,114L335.9,114z"/>
<path style="opacity:0.37;fill:#20323A;enable-background:new    ;" d="M335.9,170.8c-7.8-5.5-19.8-14.7-21.3-14.7
	c-3.1,0-15.3-0.1-16.8-0.1s-39.8-12.1-44.2-13.5h82.3L335.9,170.8L335.9,170.8z"/>
<path style="fill:#0D2C47;" d="M335.9,88.5c-5.5,4-37.8,28.9-39.2,28.9c-3.5,0-6.9-0.1-9.8-0.1c-0.6,0-25.6,8.9-26,9.3
	c-0.2,0.2,36.3-0.1,75-0.5V88.5z"/>
<path style="fill:#07293C;" d="M191,142.6c0,0,8.4-4.3,10-4.4s2.5,0.1,4.3-0.8c2.4-1.2,8.1-4.9,9.3-4.9c1.6,0,7.3,4.2,9.2,4.1
	c1,0,3.6-0.1,3.8-0.1c1.6,0,2.6,1.2,3.6,1.2c2.2,0,11,4.9,11,4.9H191z"/>
<path style="opacity:0.37;fill:#20323A;enable-background:new    ;" d="M131.2,126.7c6.1,4.6,16.9,12.9,17.6,12.9
	c1.9,0,3.7,0.1,5.6,0.3c0.4,0.2,10.9,8.6,13.8,10.9c0.5,0.4,1.1,0.6,1.7,0.6h7.1c0.9,0,5.9,5,6.4,5c0.2,0,1,0,1.8,0
	c0.3,0,0.5,0.1,0.7,0.2c1,0.6,2.9,2.2,3.5,2.2h4.7c0.9,0,7.2-3.4,7.7-3.6s2.1,1.8,2.9,1.8c0.4,0,3.8-1.9,8.7-4.7
	c-2.2-1-6.1-3.5-8-4.4s-2.7-0.7-4.3-0.8s-10-4.4-10-4.4h38.8c12.4-7.4,24.8-14.8,25-14.9c0.5-0.3,0.9-0.6,1.1-1.1H131.2z"/>
<path style="opacity:0.5;fill:none;enable-background:new    ;" d="M123.6,134l0.1,0.1L123.6,134L123.6,134z"/>
<path style="opacity:0.37;fill:#20323A;enable-background:new    ;" d="M0,134.6v43.2c0,0,11.1,7.9,12.6,7.9c1.2,0,6.7-3.9,7.8-3.9
	c0.9,0,1.7,0.8,2.3,0.8c2.6-1.5,5.2-3.1,7.7-4.8c0.9,0.6,1.4,0.9,1.5,1c0.6,0.2,1.2,0.2,1.8,0c0.4-0.2,42.5-27.3,43.5-28
	s22.4-0.1,24.1-0.3s22.5-16.4,22.3-16.4C118.3,134.7,0,134.6,0,134.6z"/>
<polygon style="opacity:0.37;fill:#20323A;enable-background:new    ;" points="261,126.6 279.7,134.3 297.9,128.8 315.2,128.6 
	319.1,126.4 "/>
<path style="fill:#0A3455;" d="M65.9,212.8c0,0-3,5.5-3.6,19.3c-1.1-7.9-3.5-18.5-9.3-23.7c3.1,8.5,4.7,17.5,4.7,26.5h7.9
	C64.3,228.9,63.1,219.7,65.9,212.8z"/>
<path style="fill:#0A3455;" d="M88.6,212.8c0,0,1.2,13.3-0.4,22.1h3.2C92,228.3,92.2,218.3,88.6,212.8z"/>
<path style="fill:#0A3455;" d="M85.1,234.9h2.5c-0.5-3.5-0.9-8.2,0.2-11.7C86.2,227,85.3,230.9,85.1,234.9z"/>
<path style="fill:#0A3455;" d="M69.6,216.3c3.4,5.6,5.3,12,5.6,18.6H85c-0.7-11.6-1.1-30.8,2.9-40.2c0,0-6.8,9.6-7.9,37.9
	C78.4,227.1,75.2,219.5,69.6,216.3z"/>
<path style="fill:#00507E;" d="M112,234.9c0.2-14.5,4.8-21,4.8-21c-4.7,5.1-6.7,13.1-7.2,21H112z"/>
<path style="fill:#00507E;" d="M94.9,208.3c2.1,4.9,3,12.2,3.4,19.9c-1.7-3.2-4-6-6.7-8.4c3.2,3.5,5.2,9.2,6.5,15.1h4.1
	C99.9,215.3,94.9,208.3,94.9,208.3z"/>
<path style="fill:#0D2C47;" d="M249.2,212.8c0,0,3,5.5,3.6,19.3c1.1-7.9,3.5-18.5,9.3-23.7c-3.1,8.5-4.7,17.5-4.7,26.5h-7.9
	C250.8,228.9,251.9,219.7,249.2,212.8z"/>
<path style="fill:#0D2C47;" d="M226.4,212.8c0,0-1.2,13.3,0.4,22.1h-3.2C223,228.3,222.8,218.3,226.4,212.8z"/>
<path style="fill:#0D2C47;" d="M230,234.9h-2.5c0.5-3.5,0.9-8.2-0.1-11.7C228.9,227,229.8,230.9,230,234.9z"/>
<path style="fill:#0D2C47;" d="M245.5,216.3c-3.4,5.6-5.3,12-5.7,18.6H230c0.7-11.6,1.1-30.8-2.9-40.2c0,0,6.8,9.6,7.9,37.9
	C236.6,227.1,239.8,219.5,245.5,216.3z"/>
<g id="grass">
	<path style="fill:#0D2C47;" d="M182.3,225.6c0.8-4.6,3.8-11.8,3.8-11.8s-3.4,5.9-6,11c-1.6,3.1-2.4,6.5-2.5,10h3.9
		C181.6,231.7,181.8,228.6,182.3,225.6z"/>
	<path style="fill:#0D2C47;" d="M222.8,234.8h2.5c-0.2-2.1-0.2-4.2-0.1-6.3c0.2-3,2.6-7.6,2.6-7.6c-1.9,2.3-3.5,4.7-5,7.2
		c0-3.9-0.1-9.3-0.2-15.5c-0.3-8.2-1-16.4-2.1-24.5c0,0,0.6,12.6,0.2,25.1c-0.2,7.2-1,14.4-2.4,21.5h4.5V234.8z"/>
	<path style="fill:#0D2C47;" d="M258.1,226.6c-3.8,1.5-7.5,3.4-10.8,5.9c1.3-3.6,2.9-7.1,4.8-10.5c0,0-4.6,5.9-8,11
		c-0.4,0.6-0.8,1.2-1.1,1.8h4.5c0.1-0.2,0.2-0.4,0.3-0.7C250.1,229.9,258.1,226.6,258.1,226.6z"/>
	<path style="fill:#0D2C47;" d="M186.7,233.5c1-4.6,5.1-11.8,5.1-11.8s-4.6,5.9-8.1,11c-0.5,0.7-0.9,1.4-1.2,2.1h3.9
		C186.5,234.4,186.6,233.9,186.7,233.5z"/>
	<path style="fill:#0D2C47;" d="M192.8,234.5c2.3-4.3,10.4-7.6,10.4-7.6c-4.7,1.8-9.1,4.3-12.9,7.6l-0.4,0.4h2.8L192.8,234.5z"/>
	<path style="fill:#0D2C47;" d="M175.5,234.8c0,0-1.2-3.7-0.4-14.4s6.7-21.1,6.7-21.1s-6.9,7.4-9,16.5c-0.9,3.9-1.3,7.9-1.3,11.9
		c-1.2-4.6-2.6-9-2.6-9s1,7.3,0.2,12c-0.3,1.4-0.6,2.8-1,4.1H175.5L175.5,234.8z"/>
	<path style="fill:#0D2C47;" d="M162.7,234.8c-0.6-4.1-1.5-8.1-2.9-12c-2.1-6.2-9.1-13.3-9.1-13.3c2.8,3.9,4.9,8.3,6.2,12.9
		c0.6,1.8,0.9,3.7,1.1,5.6c-2.5-3.2-5.6-5.8-9.1-7.7c0,0,6.6,3.9,7.2,8.4c0.3,2.1,0.2,4.2-0.3,6.2L162.7,234.8L162.7,234.8z"/>
	<path style="fill:#0D2C47;" d="M212.2,234.4c-0.4-8.2-1.6-16.4-3.5-24.4c0,0,0.7,8.4,0.6,18.2c-1.6-4.8-3.5-9.6-3.5-9.6
		s1.5,7.4,0.8,12c-0.2,1.4-0.5,2.8-0.9,4.1h6.6C212.2,234.7,212.2,234.6,212.2,234.4z"/>
	<path style="fill:#0D2C47;" d="M233.5,234.8c0.1-2.6,0.5-5.1,1.3-7.6c1.3-4.3,5.9-7.6,5.9-7.6c-2.9,2-5.5,4.6-7.4,7.6
		c-0.8,1.1-1.4,2.3-2,3.6c-0.2-2.1-0.8-4.1-2-5.9c1.4,2.5,1.6,5.5,0.6,8.2c-0.2,0.6-0.5,1.2-0.8,1.7H233.5L233.5,234.8z"/>
	<path style="fill:#0D2C47;" d="M115.1,234.8c0,0,1.2-3.7,0.4-14.4s-6.7-21.1-6.7-21.1s6.9,7.4,9,16.5c0.9,3.9,1.3,7.9,1.3,11.9
		c1.2-4.6,2.6-9,2.6-9s-1,7.3-0.2,12c0.3,1.4,0.6,2.9,1,4.1H115.1L115.1,234.8z"/>
	<path style="fill:#0D2C47;" d="M284.4,234.8h-2.5c0.2-2.1,0.2-4.2,0.1-6.3c-0.2-3-2.6-7.6-2.6-7.6c1.9,2.3,3.5,4.7,5,7.2
		c0-3.9,0.1-9.3,0.2-15.5c0.3-8.2,1-16.4,2.1-24.5c0,0-0.6,12.6-0.2,25.1c0.2,7.2,1,14.4,2.4,21.5h-4.5V234.8z"/>
	<path style="fill:#0D2C47;" d="M70.1,234.8c0,0-1.2-3.7-0.4-14.4s6.7-21.1,6.7-21.1s-6.9,7.4-9,16.5c-0.9,3.9-1.3,7.9-1.3,11.9
		c-1.2-4.6-2.6-9-2.6-9s1,7.3,0.2,12c-0.3,1.4-0.6,2.9-1,4.1H70.1L70.1,234.8z"/>
	<path style="fill:#0D2C47;" d="M133,234.8c0-2.6,0.5-5.1,1.3-7.6c1.3-4.3,5.9-7.6,5.9-7.6c-2.9,2-5.5,4.6-7.4,7.6
		c-0.8,1.1-1.4,2.3-2,3.6c-0.2-2.1-0.8-4.1-2-5.9c1.4,2.5,1.6,5.5,0.6,8.2c-0.2,0.6-0.5,1.2-0.8,1.7H133z"/>
	<path style="fill:#0D2C47;" d="M52.4,213.3c-0.4-12.4,0.2-25.1,0.2-25.1c-1.1,8.1-1.9,16.3-2.1,24.5c0,0.9,0,1.8-0.1,2.7v19.4h4.4
		C53.5,227.7,52.7,220.6,52.4,213.3z"/>
</g>
<path style="fill:#FFFFFF;" d="M166.5,113.4l0.1,16.9c2.7,0.2,5.5,0.1,8.2-0.2C173.1,125.4,168.8,117.9,166.5,113.4z"/>
<path style="fill:#B6CFD4;" d="M159.8,134.6h10.9h0.6c0.6,0,1.2-0.1,1.8-0.3l0.4-0.2c0.3-0.1,1.6-0.9,1.6-0.9s-15.7,0-15.9,0
	L159.8,134.6z"/>
<polygon style="fill:#9F7464;" points="160.1,133.2 172.7,133.1 171.7,132.6 160.4,132.6 "/>
<path style="fill:#9F7464;" d="M166.4,132.6l-0.1-20.3l0.1-0.1c0,0,0.1,0,0.1,0.1l0.1,20.3H166.4z"/>
<path style="opacity:0.2;fill:#C1CAC7;enable-background:new    ;" d="M166.7,130.3l-0.1-16.8c0,0.1,4.8,16.8,4.8,16.8
	C169.8,130.5,168.2,130.4,166.7,130.3z"/>
<path style="fill:#B6CFD4;" d="M100.8,183h-32l-1.8-0.1c-1.7-0.1-3.5-0.4-5.1-0.9c-0.4-0.1-0.9-0.3-1.3-0.5
	c-0.9-0.4-4.7-2.7-4.7-2.7c0.4,0.1,46,0.1,46.4,0.1L100.8,183z"/>
<polygon style="fill:#9F7464;" points="99.7,178.9 63.1,178.9 65.9,177.1 99,177.1 "/>
<path style="fill:#9F7464;" d="M81.4,177.1l0.4-59.5c0-0.1-0.2-0.2-0.4-0.2s-0.4,0.1-0.4,0.2l-0.4,59.5H81.4z"/>
<path style="fill:#FFFFFF;" d="M80.6,170.6l0.4-49c-0.1,0.2-14,49.2-14,49.2C71.5,171,76.1,170.9,80.6,170.6z"/>
<path style="fill:#FFFFFF;" d="M81.5,170.6l0.2-49c0.1,0.2,14,49.2,14,49.2C91,171,86.2,170.9,81.5,170.6z"/>
<path style="fill-rule:evenodd;clip-rule:evenodd;fill:#00507E;" d="M295.1,34.6c-0.7-0.1-1.3-0.3-2-0.5c-0.7-0.1-1.4,0.1-1.9,0.4
	c-0.1-0.1-0.3-0.2-0.4-0.2c-0.2,0-0.3,0.1-0.4,0.2c-0.6-0.4-1.3-0.5-2-0.4c-0.7,0.2-1.3,0.4-2,0.5h-0.2h0.2c0.3,0.1,0.6,0.1,1,0.1
	s0.7-0.1,1.1-0.1s0.7,0.1,1,0.3s0.7,0.4,1,0.6c0.3,0.1,0.7,0.1,1,0c0.3-0.2,0.6-0.4,0.9-0.5c0.3-0.2,0.7-0.2,1-0.2
	c0.4,0,0.7,0,1.1,0.1c0.3,0,0.7,0,1,0h0.2L295.1,34.6z"/>
<path style="fill-rule:evenodd;clip-rule:evenodd;fill:#FFFFFF;" d="M103.5,41.2c-0.4-0.1-0.8-0.2-1.1-0.3c-0.4,0-0.8,0-1.1,0.2
	c-0.1-0.1-0.2-0.1-0.3-0.1c-0.1,0-0.2,0-0.2,0.1c-0.3-0.2-0.7-0.3-1.1-0.2s-0.8,0.2-1.1,0.3h-0.1h0.1c0.2,0,0.4,0,0.5,0
	c0.2,0,0.4,0,0.6,0s0.4,0.1,0.6,0.2c0.2,0.1,0.4,0.2,0.5,0.3c0.2,0.1,0.4,0.1,0.6,0s0.3-0.2,0.5-0.3s0.4-0.1,0.6-0.2
	c0.2,0,0.4,0,0.6,0C103.1,41.3,103.3,41.3,103.5,41.2L103.5,41.2L103.5,41.2z"/>
<path style="fill-rule:evenodd;clip-rule:evenodd;fill:#FFFFFF;" d="M57.8,35.9c-0.8-0.1-1.6-0.3-2.4-0.6c-0.8-0.1-1.6,0.1-2.3,0.5
	c-0.2-0.3-0.6-0.4-0.8-0.2c-0.1,0-0.1,0.1-0.2,0.2c-0.7-0.4-1.5-0.6-2.4-0.5c-0.8,0.3-1.6,0.4-2.4,0.6h-0.2h0.2
	c0.4,0.1,0.8,0.1,1.1,0.1c0.4,0,0.9-0.1,1.3-0.1c0.4,0,0.8,0.1,1.2,0.3s0.8,0.4,1.1,0.7c0.4,0.2,0.8,0.2,1.2,0
	c0.3-0.2,0.7-0.4,1-0.6c0.4-0.2,0.8-0.3,1.2-0.3s0.9,0.1,1.3,0.1C57,36,57.4,36,57.8,35.9L58,36L57.8,35.9z"/>
<path style="fill-rule:evenodd;clip-rule:evenodd;fill:#FFFFFF;" d="M238.1,64.4c-1.7-0.1-2.5-0.7-3.9-1c-1.3-0.2-2.6,0.1-3.7,0.7
	c-0.2-0.3-0.5-0.4-0.8-0.5c-0.3,0-0.6,0.2-0.8,0.4c-1.1-0.7-2.5-1-3.8-0.8c-1.4,0.2-2.2,0.8-3.9,0.9h-0.4l0.4,0.1
	c0.6,0.1,1.2,0.1,1.8,0.1c0.7-0.1,1.4-0.1,2.1-0.1c0.6,0,1.3,0.2,1.9,0.5c0.6,0.3,1.2,0.7,1.8,1.1c0.6,0.3,1.3,0.3,1.9,0
	c0.5-0.4,1.1-0.7,1.7-1c0.6-0.3,1.2-0.5,1.9-0.5s1.4,0.1,2.1,0.2C236.9,64.6,237.5,64.5,238.1,64.4h0.4H238.1z"/>
<path style="fill-rule:evenodd;clip-rule:evenodd;fill:#00507E;" d="M90.8,51.2c-0.6-0.1-1.1-0.2-1.7-0.4c-0.6-0.1-1.1,0-1.6,0.3
	C87.4,51,87.3,51,87.2,51c-0.1,0-0.3,0.1-0.3,0.2c-0.5-0.3-1.1-0.4-1.6-0.4c-0.5,0.2-1.1,0.3-1.7,0.4h-0.2h0.2c0.3,0,0.5,0,0.8,0
	s0.6,0,0.9,0s0.5,0.1,0.8,0.2c0.3,0.1,0.5,0.3,0.8,0.5c0.3,0.1,0.5,0.1,0.8,0c0.2-0.2,0.5-0.3,0.7-0.4c0.2-0.1,0.5-0.2,0.8-0.2
	s0.6,0,0.9,0.1C90.2,51.3,90.5,51.3,90.8,51.2L90.8,51.2L90.8,51.2z"/>
<path style="fill-rule:evenodd;clip-rule:evenodd;fill:#07293C;" d="M60.8,235.2c-7.3-2.8-15-4.6-22.8-5.1
	c-11.8-0.8-25.9,2.5-33.1,5.1H60.8z"/>
<path style="fill-rule:evenodd;clip-rule:evenodd;fill:#08203E;" d="M3.5,235.1l0.6-0.9c8.8-12.7,46.1-59.4,46.1-59.4
	C31.7,183.7,15,196,1.1,211.1c-0.4,0.4-0.7,0.8-1.1,1.2v22.8H3.5z"/>
<path style="fill:#054E7B;" d="M48.4,176.2l1-0.6C49,175.8,48.7,176,48.4,176.2z"/>
<path style="fill:#054E7B;" d="M0,224.9v2.4c1.4-1.9,2.7-3.7,4-5.6c15.2-21.6,39.3-41.8,44.4-45.5C43.8,179.3,23,193.7,0,224.9z"/>
<path style="fill-rule:evenodd;clip-rule:evenodd;fill:#0D3057;" d="M0,198.8v30.6c0.8-2.3,1.6-4.3,2.2-5.9
	c4.3-11.3,23.6-54,23.6-54C15.8,177.8,7.1,187.7,0,198.8z"/>
<path style="fill:#054E7B;" d="M0,213.3c7.4-19.1,21.6-38.6,24.7-42.4c-2.7,2.9-14,15.9-24.7,39.9V213.3z"/>
<path style="fill:#054E7B;" d="M24.7,170.9l0.6-0.7C25.1,170.4,24.9,170.6,24.7,170.9z"/>
<path style="fill-rule:evenodd;clip-rule:evenodd;fill:#07293C;" d="M15.9,235.1C30,228,66,211.3,66,211.3
	c-16.1-0.3-32.1,2.5-47.2,8.1C12.2,222,6,225.1,0,228.7v6.3h15.9V235.1z"/>
<path style="fill:#054E7B;" d="M1.6,235.1h2c4.6-2.6,9.3-4.9,13.6-7.1c18.2-9.8,42.3-15.4,47.1-16.2
	C59.3,212.3,34.5,215.8,1.6,235.1z"/>
<path style="fill-rule:evenodd;clip-rule:evenodd;fill:#050826;" d="M14.3,235.1c4.5-3.9,8.5-7.3,11.4-9.6c11.9-9.8,60.2-45,60.2-45
	c-20.2,3.7-39.5,11.1-57,21.9C18.6,208.7,8.7,217.3,0,226v9.1H14.3z"/>
<path style="fill:#054E7B;" d="M1.6,235.1h2l2.8-2.7c7.2-7,15.4-13.2,22.5-19c20.4-16.8,49-29.8,54.9-32
	C77.2,183.4,42.2,195.8,1.6,235.1z"/>
<path style="fill-rule:evenodd;clip-rule:evenodd;fill:#0D3057;" d="M276,235.2c7.2-2.8,14.8-4.5,22.6-5.1
	c11.7-0.8,25.6,2.5,32.8,5.1H276z"/>
<path style="fill-rule:evenodd;clip-rule:evenodd;fill:#08203E;" d="M332.6,235.1l-0.6-0.8c-8.7-12.5-45.6-58.8-45.6-58.8
	c18.3,8.8,34.7,21,48.5,35.9l1.1,1.2v22.6L332.6,235.1L332.6,235.1z"/>
<path style="fill:#054E7B;" d="M288.2,176.9l-0.9-0.6C287.6,176.4,287.9,176.6,288.2,176.9z"/>
<path style="fill:#054E7B;" d="M336.1,225v2.3c-1.4-1.9-2.7-3.7-4-5.5c-15-21.4-38.9-41.4-43.9-45
	C292.8,179.9,313.4,194.2,336.1,225z"/>
<path style="fill-rule:evenodd;clip-rule:evenodd;fill:#0D3057;" d="M336.1,199.2v30.3c-0.8-2.3-1.6-4.3-2.2-5.9
	c-4.2-11.2-23.4-53.4-23.4-53.4C320.5,178.4,329.1,188.2,336.1,199.2z"/>
<path style="fill:#054E7B;" d="M336.1,213.6c-7.4-18.9-21.4-38.2-24.5-42c2.7,2.9,13.9,15.7,24.5,39.5V213.6z"/>
<path style="fill:#054E7B;" d="M311.6,171.6c-0.4-0.4-0.6-0.6-0.6-0.7C311.2,171.1,311.5,171.3,311.6,171.6z"/>
<path style="fill-rule:evenodd;clip-rule:evenodd;fill:#0D3057;" d="M320.4,235.1c-13.9-7.1-49.5-23.5-49.5-23.5
	c15.9-0.3,31.7,2.4,46.7,8c6.5,2.5,12.7,5.6,18.6,9.2v6.3H320.4z"/>
<path style="fill:#054E7B;" d="M334.6,235.1h-2c-4.5-2.6-9.2-4.9-13.4-7.1c-18.1-9.7-41.8-15.2-46.6-16.1
	C277.5,212.5,302,216.1,334.6,235.1z"/>
<path style="fill-rule:evenodd;clip-rule:evenodd;fill:#07293C;" d="M322,235.1c-4.5-3.8-8.4-7.2-11.2-9.5
	c-11.8-9.7-59.6-44.5-59.6-44.5c20,3.6,39.1,11,56.4,21.7c10.1,6.3,20,14.8,28.6,23.4v9L322,235.1z"/>
<path style="fill:#054E7B;" d="M334.5,235.1h-1.9l-2.8-2.7c-7.1-6.9-15.2-13.1-22.3-18.8c-20.2-16.6-48.5-29.5-54.3-31.7
	C259.7,184,294.3,196.2,334.5,235.1z"/>
</svg>
