<?xml version="1.0" encoding="utf-8"?>
<!-- Generator: Adobe Illustrator 24.0.3, SVG Export Plug-In . SVG Version: 6.00 Build 0)  -->
<svg version="1.0" id="Layer_1" xmlns="http://www.w3.org/2000/svg" xmlns:xlink="http://www.w3.org/1999/xlink" x="0px" y="0px"
	 width="2850px" height="1800px" viewBox="0 0 2850 1800" style="enable-background:new 0 0 2850 1800;" xml:space="preserve">
<path style="fill:#B34070;" d="M0,0h2850v1800H0V0z"/>
<path style="opacity:8.000000e-02;fill:#E5EDD4;enable-background:new    ;" d="M1409.8,393.6c329.7,0,597.1,267.3,597.1,597.1
	s-267.3,597.1-597.1,597.1s-597.1-267.3-597.1-597.1S1080.1,393.6,1409.8,393.6z"/>
<path style="opacity:8.000000e-02;fill:#E5EDD4;enable-background:new    ;" d="M1409.8,561c237.3,0,429.7,192.4,429.7,429.7
	s-192.4,429.7-429.7,429.7S980.1,1228,980.1,990.7S1172.5,561,1409.8,561z"/>
<path style="fill:#FFFFFF;" d="M1409.8,673.9c175,0,316.8,141.8,316.8,316.8s-141.8,316.8-316.8,316.8S1093,1165.6,1093,990.7
	S1234.8,673.9,1409.8,673.9z"/>
<g>
	<g>
		<g>
			<path style="fill:#FFFFFF;" d="M1707.5,264.5c0.6-1.2,0.6-2.5-0.2-3.6c-0.7-0.8-1.7-1.3-2.7-1.3c-0.9,0-1.8,0.4-2.5,1
				c-1.1,1.1-1.1,2.6-0.5,3.9c0.7,1.4,2.9,2,4.2,1.1c1.5-0.9,1.9-2.7,1.1-4.2c0,0,0,0,0-0.1c0.1,0.2,0.2,0.5,0.3,0.7c0,0,0,0,0-0.1
				c0,0.5,0,1.1,0,1.6c0,0,0,0,0,0c-0.1,0.2-0.2,0.5-0.3,0.7c0,0,0,0,0,0c-0.2,0.2-0.3,0.4-0.5,0.6c0,0,0,0,0,0
				c-0.2,0.2-0.4,0.3-0.6,0.5c0,0,0,0,0,0c-0.2,0.1-0.5,0.2-0.7,0.3c0,0,0.1,0,0.1,0c-0.3,0-0.5,0.1-0.8,0.1c0.1,0,0.1,0,0.2,0
				c-0.3,0-0.5-0.1-0.8-0.1c0,0,0.1,0,0.1,0c-0.2-0.1-0.5-0.2-0.7-0.3c0,0,0,0,0,0c-0.2-0.2-0.4-0.3-0.6-0.5c0,0,0,0,0,0
				c-0.2-0.2-0.3-0.4-0.5-0.6c0,0,0,0,0,0c-0.1-0.2-0.2-0.5-0.3-0.7c0,0,0,0,0,0c0-0.5,0-1.1,0-1.6c0,0,0,0,0,0.1
				c0.1-0.2,0.2-0.5,0.3-0.7c0,0,0,0,0,0.1c-0.4,0.8-0.5,1.5-0.3,2.4c0.2,0.7,0.7,1.5,1.4,1.8C1704.7,266.3,1706.7,266,1707.5,264.5
				L1707.5,264.5z"/>
		</g>
	</g>
	<g>
		<g>
			<path style="fill:#FFFFFF;" d="M1717.6,179.1c-0.3,0.3-0.6,0.6-0.8,0.8c-1.1,1.1-1.2,3.2,0,4.3c1.2,1.1,3.1,1.2,4.3,0
				c0.3-0.3,0.6-0.6,0.8-0.8c1.1-1.1,1.2-3.2,0-4.3C1720.8,178,1718.9,177.9,1717.6,179.1L1717.6,179.1z"/>
		</g>
	</g>
	<g>
		<g>
			<path style="fill:#FFFFFF;" d="M1757.5,137c-0.3-0.3-0.6-0.6-0.8-0.8c-1.1-1.1-3.2-1.2-4.3,0c-1.1,1.2-1.2,3.1,0,4.3
				c0.3,0.3,0.6,0.6,0.8,0.8c1.1,1.1,3.2,1.2,4.3,0C1758.6,140.1,1758.7,138.2,1757.5,137L1757.5,137z"/>
		</g>
	</g>
	<g>
		<g>
			<path style="fill:#FFFFFF;" d="M1811.2,167.2c0-0.3,0-0.6,0-0.8c0-1.6-1.4-3.1-3.1-3.1c-1.7,0.1-3.1,1.3-3.1,3.1
				c0,0.3,0,0.6,0,0.8c0,1.6,1.4,3.1,3.1,3.1C1809.8,170.2,1811.2,169,1811.2,167.2L1811.2,167.2z"/>
		</g>
	</g>
	<g>
		<g>
			<path style="fill:#FFFFFF;" d="M1760.8,334c0-0.8-0.1-1.6-0.1-2.5c-0.1-1.6-1.4-3.1-3.1-3.1c-1.6,0.1-3.1,1.4-3.1,3.1
				c0,0.8,0.1,1.6,0.1,2.5c0.1,1.6,1.4,3.1,3.1,3.1C1759.4,337,1760.9,335.8,1760.8,334L1760.8,334z"/>
		</g>
	</g>
	<g>
		<g>
			<path style="fill:#FFFFFF;" d="M1726.9,381.4c-0.3-0.3-0.6-0.5-0.8-0.8c-1.1-1.1-3.2-1.2-4.3,0c-1.1,1.2-1.2,3.1,0,4.3
				c0.3,0.3,0.6,0.5,0.8,0.8c1.1,1.1,3.2,1.2,4.3,0C1728.1,384.5,1728.2,382.6,1726.9,381.4L1726.9,381.4z"/>
		</g>
	</g>
	<g>
		<g>
			<path style="fill:#FFFFFF;" d="M1647.2,280.6c-0.2,0-0.3,0-0.5,0c-4,0-4,6.1,0,6.1c0.2,0,0.3,0,0.5,0
				C1651.1,286.7,1651.1,280.6,1647.2,280.6c-0.2,0-0.3,0-0.5,0c-4,0-4,6.1,0,6.1c0.2,0,0.3,0,0.5,0
				C1651.1,286.7,1651.1,280.6,1647.2,280.6L1647.2,280.6z"/>
		</g>
	</g>
	<g>
		<g>
			<path style="fill:#FFFFFF;" d="M1576.1,280.6c-0.3,0-0.6,0-0.8,0c-1.6,0-3.1,1.4-3.1,3.1c0.1,1.7,1.3,3.1,3.1,3.1
				c0.3,0,0.6,0,0.8,0c1.6,0,3.1-1.4,3.1-3.1C1579.1,282,1577.9,280.6,1576.1,280.6L1576.1,280.6z"/>
		</g>
	</g>
	<g>
		<g>
			<path style="fill:#FFFFFF;" d="M1575.9,355.5c0-0.2,0-0.3,0-0.5c0-4-6.1-4-6.1,0c0,0.2,0,0.3,0,0.5
				C1569.8,359.5,1575.9,359.5,1575.9,355.5c0-0.2,0-0.3,0-0.5c0-4-6.1-4-6.1,0c0,0.2,0,0.3,0,0.5
				C1569.8,359.5,1575.9,359.5,1575.9,355.5L1575.9,355.5z"/>
		</g>
	</g>
	<g>
		<g>
			<path style="fill:#FFFFFF;" d="M1475.9,313.1c0.3-0.3,0.6-0.5,0.8-0.8c1.1-1.1,1.2-3.2,0-4.3c-1.2-1.1-3.1-1.2-4.3,0
				c-0.3,0.3-0.6,0.5-0.8,0.8c-1.1,1.1-1.2,3.2,0,4.3C1472.8,314.2,1474.7,314.3,1475.9,313.1L1475.9,313.1z"/>
		</g>
	</g>
	<g>
		<g>
			<path style="fill:#FFFFFF;" d="M1421.7,255.4c4,0,4-6.1,0-6.1C1417.8,249.2,1417.8,255.4,1421.7,255.4L1421.7,255.4z"/>
		</g>
	</g>
	<g>
		<g>
			<path style="fill:#FFFFFF;" d="M1548.6,186.5c-0.3-0.3-0.6-0.6-0.8-0.8c-1.1-1.1-3.2-1.2-4.3,0c-1.1,1.2-1.2,3.1,0,4.3
				c0.3,0.3,0.6,0.6,0.8,0.8c1.1,1.1,3.2,1.2,4.3,0C1549.7,189.7,1549.8,187.8,1548.6,186.5L1548.6,186.5z"/>
		</g>
	</g>
	<g>
		<g>
			<path style="fill:#FFFFFF;" d="M1397,378c-0.3,0-0.6,0-0.8,0c-1.6,0-3.1,1.4-3.1,3.1c0.1,1.7,1.3,3.1,3.1,3.1c0.3,0,0.6,0,0.8,0
				c1.6,0,3.1-1.4,3.1-3.1C1400,379.4,1398.7,378,1397,378L1397,378z"/>
		</g>
	</g>
	<g>
		<g>
			<path style="fill:#FFFFFF;" d="M1527.4,463.9c-0.3,0-0.6,0-0.8,0c-1.6,0-3.1,1.4-3.1,3.1c0.1,1.7,1.3,3.1,3.1,3.1
				c0.3,0,0.6,0,0.8,0c1.6,0,3.1-1.4,3.1-3.1C1530.4,465.3,1529.2,463.9,1527.4,463.9L1527.4,463.9z"/>
		</g>
	</g>
	<g>
		<g>
			<path style="fill:#FFFFFF;" d="M1929.6,523.3c-0.5,0-1.1,0-1.6,0c-1.6,0-3.1,1.4-3.1,3.1c0.1,1.7,1.3,3.1,3.1,3.1
				c0.5,0,1.1,0,1.6,0c1.6,0,3.1-1.4,3.1-3.1C1932.6,524.7,1931.3,523.3,1929.6,523.3L1929.6,523.3z"/>
		</g>
	</g>
	<g>
		<g>
			<path style="fill:#FFFFFF;" d="M2096.1,422.7c4,0,4-6.1,0-6.1C2092.2,416.5,2092.2,422.7,2096.1,422.7L2096.1,422.7z"/>
		</g>
	</g>
	<g>
		<g>
			<path style="fill:#FFFFFF;" d="M2272.5,427.7c-0.5-0.1-1.1-0.1-1.6-0.2c-0.7-0.1-1.7,0.4-2.2,0.9c-0.5,0.5-0.9,1.4-0.9,2.2
				c0,0.8,0.3,1.6,0.9,2.2c0.6,0.6,1.3,0.8,2.2,0.9c0.5,0.1,1.1,0.1,1.6,0.2c0.7,0.1,1.7-0.4,2.2-0.9c0.5-0.5,0.9-1.4,0.9-2.2
				c0-0.8-0.3-1.6-0.9-2.2C2274,428,2273.3,427.8,2272.5,427.7L2272.5,427.7z"/>
		</g>
	</g>
	<g>
		<g>
			<path style="fill:#FFFFFF;" d="M1915,253.2c-0.3,0-0.6,0-0.9,0c-4,0-4,6.1,0,6.1c0.3,0,0.6,0,0.9,0
				C1918.9,259.3,1919,253.2,1915,253.2c-0.3,0-0.6,0-0.9,0c-4,0-4,6.1,0,6.1c0.3,0,0.6,0,0.9,0C1918.9,259.3,1919,253.2,1915,253.2
				L1915,253.2z"/>
		</g>
	</g>
	<g>
		<g>
			<path style="fill:#FFFFFF;" d="M2039.5,227.3c-0.3,0-0.6,0-0.9,0c-4,0-4,6.1,0,6.1c0.3,0,0.6,0,0.9,0
				C2043.5,233.4,2043.5,227.3,2039.5,227.3c-0.3,0-0.6,0-0.9,0c-4,0-4,6.1,0,6.1c0.3,0,0.6,0,0.9,0
				C2043.5,233.4,2043.5,227.3,2039.5,227.3L2039.5,227.3z"/>
		</g>
	</g>
	<g>
		<g>
			<path style="fill:#FFFFFF;" d="M1880,79.4c-0.5-0.5-1.1-1.1-1.6-1.6c-1.1-1.1-3.2-1.2-4.3,0c-1.1,1.2-1.2,3.1,0,4.3
				c0.5,0.5,1.1,1.1,1.6,1.6c1.1,1.1,3.2,1.2,4.3,0C1881.1,82.5,1881.2,80.6,1880,79.4L1880,79.4z"/>
		</g>
	</g>
	<g>
		<g>
			<path style="fill:#FFFFFF;" d="M1939.3,71.7c4,0,4-6.1,0-6.1C1935.3,65.6,1935.3,71.7,1939.3,71.7L1939.3,71.7z"/>
		</g>
	</g>
	<g>
		<g>
			<path style="fill:#FFFFFF;" d="M1816.3,92.7c4,0,4-6.1,0-6.1C1812.4,86.6,1812.4,92.7,1816.3,92.7L1816.3,92.7z"/>
		</g>
	</g>
	<g>
		<g>
			<path style="fill:#FFFFFF;" d="M1853.5,7c4,0,4-6.1,0-6.1C1849.6,0.9,1849.6,7,1853.5,7L1853.5,7z"/>
		</g>
	</g>
	<g>
		<g>
			<path style="fill:#FFFFFF;" d="M1929.6,31.6c-0.5,0-1.1,0-1.6,0c-1.6,0-3.1,1.4-3.1,3.1c0.1,1.7,1.3,3.1,3.1,3.1
				c0.5,0,1.1,0,1.6,0c1.6,0,3.1-1.4,3.1-3.1C1932.6,33,1931.3,31.6,1929.6,31.6L1929.6,31.6z"/>
		</g>
	</g>
	<g>
		<g>
			<path style="fill:#FFFFFF;" d="M2022.8,37.3c-0.5,0.5-1.1,1.1-1.6,1.6c-1.1,1.1-1.2,3.2,0,4.3c1.2,1.1,3.1,1.2,4.3,0
				c0.5-0.5,1.1-1.1,1.6-1.6c1.1-1.1,1.2-3.2,0-4.3C2025.9,36.2,2024,36.1,2022.8,37.3L2022.8,37.3z"/>
		</g>
	</g>
	<g>
		<g>
			<path style="fill:#FFFFFF;" d="M2060.4,94.5c0-0.5,0-1.1,0-1.6c0-1.6-1.4-3.1-3.1-3.1c-1.7,0.1-3.1,1.3-3.1,3.1
				c0,0.5,0,1.1,0,1.6c0,1.6,1.4,3.1,3.1,3.1C2059,97.5,2060.4,96.2,2060.4,94.5L2060.4,94.5z"/>
		</g>
	</g>
	<g>
		<g>
			<path style="fill:#FFFFFF;" d="M2092.7,143c0-0.3,0-0.6,0-0.9c0-4-6.1-4-6.1,0c0,0.3,0,0.6,0,0.9
				C2086.6,147,2092.7,147,2092.7,143c0-0.3,0-0.6,0-0.9c0-4-6.1-4-6.1,0c0,0.3,0,0.6,0,0.9C2086.6,147,2092.7,147,2092.7,143
				L2092.7,143z"/>
		</g>
	</g>
	<g>
		<g>
			<path style="fill:#FFFFFF;" d="M2190,8.9c-0.5,0-1.1,0-1.6,0c-1.6,0-3.1,1.4-3.1,3.1c0.1,1.7,1.3,3.1,3.1,3.1c0.5,0,1.1,0,1.6,0
				c1.6,0,3.1-1.4,3.1-3.1C2192.9,10.4,2191.7,8.9,2190,8.9L2190,8.9z"/>
		</g>
	</g>
	<g>
		<g>
			<path style="fill:#FFFFFF;" d="M2266,5.4c4,0,4-6.1,0-6.1C2262-0.8,2262,5.4,2266,5.4L2266,5.4z"/>
		</g>
	</g>
	<g>
		<g>
			<path style="fill:#FFFFFF;" d="M2266,120.5c-0.5,0-1.1,0-1.6,0c-1.6,0-3.1,1.4-3.1,3.1c0.1,1.7,1.3,3.1,3.1,3.1
				c0.5,0,1.1,0,1.6,0c1.6,0,3.1-1.4,3.1-3.1C2269,122,2267.7,120.5,2266,120.5L2266,120.5z"/>
		</g>
	</g>
	<g>
		<g>
			<path style="fill:#FFFFFF;" d="M2490.8,17c-0.3,0-0.6,0-0.9,0c-4,0-4,6.1,0,6.1c0.3,0,0.6,0,0.9,0
				C2494.7,23.2,2494.7,17,2490.8,17c-0.3,0-0.6,0-0.9,0c-4,0-4,6.1,0,6.1c0.3,0,0.6,0,0.9,0C2494.7,23.2,2494.7,17,2490.8,17
				L2490.8,17z"/>
		</g>
	</g>
	<g>
		<g>
			<path style="fill:#FFFFFF;" d="M2569.9,58.9c0-0.5,0-1.1,0-1.6c0-1.6-1.4-3.1-3.1-3.1c-1.7,0.1-3.1,1.3-3.1,3.1
				c0,0.5,0,1.1,0,1.6c0,1.6,1.4,3.1,3.1,3.1C2568.5,61.9,2569.9,60.6,2569.9,58.9L2569.9,58.9z"/>
		</g>
	</g>
	<g>
		<g>
			<path style="fill:#FFFFFF;" d="M2642.8,351.5c-0.1,0-0.1,0-0.2,0c0.3,0,0.5,0.1,0.8,0.1c0,0,0,0-0.1,0c0.2,0.1,0.5,0.2,0.7,0.3
				c0,0-0.1,0-0.1-0.1c0.2,0.2,0.4,0.3,0.6,0.5c0,0-0.1-0.1-0.1-0.1c0.2,0.2,0.3,0.4,0.5,0.6c0,0-0.1-0.1-0.1-0.1
				c0.1,0.2,0.2,0.5,0.3,0.7c0-0.1,0-0.1-0.1-0.2c0,0.3,0.1,0.5,0.1,0.8c0-0.1,0-0.2,0-0.2c0,0.3-0.1,0.5-0.1,0.8
				c0-0.1,0-0.1,0.1-0.2c-0.1,0.2-0.2,0.5-0.3,0.7c0-0.1,0.1-0.1,0.1-0.2c-0.2,0.2-0.3,0.4-0.5,0.6c0,0,0.1-0.1,0.1-0.1
				c-0.2,0.2-0.4,0.3-0.6,0.5c0,0,0,0,0.1,0c-0.2,0.1-0.5,0.2-0.7,0.3c0,0,0.1,0,0.1,0c-0.3,0-0.5,0.1-0.8,0.1c0,0,0.1,0,0.1,0
				c-0.3,0-0.5-0.1-0.8-0.1c0,0,0.1,0,0.1,0c0.8,0.1,1.6,0.1,2.4-0.3c0.6-0.4,1.2-1.1,1.4-1.8c0.3-1.5-0.5-3.5-2.1-3.8
				c-1.3-0.2-2.4,0-3.4,0.9c-0.7,0.7-1.1,1.7-1.1,2.7c0,0.9,0.2,1.7,0.8,2.4c0.7,0.8,1.7,1.5,2.8,1.4c0.8-0.1,1.6-0.3,2.2-0.9
				c0.5-0.5,0.9-1.4,0.9-2.2C2645.8,353.1,2644.5,351.4,2642.8,351.5L2642.8,351.5z"/>
		</g>
	</g>
	<g>
		<g>
			<path style="fill:#FFFFFF;" d="M2480.8,478.6c0-0.1,0-0.2-0.1-0.3C2481,478.7,2480.8,479,2480.8,478.6c0-0.4,0,0.7,0,0.3
				c0-0.4,0.4-0.1-0.1,0.2c0,0,0.2-0.2,0.2-0.3c0,0.1-0.5,0.6-0.2,0.2c0.3-0.4-0.5,0.3-0.2,0.1c0.3-0.2-0.8,0.3-0.2,0.1
				c1.5-0.5,2.7-2.1,2.1-3.8c-0.5-1.5-2.1-2.7-3.8-2.1c-2.8,0.9-4.7,4-3.8,6.9c0.5,1.5,2.2,2.7,3.8,2.1
				C2480.2,481.9,2481.3,480.3,2480.8,478.6L2480.8,478.6z"/>
		</g>
	</g>
	<g>
		<g>
			<path style="fill:#FFFFFF;" d="M2596.8,573.4c-0.5-1.1-1.1-2.2-1.6-3.2c-0.7-1.4-2.9-2-4.2-1.1c-1.5,0.9-1.9,2.7-1.1,4.2
				c0.5,1.1,1.1,2.2,1.6,3.2c0.7,1.4,2.9,2,4.2,1.1C2597.2,576.6,2597.6,574.9,2596.8,573.4L2596.8,573.4z"/>
		</g>
	</g>
	<g>
		<g>
			<path style="fill:#FFFFFF;" d="M2744.6,508.6c0-0.5,0-1.1,0-1.6c0-1.6-1.4-3.1-3.1-3.1c-1.7,0.1-3.1,1.3-3.1,3.1
				c0,0.5,0,1.1,0,1.6c0,1.6,1.4,3.1,3.1,3.1C2743.1,511.6,2744.6,510.3,2744.6,508.6L2744.6,508.6z"/>
		</g>
	</g>
	<g>
		<g>
			<path style="fill:#FFFFFF;" d="M2746.2,659c0-0.5,0-1.1,0-1.6c0-1.6-1.4-3.1-3.1-3.1c-1.7,0.1-3.1,1.3-3.1,3.1c0,0.5,0,1.1,0,1.6
				c0,1.6,1.4,3.1,3.1,3.1C2744.8,662,2746.2,660.7,2746.2,659L2746.2,659z"/>
		</g>
	</g>
	<g>
		<g>
			<path style="fill:#FFFFFF;" d="M2393.6,709.1c0-0.5,0-1.1,0-1.6c0-1.6-1.4-3.1-3.1-3.1c-1.7,0.1-3.1,1.3-3.1,3.1
				c0,0.5,0,1.1,0,1.6c0,1.6,1.4,3.1,3.1,3.1C2392.2,712.1,2393.6,710.8,2393.6,709.1L2393.6,709.1z"/>
		</g>
	</g>
	<g>
		<g>
			<path style="fill:#FFFFFF;" d="M1905.1,730.1c0-0.5,0-1.1,0-1.6c0-1.6-1.4-3.1-3.1-3.1c-1.7,0.1-3.1,1.3-3.1,3.1
				c0,0.5,0,1.1,0,1.6c0,1.6,1.4,3.1,3.1,3.1C1903.7,733.1,1905.1,731.9,1905.1,730.1L1905.1,730.1z"/>
		</g>
	</g>
	<g>
		<g>
			<path style="fill:#FFFFFF;" d="M1591.5,632.9c4,0,4-6.1,0-6.1C1587.6,626.8,1587.6,632.9,1591.5,632.9L1591.5,632.9z"/>
		</g>
	</g>
	<g>
		<g>
			<path style="fill:#FFFFFF;" d="M1392.4,587.8c0-0.5,0-1.1,0-1.6c0-1.6-1.4-3.1-3.1-3.1c-1.7,0.1-3.1,1.3-3.1,3.1
				c0,0.5,0,1.1,0,1.6c0,1.6,1.4,3.1,3.1,3.1C1391,590.8,1392.4,589.5,1392.4,587.8L1392.4,587.8z"/>
		</g>
	</g>
	<g>
		<g>
			<path style="fill:#FFFFFF;" d="M1061,642.6c4,0,4-6.1,0-6.1C1057.1,636.5,1057.1,642.6,1061,642.6L1061,642.6z"/>
		</g>
	</g>
	<g>
		<g>
			<path style="fill:#FFFFFF;" d="M955.3,467.6c-0.5,0.5-1.1,1.1-1.6,1.6c-1.1,1.1-1.2,3.2,0,4.3c1.2,1.1,3.1,1.2,4.3,0
				c0.5-0.5,1.1-1.1,1.6-1.6c1.1-1.1,1.2-3.2,0-4.3C958.5,466.4,956.5,466.4,955.3,467.6L955.3,467.6z"/>
		</g>
	</g>
	<g>
		<g>
			<path style="fill:#FFFFFF;" d="M975.3,371.2c-0.5,0-1.1,0-1.6,0c-1.6,0-3.1,1.4-3.1,3.1c0.1,1.7,1.3,3.1,3.1,3.1
				c0.5,0,1.1,0,1.6,0c1.6,0,3.1-1.4,3.1-3.1C978.3,372.6,977,371.2,975.3,371.2L975.3,371.2z"/>
		</g>
	</g>
	<g>
		<g>
			<path style="fill:#FFFFFF;" d="M1200.1,304.6c4,0,4-6.1,0-6.1C1196.2,298.5,1196.2,304.6,1200.1,304.6L1200.1,304.6z"/>
		</g>
	</g>
	<g>
		<g>
			<path style="fill:#FFFFFF;" d="M958.6,181.3c-0.5,0.5-1.1,1.1-1.6,1.6c-1.1,1.1-1.2,3.2,0,4.3c1.2,1.1,3.1,1.2,4.3,0
				c0.5-0.5,1.1-1.1,1.6-1.6c1.1-1.1,1.2-3.2,0-4.3C961.7,180.2,959.8,180.1,958.6,181.3L958.6,181.3z"/>
		</g>
	</g>
	<g>
		<g>
			<path style="fill:#FFFFFF;" d="M951,93.1c-0.3,0-0.6,0-0.9,0c-4,0-4,6.1,0,6.1c0.3,0,0.6,0,0.9,0C955,99.2,955,93.1,951,93.1
				c-0.3,0-0.6,0-0.9,0c-4,0-4,6.1,0,6.1c0.3,0,0.6,0,0.9,0C955,99.2,955,93.1,951,93.1L951,93.1z"/>
		</g>
	</g>
	<g>
		<g>
			<path style="fill:#FFFFFF;" d="M684.2,120.5c-0.5,0-1.1,0-1.6,0c-1.6,0-3.1,1.4-3.1,3.1c0.1,1.7,1.3,3.1,3.1,3.1
				c0.5,0,1.1,0,1.6,0c1.6,0,3.1-1.4,3.1-3.1C687.2,122,685.9,120.5,684.2,120.5L684.2,120.5z"/>
		</g>
	</g>
	<g>
		<g>
			<path style="fill:#FFFFFF;" d="M723.1,44.4c0,0.3,0,0.6,0,0.9c0,4,6.1,4,6.1,0c0-0.3,0-0.6,0-0.9
				C729.3,40.4,723.1,40.4,723.1,44.4c0,0.3,0,0.6,0,0.9c0,4,6.1,4,6.1,0c0-0.3,0-0.6,0-0.9C729.3,40.4,723.1,40.4,723.1,44.4
				L723.1,44.4z"/>
		</g>
	</g>
	<g>
		<g>
			<path style="fill:#FFFFFF;" d="M682.3,390.5c-0.1-0.5-0.1-1.1-0.2-1.6c-0.1-0.8-0.3-1.6-0.9-2.2c-0.5-0.5-1.4-0.9-2.2-0.9
				c-0.8,0-1.6,0.3-2.2,0.9c-0.5,0.6-1,1.4-0.9,2.2c0.1,0.5,0.1,1.1,0.2,1.6c0.1,0.8,0.3,1.6,0.9,2.2c0.5,0.5,1.4,0.9,2.2,0.9
				c0.8,0,1.6-0.3,2.2-0.9C681.9,392.1,682.3,391.3,682.3,390.5L682.3,390.5z"/>
		</g>
	</g>
	<g>
		<g>
			<path style="fill:#FFFFFF;" d="M478.8,37.7c1.1,0,2.2,0,3.2,0c1.6,0,3.1-1.4,3.1-3.1c-0.1-1.7-1.3-3.1-3.1-3.1
				c-1.1,0-2.2,0-3.2,0c-1.6,0-3.1,1.4-3.1,3.1C475.8,36.3,477,37.7,478.8,37.7L478.8,37.7z"/>
		</g>
	</g>
	<g>
		<g>
			<path style="fill:#FFFFFF;" d="M226.4,91.1c0.5,0,1.1,0,1.6,0c1.6,0,3.1-1.4,3.1-3.1c-0.1-1.7-1.3-3.1-3.1-3.1
				c-0.5,0-1.1,0-1.6,0c-1.6,0-3.1,1.4-3.1,3.1C223.5,89.7,224.7,91.1,226.4,91.1L226.4,91.1z"/>
		</g>
	</g>
	<g>
		<g>
			<path style="fill:#FFFFFF;" d="M271.7,274.1c-0.4,0,0.5,0.1,0.5,0.1c-0.4-0.1,0.5,0.2,0.5,0.2c-0.4-0.2,0.6,0.5,0.4,0.3
				c-0.2-0.2,0.5,0.7,0.3,0.4c-0.3-0.4,0.3,0.8,0.1,0.3c-0.1-0.5,0,0.9,0,0.3c0,0,0-0.2,0-0.2c0,0-0.1,0.9-0.1,0.5
				c0.1-0.6-0.3,0.5-0.1,0.3c0.2-0.3-0.3,0.4-0.3,0.4c0.3-0.3-0.6,0.4-0.4,0.3c0.2-0.1-0.8,0.3-0.5,0.2c0.2-0.1-0.9,0.1-0.5,0.1
				c1.6,0.1,3.1-1.5,3.1-3.1c-0.1-1.7-1.3-3-3.1-3.1c-2.5-0.1-4.3,2.2-4.3,4.6c0,2.4,1.8,4.7,4.3,4.6c1.6-0.1,3.1-1.4,3.1-3.1
				C274.7,275.6,273.4,274,271.7,274.1L271.7,274.1z"/>
		</g>
	</g>
	<g>
		<g>
			<path style="fill:#FFFFFF;" d="M54.8,434.2c0-0.5,0-1.1,0-1.6c0-1.6-1.4-3.1-3.1-3.1c-1.7,0.1-3.1,1.3-3.1,3.1c0,0.5,0,1.1,0,1.6
				c0,1.6,1.4,3.1,3.1,3.1C53.4,437.2,54.8,435.9,54.8,434.2L54.8,434.2z"/>
		</g>
	</g>
	<g>
		<g>
			<path style="fill:#FFFFFF;" d="M162.3,566.2c-0.5-0.5-1.1-1.1-1.6-1.6c-1.1-1.1-3.2-1.2-4.3,0c-1.1,1.2-1.2,3.1,0,4.3
				c0.5,0.5,1.1,1.1,1.6,1.6c1.1,1.1,3.2,1.2,4.3,0C163.4,569.3,163.5,567.4,162.3,566.2L162.3,566.2z"/>
		</g>
	</g>
	<g>
		<g>
			<path style="fill:#FFFFFF;" d="M93.1,731.6c0.5-1.1,1.1-2.1,1.6-3.2c0.7-1.4,0.4-3.4-1.1-4.2c-1.4-0.7-3.4-0.4-4.2,1.1
				c-0.5,1.1-1.1,2.1-1.6,3.2c-0.7,1.4-0.4,3.4,1.1,4.2C90.3,733.4,92.3,733.1,93.1,731.6L93.1,731.6z"/>
		</g>
	</g>
	<g>
		<g>
			<path style="fill:#FFFFFF;" d="M294.9,868.7c-0.5-0.5-1.1-1.1-1.6-1.6c-1.1-1.1-3.2-1.2-4.3,0c-1.1,1.2-1.2,3.1,0,4.3
				c0.5,0.5,1.1,1.1,1.6,1.6c1.1,1.1,3.2,1.2,4.3,0C296.1,871.8,296.1,869.9,294.9,868.7L294.9,868.7z"/>
		</g>
	</g>
	<g>
		<g>
			<path style="fill:#FFFFFF;" d="M517.4,613.7c0-0.5,0-1.1,0-1.6c0-1.6-1.4-3.1-3.1-3.1c-1.7,0.1-3.1,1.3-3.1,3.1
				c0,0.5,0,1.1,0,1.6c0,1.6,1.4,3.1,3.1,3.1C516,616.7,517.4,615.4,517.4,613.7L517.4,613.7z"/>
		</g>
	</g>
	<g>
		<g>
			<path style="fill:#FFFFFF;" d="M663.1,636.2c4,0,4-6.1,0-6.1C659.2,630,659.2,636.2,663.1,636.2L663.1,636.2z"/>
		</g>
	</g>
	<g>
		<g>
			<path style="fill:#FFFFFF;" d="M1230.3,100.8c-1.3,0-2.6,0-3.9,0c-4,0-4,6.1,0,6.1c1.3,0,2.6,0,3.9,0
				C1234.2,106.9,1234.2,100.8,1230.3,100.8c-1.3,0-2.6,0-3.9,0c-4,0-4,6.1,0,6.1c1.3,0,2.6,0,3.9,0
				C1234.2,106.9,1234.2,100.8,1230.3,100.8L1230.3,100.8z"/>
		</g>
	</g>
	<g>
		<g>
			<path style="fill:#FFFFFF;" d="M1481.3,65.7c0-2.1,0-4.2,0-6.4c0-4-6.1-4-6.1,0c0,2.1,0,4.2,0,6.4
				C1475.2,69.6,1481.3,69.7,1481.3,65.7L1481.3,65.7z"/>
		</g>
	</g>
	<g>
		<g>
			<path style="fill:#FFFFFF;" d="M1339.2,189.4c-2.1-0.3-4.2-0.6-6.2-0.9c-1.6-0.2-3.3,0.4-3.8,2.1c-0.4,1.4,0.5,3.5,2.1,3.8
				c2.1,0.3,4.2,0.6,6.2,0.9c1.6,0.2,3.3-0.4,3.8-2.1C1341.8,191.7,1340.9,189.6,1339.2,189.4L1339.2,189.4z"/>
		</g>
	</g>
	<g>
		<g>
			<path style="fill:#FFFFFF;" d="M1588.5,74.2c2.1-2.1,4.2-4.2,6.4-6.4c2.8-2.8-1.5-7.1-4.3-4.3c-2.1,2.1-4.2,4.2-6.4,6.4
				C1581.4,72.7,1585.7,77,1588.5,74.2L1588.5,74.2z"/>
		</g>
	</g>
</g>
<g>
	<g>
		<path style="fill:#631F3D;" d="M2278.7,669.8c17.3-24.8,50.5-75.4,50.5-100.2c0-33.6-27.2-60.8-60.8-60.8
			c-33.6,0-60.8,27.2-60.8,60.8c0,24.8,33.2,75.5,50.5,100.2H2278.7z"/>
	</g>
	<g>
		<path style="fill:#812E52;" d="M2091.1,784c12.1-17.2,35.1-52.4,35.1-69.7c0-23.3-18.9-42.3-42.3-42.3s-42.3,18.9-42.3,42.3
			c0,17.2,23.1,52.4,35.1,69.7H2091.1z"/>
	</g>
</g>
<g>
	<g>
		<path style="fill:#812E52;" d="M1106.9,737.5c7.2-6.2,16.2-12.8,25.4-10.3c5.1,1.4,12.3,4,17.3,10.3c0,0,13.4-10,20.7-10.9
			s15.1,1.1,20.6,6c-5-2.7-11.1-1.6-16.5,0.3c-9.9,3.6-18.8,9.7-25.7,17.6c-3.8-6.5-8.1-13.4-15.2-15.9
			C1124.7,731.3,1115.1,732.8,1106.9,737.5"/>
	</g>
	<g>
		<path style="fill:#812E52;" d="M1156.5,773.6c7.2-6.2,16.2-12.8,25.4-10.3c5.1,1.4,12.3,4,17.3,10.3c0,0,13.4-10,20.7-10.9
			s15.1,1.1,20.6,6c-5-2.7-11.1-1.6-16.5,0.3c-9.9,3.6-18.8,9.7-25.7,17.6c-3.8-6.5-8.1-13.4-15.2-15.9
			C1174.3,767.4,1164.7,768.9,1156.5,773.6"/>
	</g>
	<g>
		<path style="fill:#812E52;" d="M1396.6,875.9c3.2-2.7,7.1-5.6,11.1-4.5c2.2,0.6,5.4,1.8,7.6,4.5c0,0,5.9-4.4,9.1-4.8
			s6.6,0.5,9,2.6c-2.2-1.2-4.9-0.7-7.2,0.1c-4.3,1.6-8.2,4.2-11.3,7.7c-1.7-2.8-3.6-5.9-6.7-7
			C1404.4,873.2,1400.2,873.9,1396.6,875.9"/>
	</g>
	<g>
		<path style="fill:#812E52;" d="M1015,830.9c-3.3-24.6,21.7-26.9,26.7-20.6c0,0,16.3-15.6,33,16.5c-18-13.1-26.9-11.4-33.8-3.5
			C1037,816.7,1027,812.7,1015,830.9"/>
	</g>
	<g>
		<path style="fill:#812E52;" d="M1325.4,761.8c-3.3-24.6,21.9-23.3,26.8-17c0,0,16.1-19.2,32.8,12.8c-18-13.1-26.9-11.4-33.8-3.5
			C1347.5,747.7,1337.4,743.6,1325.4,761.8"/>
	</g>
	<g>
		<path style="fill:#812E52;" d="M1269.6,845.1c-0.4-15.5,15.2-13,17.8-8.7c0,0,11.3-10.8,19.5,10.2c-10.3-9.3-16-8.9-20.8-4.5
			C1284.2,837.9,1278.2,834.7,1269.6,845.1"/>
	</g>
	<g>
		<path style="fill:#812E52;" d="M953.7,724.5c7.5-1.5,16.3-2.7,21.8,2.6c3,2.9,7.1,7.6,8.1,14c0,0,13.3-1.8,18.8,0.4
			s10.2,6.6,12.1,12.2c-2.4-3.8-7.2-5.5-11.7-6.2c-8.3-1.3-17-0.5-24.9,2.4c-0.2-6-0.5-12.6-4.5-17.1
			C968.6,727,961.3,724.4,953.7,724.5"/>
	</g>
	<g>
		<path style="fill:#812E52;" d="M1401.6,805.1c3.5-3.8,7.8-8,13-7.3c2.8,0.4,6.9,1.3,10,4.4c0,0,6.6-6.3,10.4-7.3s8.2-0.5,11.5,1.8
			c-2.9-1.1-6.1-0.1-8.9,1.3c-5.1,2.6-9.5,6.5-12.6,11.2c-2.5-3.2-5.3-6.7-9.3-7.6C1410.7,800.6,1405.7,802,1401.6,805.1"/>
	</g>
</g>
<g>
	<path style="fill:#812E52;" d="M2304.2,854.4c-86.2,31.2-166.1,113.8-225,120.5c-58.9,6.7-92.5-78.1-180.8-49.1
		s-342.8,180.8-485.8,187.5S828,823.2,731.2,800.9c-80.5-18.6-314.3,71.5-390.3,102.2l0-0.6c-35.2,13.7-71,26-107.2,36.9
		c-37.7,11.4-78.8,21.1-115.9,7.8c-45.2-16.2-73.3-62.5-117.1-82v531.6H2850v-283.4C2850,1113.5,2390.4,823.2,2304.2,854.4z"/>
</g>
<g>
	<path style="fill:#B34070;" d="M143.8,953c-8.8-0.9-17.5-2.7-26-5.7c-45.2-16.2-73.3-62.5-117.1-82v32.5
		c43.8,19.6,71.9,65.9,117.1,82c8.5,3,155.4,13.1,164.2,13.9L143.8,953z"/>
</g>
<g>
	<path style="fill:#B34070;" d="M1898.3,925.9c-88.3,29-342.8,180.8-485.8,187.5c-142.4,6.7-580.8-287.6-680-312.2
		c0,0,558.6,396.7,701,390.1c143-6.7,339.4-164,419.4-211.5c23.1-13.7,85.7-59.8,85.7-59.8C1926.4,919.3,1913.2,921,1898.3,925.9z"
		/>
</g>
<g>
	<path style="fill:#B34070;" d="M2304.2,854.4c-81.8,29.7-158,105.6-215.9,118.9c0,0,94.2-20.9,167.3-68.1
		c17.9-11.6,57.4-52.8,57.4-52.8C2309.7,852.8,2306.8,853.5,2304.2,854.4z"/>
</g>
<g>
	<path style="fill:#75294A;" d="M2493.3,1166.2c-13.9-2.4-28,1.3-41.4,5.7c-107.2,35.5-203.4,121.2-315.9,110.8
		c-112.9-10.5-213.2-118-322.5-87.7c-40.4,11.2-77.4,41.1-119,35.9c-14.1-1.7-27.3-7.5-40.9-11.2c-68.7-18.5-139.2,15-204.2,44
		c-64.9,29-142.1,53.8-204.7,20c-18.8-10.2-36.3-25.6-57.6-26.6c-23.4-1.1-47.4,15.6-68.8,6.1c-10.8-4.8-17.8-15.3-24-25.4
		c-22.8-37.2-42.8-76.9-73.6-107.8c-30.8-30.9-75.7-52.2-118-41.6c-26.7,6.7-52.4,25.6-79.2,19.1c-17.4-4.2-30.4-18.4-42.2-31.8
		c-32.4-36.8-64.8-73.6-97.2-110.5c-8.5-9.6-17.5-19.6-29.5-24.2c-14.5-5.6-30.8-2.3-45.7,1.9c-81.5,22.8-153.9,69.2-230.6,105
		c-76.6,35.8-163.8,61.3-245.3,39c-56.1-15.4-92-55.4-132.4-97.2L0,1167.3c0,73.1,29.4,127.8,80.4,166.4c38.2,28.8,90.7,26,138.5,23
		c276.3-17.2,553.3,6.5,830,13c201.8,4.7,403.7,0.2,605.5-4.3c226.5-5,452.9-10.1,679.4-15.1c43.4-1,461.3,11.5,501.4-5.2
		c40.1-16.7-149.1-73.1-188.9-113.6C2624.9,1209.6,2523.4,1171.4,2493.3,1166.2z"/>
</g>
<g>
	<path style="fill:#672140;" d="M-2.1,1471.1c25-49.2,70.4-84.9,117.6-113.5c206.4-124.5,467-136.6,699.7-74
		c126.7,34.1,249.8,90.4,345.1,180.6"/>
</g>
<g>
	<path style="fill:#672140;" d="M941.7,1328.4c163.3,64,346.7,32.6,518.4-3.3s351.6-75.3,519.8-25.7c49.4,14.6,96.9,36.7,147.9,44.5
		c77.9,12,156.3-10.2,234.5-20c80.3-10.1,162.2-7,241.5,9c69.2,14,142.1,42.4,176.9,103.9c3.8,6.7,7.1,14.8,4.4,22
		c-3.2,8.4-13.1,11.9-21.7,14.3c-410,112.9-841.7,118.9-1266.4,98c-144.8-7.1-289.9-17.3-432-46c-37.4-7.6-76-17-105.9-40.8
		c-29.9-23.8-48.7-65.7-34.5-101.1"/>
</g>
<g style="opacity:0.75;">
	<g style="opacity:0.75;">
		<path style="fill:#FFFFFF;" d="M1240.5,1622.4c-57.6,21.4-117.2,37.5-177.8,48.1c-13.1,2.3-16.8,19.3-5.7,26.8
			c10.6,7.2,23.4,11.9,36,14.7c22.7,5,46.4,5.6,68.4,13.2c9.7,3.4,20.2,9.9,21,20.2c-73.9,28.5-154.5,33.3-230.8,54.6l811.8-1
			c-3.2-7.2-10.9-13.7-18.3-17.5c-71.9-36.9-165.1-10.3-235.2-50.6c40.9-11,81.8-22,122.7-33c9.1-2.4,20.2-7.2,20.3-16.7
			c0.1-10-12-14.8-21.8-16.8c-66.9-13.5-134.5-23.5-202.4-30.1c43.9-8.4,87.7-16.8,131.6-25.2c8.9-1.7,20.4-7.1,18.2-15.9
			c-1.7-6.8-10.3-8.6-17.2-9.3c-46.8-4.6-93.1-15.4-137.1-32c16.9-16.1,46.5-15.5,66.7-24.7c9.2-4.2,6.2-18-3.9-18.2
			c-34.8-0.8-69.7-1.5-104.5-2.3c-7.1-0.2-16.7-2.8-15.3-10.4c0.6-3.2,3-5.7,6-6.8c24-8.5,48-16.9,72-25.4c3.8-1.3,6.4-5,6-9
			c-0.4-4.6-4.4-5.9-7.9-6.8c-15.4-4.1-30.8-8.3-46.1-12.4c0.2-6.5,5.9-11.2,10.1-16.2c5.2-6.1,8.2-17.1-2.7-19.6
			c-1.4-0.3-2.8-0.4-4.2-0.3c-24.7,0.9-25-0.4-17.5-3h-63.8c-2.7,2.7-23,2.2-23.6,5c-1.1,5.5,13.6,14.8,7.9,16.2
			c-12.3,3.1-27.5,6.4-33.7,9.3c-2.5,1.2-5.1,2.5-6.5,4.8c-6.1,10.1,15.8,17.5,15.3,29.3c-0.4,8-10.3,11.2-18.2,12.3
			c-10.8,1.5-21.6,3-32.4,4.5c-11.9,1.7-27.4,7.4-23.1,21c2.6,8.2,11.1,12.9,19.6,11.7c11.2-1.6,33.4,7.3,26.8,20.5
			c-1.3,2.6-3.5,4.7-6.1,6c-21.1,10.4-44.1,16.9-67.5,19c-11.3,1-26.8,5.5-25,16.8c1.6,10.1,15.4,11.3,25.6,11.3
			c24.4-0.2,48.7,7.5,68.6,21.7c1.8,1.3,3.1,3.1,3.6,5.2C1251.5,1617.3,1245.5,1620.5,1240.5,1622.4z"/>
	</g>
	<g>
		<g style="opacity:0.75;">
			<path style="fill:#FFFFFF;" d="M1477.7,1483.9c-13.5-1.3-27-0.3-40.5,0.6c0,0-0.1,0-0.1,0c-3.8,0.2-3.8,5.9,0,6.1
				c1.8,0.1,3.6,0.2,5.4,0.2c12,0.2,24.1-0.3,35.6-3.5C1479.9,1486.9,1479.7,1484.1,1477.7,1483.9
				C1477.7,1483.9,1477.7,1483.9,1477.7,1483.9z"/>
		</g>
		<g style="opacity:0.75;">
			<path style="fill:#FFFFFF;" d="M1443.1,1424c-0.1-0.3-0.5-0.5-0.8-0.5c-7.9-1.9-13.8-1.9-21.7-0.2c-3.1,0.6-6.5,1.6-7.3,3
				c-0.2,0.3-0.3,0.6-0.1,0.9c0.2,0.2,0.5,0.3,0.8,0.3c8.3,1.1,17,2.1,25-0.6c1.3-0.4,2.6-1,3.7-1.9
				C1443,1424.8,1443.3,1424.4,1443.1,1424z"/>
		</g>
		<g style="opacity:0.75;">
			<path style="fill:#FFFFFF;" d="M1626,1514.6c-2.8-1.6-6.8-3.8-10-3.9c-15.4-0.8-31,2.2-45,8.7c-0.7,0.3-1.5,0.8-1.4,1.6
				c0,0.8,1,1.3,1.8,1.5c12.6,3.5,25.7,4.9,38.8,4.2c6-0.3,12.3-1.2,16.9-5.1c1-0.8,2-2,2-3.3
				C1628.9,1516.6,1627.4,1515.4,1626,1514.6z"/>
		</g>
		<g style="opacity:0.75;">
			<path style="fill:#FFFFFF;" d="M1700.9,1645.3c-0.3-1.3-1.3-2.2-2.4-2.9c-6-4-13.4-5.1-20.5-5.9c-22.4-2.5-57.2-2.6-79.6,0.1
				l0.2,0c-1,0.1-2,0.2-3,0.3c-1.1,0.1-2.2,0.3-3,1c-1.6,1.4-1.1,4.2,0.5,5.6c1.6,1.4,3.7,1.9,5.8,2.2c31.5,5.4,63.7,6.9,95.5,4.2
				C1697.5,1649.8,1701.5,1648.3,1700.9,1645.3z"/>
		</g>
		<g style="opacity:0.75;">
			<path style="fill:#FFFFFF;" d="M1240.2,1436.7c-2-2-2.7-2.3-4.4-3c-9.6-2.1-19.6-2.3-29.3-0.5c-1.9,0.3-3.9,0.9-4.9,2.5
				c-1,1.8-0.2,4.2,1.4,5.5s3.6,1.8,5.6,2.2c10,1.8,20.5,0.8,30.1-2.7c1.1-0.4,2.3-1.1,2.4-2.2
				C1241.1,1437.8,1240.7,1437.2,1240.2,1436.7z"/>
		</g>
		<g style="opacity:0.75;">
			<path style="fill:#FFFFFF;" d="M1125.2,1571.1L1125.2,1571.1C1125.2,1571.1,1125.2,1571.1,1125.2,1571.1c-0.1,0-0.2,0-0.3,0
				c-22.7-1.9-44.5-3.5-66.8,1.2c-1.7,0.4-3.5,0.8-4.5,2.2c-1.4,1.9-0.4,4.8,1.6,6.3c1.9,1.4,4.4,1.8,6.8,2c19.6,2,39.4,1,58.7-2.8
				c2.8-0.5,5.9-1.4,7.1-4C1128.8,1574,1127,1571.4,1125.2,1571.1z"/>
		</g>
		<g style="opacity:0.75;">
			<path style="fill:#FFFFFF;" d="M1127,1631c-0.5-0.7-1.4-1-2.2-1.2c-4.5-1-7.3-0.4-12.2-0.5l0.7,0c-5.6-0.3-11.2,0.2-16.7,1.3
				c-2.2,0.5-4.8,1.4-5.4,3.6c-0.9,3.3,3.1,5.7,6.4,6.3c9.3,1.8,19.3-0.2,27.3-5.3C1126.3,1634.3,1127.9,1632.5,1127,1631z"/>
		</g>
		<g style="opacity:0.75;">
			<path style="fill:#FFFFFF;" d="M962.5,1749.5c-7,0.8-14.6,2-19,7.7c-0.5,0.7-0.9,1.6-0.9,2.5c0,2.6,2.7,3.5,5,3.8
				c11.9,1.8,24,0.5,35.9-1.3c28-4.1,55.6-10.7,82.4-19.5c0.6-0.2,1-0.7,1.2-1.2l0,0c0.3-1.2-0.6-2.3-1.9-2.2
				C1036.8,1741.6,989.7,1746.3,962.5,1749.5z"/>
		</g>
	</g>
</g>
<g>
	<path style="opacity:0.42;fill:#FFFFFF;enable-background:new    ;" d="M824.2,1468.9h-84.7c-1.1,0-2-0.9-2-2s0.9-2,2-2h84.7
		c1.1,0,2,0.9,2,2S825.3,1468.9,824.2,1468.9z"/>
	<path style="opacity:0.42;fill:#FFFFFF;enable-background:new    ;" d="M1258.5,1468.9H937.6c-1.1,0-2-0.9-2-2s0.9-2,2-2h320.9
		c1.1,0,2,0.9,2,2S1259.6,1468.9,1258.5,1468.9z"/>
	<path style="opacity:0.42;fill:#FFFFFF;enable-background:new    ;" d="M1517.3,1468.9h-113.1c-1.1,0-2-0.9-2-2s0.9-2,2-2h113.1
		c1.1,0,2,0.9,2,2S1518.4,1468.9,1517.3,1468.9z"/>
	<path style="opacity:0.42;fill:#FFFFFF;enable-background:new    ;" d="M1882.9,1468.9h-196.2c-1.1,0-2-0.9-2-2s0.9-2,2-2h196.2
		c1.1,0,2,0.9,2,2S1884,1468.9,1882.9,1468.9z"/>
	<path style="opacity:0.42;fill:#FFFFFF;enable-background:new    ;" d="M2217.5,1468.9h-123.4c-1.1,0-2-0.9-2-2s0.9-2,2-2h123.4
		c1.1,0,2,0.9,2,2S2218.6,1468.9,2217.5,1468.9z"/>
	<path style="opacity:0.42;fill:#FFFFFF;enable-background:new    ;" d="M2336.3,1468.9h-38.6c-1.1,0-2-0.9-2-2s0.9-2,2-2h38.6
		c1.1,0,2,0.9,2,2S2337.4,1468.9,2336.3,1468.9z"/>
	<path style="opacity:0.42;fill:#FFFFFF;enable-background:new    ;" d="M412.5,1468.9h-38.6c-1.1,0-2-0.9-2-2s0.9-2,2-2h38.6
		c1.1,0,2,0.9,2,2S413.6,1468.9,412.5,1468.9z"/>
	<path style="opacity:0.42;fill:#FFFFFF;enable-background:new    ;" d="M638.8,1468.9H500.2c-1.1,0-2-0.9-2-2s0.9-2,2-2h138.6
		c1.1,0,2,0.9,2,2S639.9,1468.9,638.8,1468.9z"/>
	<path style="opacity:0.42;fill:#FFFFFF;enable-background:new    ;" d="M722.2,1506.7H595.1c-1.1,0-2-0.9-2-2s0.9-2,2-2h127.1
		c1.1,0,2,0.9,2,2S723.3,1506.7,722.2,1506.7z"/>
	<path style="opacity:0.42;fill:#FFFFFF;enable-background:new    ;" d="M1009.7,1506.7H980c-1.1,0-2-0.9-2-2s0.9-2,2-2h29.7
		c1.1,0,2,0.9,2,2S1010.8,1506.7,1009.7,1506.7z"/>
	<path style="opacity:0.42;fill:#FFFFFF;enable-background:new    ;" d="M1331.6,1506.7h-84c-1.1,0-2-0.9-2-2s0.9-2,2-2h84
		c1.1,0,2,0.9,2,2S1332.7,1506.7,1331.6,1506.7z"/>
	<path style="opacity:0.42;fill:#FFFFFF;enable-background:new    ;" d="M1101.5,1759.3h-29.7c-1.1,0-2-0.9-2-2s0.9-2,2-2h29.7
		c1.1,0,2,0.9,2,2S1102.6,1759.3,1101.5,1759.3z"/>
	<path style="opacity:0.42;fill:#FFFFFF;enable-background:new    ;" d="M1423.4,1759.3h-84c-1.1,0-2-0.9-2-2s0.9-2,2-2h84
		c1.1,0,2,0.9,2,2S1424.5,1759.3,1423.4,1759.3z"/>
	<path style="opacity:0.42;fill:#FFFFFF;enable-background:new    ;" d="M1535.1,1506.7h-35.6c-1.1,0-2-0.9-2-2s0.9-2,2-2h35.6
		c1.1,0,2,0.9,2,2S1536.2,1506.7,1535.1,1506.7z"/>
	<path style="opacity:0.42;fill:#FFFFFF;enable-background:new    ;" d="M1977.9,1506.7h-140.7c-1.1,0-2-0.9-2-2s0.9-2,2-2h140.7
		c1.1,0,2,0.9,2,2S1979,1506.7,1977.9,1506.7z"/>
	<path style="opacity:0.42;fill:#FFFFFF;enable-background:new    ;" d="M2190.4,1506.7h-34.7c-1.1,0-2-0.9-2-2s0.9-2,2-2h34.7
		c1.1,0,2,0.9,2,2S2191.5,1506.7,2190.4,1506.7z"/>
	<path style="opacity:0.42;fill:#FFFFFF;enable-background:new    ;" d="M739.5,1544.6h-28.8c-1.1,0-2-0.9-2-2s0.9-2,2-2h28.8
		c1.1,0,2,0.9,2,2S740.6,1544.6,739.5,1544.6z"/>
	<path style="opacity:0.42;fill:#FFFFFF;enable-background:new    ;" d="M890.3,1544.6h-93.8c-1.1,0-2-0.9-2-2s0.9-2,2-2h93.8
		c1.1,0,2,0.9,2,2S891.4,1544.6,890.3,1544.6z"/>
	<path style="opacity:0.42;fill:#FFFFFF;enable-background:new    ;" d="M1142.6,1544.6h-39.4c-1.1,0-2-0.9-2-2s0.9-2,2-2h39.4
		c1.1,0,2,0.9,2,2S1143.7,1544.6,1142.6,1544.6z"/>
	<path style="opacity:0.42;fill:#FFFFFF;enable-background:new    ;" d="M1590.9,1544.6h-132.8c-1.1,0-2-0.9-2-2s0.9-2,2-2h132.8
		c1.1,0,2,0.9,2,2S1592,1544.6,1590.9,1544.6z"/>
	<path style="opacity:0.42;fill:#FFFFFF;enable-background:new    ;" d="M1745.9,1544.6h-27.6c-1.1,0-2-0.9-2-2s0.9-2,2-2h27.6
		c1.1,0,2,0.9,2,2S1747,1544.6,1745.9,1544.6z"/>
	<path style="opacity:0.42;fill:#FFFFFF;enable-background:new    ;" d="M2012.1,1544.6h-68.4c-1.1,0-2-0.9-2-2s0.9-2,2-2h68.4
		c1.1,0,2,0.9,2,2S2013.2,1544.6,2012.1,1544.6z"/>
	<path style="opacity:0.42;fill:#FFFFFF;enable-background:new    ;" d="M801.4,1582.5h-61.9c-1.1,0-2-0.9-2-2s0.9-2,2-2h61.9
		c1.1,0,2,0.9,2,2S802.5,1582.5,801.4,1582.5z"/>
	<path style="opacity:0.42;fill:#FFFFFF;enable-background:new    ;" d="M1662.2,1582.5h-85.9c-1.1,0-2-0.9-2-2s0.9-2,2-2h85.9
		c1.1,0,2,0.9,2,2S1663.4,1582.5,1662.2,1582.5z"/>
	<path style="opacity:0.42;fill:#FFFFFF;enable-background:new    ;" d="M1872.9,1582.5h-35.8c-1.1,0-2-0.9-2-2s0.9-2,2-2h35.8
		c1.1,0,2,0.9,2,2S1874,1582.5,1872.9,1582.5z"/>
	<path style="opacity:0.42;fill:#FFFFFF;enable-background:new    ;" d="M1466.1,1582.5h-35.8c-1.1,0-2-0.9-2-2s0.9-2,2-2h35.8
		c1.1,0,2,0.9,2,2S1467.2,1582.5,1466.1,1582.5z"/>
	<path style="opacity:0.42;fill:#FFFFFF;enable-background:new    ;" d="M1336.1,1582.5h-281.6c-1.1,0-2-0.9-2-2s0.9-2,2-2h281.6
		c1.1,0,2,0.9,2,2S1337.2,1582.5,1336.1,1582.5z"/>
	<path style="opacity:0.42;fill:#FFFFFF;enable-background:new    ;" d="M1040.6,1705.1h-85.9c-1.1,0-2-0.9-2-2s0.9-2,2-2h85.9
		c1.1,0,2,0.9,2,2S1041.7,1705.1,1040.6,1705.1z"/>
	<path style="opacity:0.42;fill:#FFFFFF;enable-background:new    ;" d="M1186.6,1705.1h-35.8c-1.1,0-2-0.9-2-2s0.9-2,2-2h35.8
		c1.1,0,2,0.9,2,2S1187.7,1705.1,1186.6,1705.1z"/>
	<path style="opacity:0.42;fill:#FFFFFF;enable-background:new    ;" d="M1562.4,1705.1h-281.6c-1.1,0-2-0.9-2-2s0.9-2,2-2h281.6
		c1.1,0,2,0.9,2,2S1563.5,1705.1,1562.4,1705.1z"/>
	<path style="opacity:0.42;fill:#FFFFFF;enable-background:new    ;" d="M1070.1,1620.4H869.4c-1.1,0-2-0.9-2-2s0.9-2,2-2h200.7
		c1.1,0,2,0.9,2,2S1071.3,1620.4,1070.1,1620.4z"/>
	<path style="opacity:0.42;fill:#FFFFFF;enable-background:new    ;" d="M1197.1,1620.4h-66.9c-1.1,0-2-0.9-2-2s0.9-2,2-2h66.9
		c1.1,0,2,0.9,2,2S1198.2,1620.4,1197.1,1620.4z"/>
	<path style="opacity:0.42;fill:#FFFFFF;enable-background:new    ;" d="M1739.1,1620.4h-16.3c-1.1,0-2-0.9-2-2s0.9-2,2-2h16.3
		c1.1,0,2,0.9,2,2S1740.2,1620.4,1739.1,1620.4z"/>
	<path style="opacity:0.42;fill:#FFFFFF;enable-background:new    ;" d="M1602.4,1620.4h-308.5c-1.1,0-2-0.9-2-2s0.9-2,2-2h308.5
		c1.1,0,2,0.9,2,2S1603.5,1620.4,1602.4,1620.4z"/>
	<path style="opacity:0.42;fill:#FFFFFF;enable-background:new    ;" d="M1336.1,1658.2h-324.8c-1.1,0-2-0.9-2-2s0.9-2,2-2h324.8
		c1.1,0,2,0.9,2,2S1337.2,1658.2,1336.1,1658.2z"/>
	<path style="opacity:0.42;fill:#FFFFFF;enable-background:new    ;" d="M1458.1,1658.2h-67.8c-1.1,0-2-0.9-2-2s0.9-2,2-2h67.8
		c1.1,0,2,0.9,2,2S1459.2,1658.2,1458.1,1658.2z"/>
	<path style="opacity:0.42;fill:#FFFFFF;enable-background:new    ;" d="M1602.4,1658.2h-23.1c-1.1,0-2-0.9-2-2s0.9-2,2-2h23.1
		c1.1,0,2,0.9,2,2S1603.5,1658.2,1602.4,1658.2z"/>
</g>
<g>
	<path style="fill:#531331;" d="M960.2,1800c-70.4-54.1-140.8-138-211.3-192.1c-7.4-5.7-15-11.5-23.8-14.5c-8.6-3-18-3.3-27.1-3.5
		c-67.5-2-134.8-6.4-202-13.3c-32-3.3-108.4-15.6-108.4-15.6c-79.4-128.6-172.6-281.7-252-410.3c-20.3-32.9-41.6-66.8-73.8-88.1
		c-18.6-12.3-40-19.7-61.9-24V1800H960.2z"/>
</g>
<path style="fill:#531331;" d="M2788.1,1062.6c-32.2,21.3-53.5,55.2-73.8,88.1c-15.6,25.3-147.5,277.9-147.5,277.9
	s-433.4,161.8-442,164.9c-8.8,3.1-16.4,8.9-23.8,14.5c-30.1,23.1-42.1,32.6-71.3,61l4,131.1h42.3H2850v-761.5
	C2828.1,1042.9,2806.7,1050.3,2788.1,1062.6z"/>
<g>
	<path style="fill:#531331;" d="M2055.4,1649.4c-4.1-3.6-9.7-5.1-15.1-5.1c-5.4,0-10.8,1.3-16.1,2.7c8.7-4.3,18.1-7.3,27.7-8.9
		c-6-10.6-17.9-16.1-29.1-20.9c13.1-0.2,26.2,3.6,37.2,10.8c-2-7.3-5.2-14.4-9.3-20.8c11.2,7.1,20.7,17,27.2,28.6"/>
</g>
<g>
	<path style="fill:#531331;" d="M2108.8,1608.5c-6.9-0.5-12.8-7.2-12.4-14.2c0.4-7,7.1-12.9,14-12.6c-3.6-8.3-3.7-18.5,1.7-25.7
		s17.1-9.6,23.7-3.5c1.4-12,7.4-23.4,16.5-31.3c3-2.6,6.3-4.9,10.2-5.9c4.5-1.2,9.4-0.6,13.8,0.9c9.7,3.2,17.9,10.3,22.5,19.4
		s5.3,20,2,29.6c-1,3-2.4,5.9-4.6,8.2c-2,2.1-4.5,3.6-7,5.1c-24.7,14.4-51.8,24.6-79.9,29.9"/>
</g>
<g>
	<path style="fill:#531331;" d="M788.3,1656.6c-0.3-15.6,24.1-65.3,21.5-77.8c-2.3-10.7-6.2-20.9-9-31.5c-5.3-20.4-6-41.7-6.6-62.8
		c3-0.5,5.9-1.1,8.9-1.6c-4.2,29.4,5,60.5,24.6,82.9c2.2-11.7,8.5-22.5,17.7-30.1c4.8-3.9,10.2-7,15.1-10.8
		c10.5-8.3,18-20.5,20.6-33.7c2.5,1.3,5.1,2.6,7.6,3.8c-10,14-15.1,31.3-27.1,43.7c-4.8,5-10.7,9-14.8,14.6
		c-6.3,8.5-35.2,81.9-38.5,108.9"/>
</g>
<g>
	<path style="fill:#531331;" d="M808.3,1496c-10.5,4-22.1,5-33.1,3c-6.1-1.1-12.2-3.3-16.9-7.4s-7.8-10.3-7-16.5
		c1.4-10.1,12.5-16.3,22.8-16.7c-9.6-1.4-17.3-9.1-21.8-17.8c-8.5-16.8-5.8-39.9,9.4-51c9.3-6.8,21.4-8.3,32.9-8.2
		c11.5,0.1,23.1,1.6,34.5,0c-1.8-6.3,0.1-13.4,4.8-18c4.7-4.5,11.9-6.2,18.1-4.2c-0.1-7.5,1.9-14.9,5.7-21.4c1.2-2,2.6-4,4.7-5.1
		c2-1,4.3-1.1,6.6-1.1c15.2,0.1,30.4,2.9,44.6,8.2c4.7,1.8,9.5,3.9,12.9,7.6c5.8,6.2,6.6,15.8,4.3,23.9c-2.3,8.2-7.3,15.2-12.2,22.2
		c7.4-0.8,15,3.7,17.8,10.6s0.5,15.5-5.3,20c14,8.2,27.7,20,30.7,35.9c3.5,18.9-10.5,38.2-28.6,44.5c-18.2,6.3-38.8,1.3-54.9-9.2
		c-16.7,14.2-41.8,17.6-61.7,8.3c-3.5-1.6-7.2-4.2-7.3-8.1"/>
</g>
<path style="fill:#3F0021;" d="M0,1111.1c0,0,43,20.2,54.8,64.1c11.8,43.8,64.5,225.6,64.5,225.6l-46,109.6l203.4,71.9l39,108.7
	l256.6,4L717.3,1800H0V1111.1z"/>
<g>
	<g>
		<path style="fill:#3F0021;" d="M520.2,1161.9c30.2,4.1,59.2,17.1,82.4,36.8c7.1,6,14.2,14.7,11.5,23.6c-1.8,6-7.5,9.8-12.1,14.1
			s-8.7,10.8-6,16.5c1.3,2.7,3.8,4.5,6.3,6.2c24.8,16.5,54.7,26,75.3,47.5c7.4,7.7,13.4,19.9,7.3,28.6c-2.3,3.4-6.4,6.3-5.8,10.4
			c0.3,1.8,1.5,3.3,2.8,4.6c7.1,7.1,16.9,10.5,25.4,15.8c8.5,5.3,16.3,14.2,14.8,24.1c-0.7,4.9-3.7,9.2-6.6,13.3
			c-9.6,13.3-20,26.3-32.9,36.5s-28.7,17.4-45.1,17.6c-25.4,0.4-47.8-15.4-70.9-25.8c-2.4-1.1-5-2.2-7.7-2c-3.5,0.2-6.4,2.4-9.3,4.3
			c-9.7,6.5-21.5,10.9-33,8.9c-11.8-2.1-21.3-10.4-31.6-16.4c-2.5-1.5-5.2-2.8-8.1-3.1c-4.7-0.4-9,2.2-13.2,4.4
			c-37,19.5-83.1,10.6-120.4-8.3c-12-6-24.1-13.8-29.6-26c-7-15.4,0-35.7,15-43.6c4.8-2.5,10.3-3.9,14.5-7.2c4.3-3.3,7-9.8,3.9-14.2
			c-2.3-3.3-7.4-5.2-7.2-9.3c0.1-1.6,1-3.1,2-4.4c26.8-35.3,74.9-44.7,113-67.3c1.6-0.9,3.3-2.1,3.7-3.8c0.8-3.2-2.8-5.5-5.4-7.4
			c-11.3-8.4-11.5-26.3-3.9-38.1s20.7-18.8,33.5-24.6c12.5-5.6,25.6-10.5,39.2-11.1"/>
	</g>
	<g>
		<path style="fill:#3F0021;" d="M422.9,1415.6c-1.7,17,14.3,76.8,17.3,78.8c16.7,10.8,33.4,21.5,50.2,32.3l0,0
			c15.1-5.4,26.7-6,42.6-8.7c9.3-1.6,19.4-3,26-9.7c4.2-4.2,6.3-10,8.2-15.6c8-23.2,14.4-47,19-71.1l11.4,22.6
			c-5.2,18.7-10.3,37.4-15.5,56.1c-1.8,6.7-3.8,13.5-7.9,19.1c-9.3,12.7-26.8,15.5-42,19.6c-4.4,1.2-9,2.7-12.3,6
			c-2.5,2.5-4,5.8-5.5,9.1c-15.7,35.3-36.7,134.9-47,172.1l-61.4-6.4c16.4-39.1,51.5-134.1,62.2-175.1c0.1-0.4,0.2-0.8,0.3-1.2
			c-12.1-8.2-24.1-16.4-36.2-24.7c-2.4-1.6-4.9-3.3-6.4-5.8c-1.5-2.3-1.9-5.2-2.3-7.9c-4.7-30.3-8.5-60.8-11.7-91.3
			C417.5,1414.5,417.5,1414.5,422.9,1415.6z"/>
	</g>
	<g>
		<path style="fill:#3F0021;" d="M705.9,1691.1c-18.3-8.9-41.5-6.3-57.5,6.2c-1.1-13.6-12.8-25-26.1-27.8
			c-13.4-2.8-27.6,2.2-37.9,11.1c2.8-15.1-6.9-30.6-20.4-37.7c-13.6-7.1-30.1-6.7-44.7-2.2c-14.6,4.5-27.7,12.9-40.4,21.4
			c-4.6,3.1-9.6,8.9-6.2,13.2l-5-1.7c-2.1,30.8,17.8,60.1,44.1,76.2c26.3,16.1,58,21,88.9,21.8c29.9,0.8,60.2-2,88.5-11.5
			c9.4-3.1,18.8-7.1,26.3-13.7c7.5-6.6,12.9-16.1,12.5-26C727.4,1707.7,717.5,1696.7,705.9,1691.1z"/>
	</g>
	<g>
		<path style="fill:#3F0021;" d="M314.4,1641.7c10.1-12.2,27.2-19.3,42.5-15c12,3.3,21.1,12.7,29.6,21.8c-2-7.8,3.8-16.2,11.5-18.6
			s16.3,0.3,22.5,5.3c6.3,5.1,10.5,12.2,13.9,19.4l0,0c11.5,13.2,8.4,27.3,3,43.9c-5.4,16.7-19.2,30.2-35.6,36.3
			c-11.2,4.1-23.4,5-35.3,4.4c-8.8-0.4-17.5-1.8-26.1-4.1c-10.3-2.7-20.7-6.8-28-14.6c-8.4-9-11.5-21.9-11.8-34.3
			C300.4,1670.4,304.3,1653.9,314.4,1641.7z"/>
	</g>
	<g>
		<path style="fill:#531331;" d="M742.4,1594.4c9.4-17.8,12.3-38.9,8-58.5c8.8,6.2,14.3,16.4,16.9,26.9s2.8,21.4,2.9,32.2
			c9.4-8.1,17.2-18,22.9-29c0.5,17.8-6.4,35.7-18.9,48.4c8.3-1.7,16.7-2.7,25.2-2.9c-7.3,5.7-14.6,11.4-21.9,17.1l-50.9-2.7
			c7.2-5.6,10.4-15.3,10-24.4s-4.2-17.8-8.9-25.6C734.8,1579.7,740.3,1586.6,742.4,1594.4z"/>
	</g>
	<g>
		<path style="fill:#531331;" d="M838.1,1673.3c9.5-10.2,22.7-16.9,36.5-18.6c-6.1-4.4-14-5.6-21.4-4.9s-14.6,3.1-21.7,5.5
			c3.2-8,7.9-15.3,13.8-21.6c-11.8,3.7-21.9,12.3-27.4,23.4c-0.8-5.8-2-11.5-3.8-17.1c-2.1,6.1-4.1,12.2-6.2,18.2l13.4,32.7
			c2-6,7.6-10.3,13.7-12.1c6.1-1.8,12.6-1.3,18.8,0C849.5,1674.9,843.7,1672.9,838.1,1673.3z"/>
	</g>
</g>
<g>
	<g>
		<path style="fill:#531331;" d="M205.4,966.8c-1.5-2.1-3.6-3.8-4.8-6.1c-1.2-2.3-1-5.6,1.2-6.9c1.7-1,4.2-0.7,5-2.5
			c0.3-0.7,0.2-1.5,0-2.3c-1.8-8.8-6.3-16.3-11.7-23.4c1.9-2.4,3.2-5.3,3.7-8.3c1.3-8.7-6.1-17.7-14.9-18.2c4.3-3.7,6-9.7,5.6-15.3
			c-0.4-5.6-2.8-10.9-5.5-15.9c-2.7-4.8-5.8-9.5-9.8-13.2c-7.2-6.7-17-10.3-26.9-11.3c-8.8-0.8-17.6,0.2-26.2,2.1
			c-5.1,0.8-10.2,2-15.2,3.5c-5.3,1.6-10.7,3.7-14.9,7.3c-4.2,3.6-7.2,9.2-6.5,14.7c-8.4-3.9-18.7-0.6-25.5,5.6
			c-4.4,4-7.8,9.5-7.9,15.4c0,1.3,0.1,2.5,0.4,3.8c-3.8,0.8-7.8,0.5-11.6,1c-4.7,0.5-9.9,2.8-11.3,7.3c-0.7,2.3-0.3,4.7,0.2,7
			c1.4,7.7,3.2,15.3,6.7,22.3c3.5,7,8.8,13.3,15.8,16.7c10.8,5.3,23.6,3.1,35.6,3.3c1.3,0,2.6,0.1,3.7,0.7c1.4,0.8,2.3,2.3,3.1,3.7
			c2.8,4.8,7,9.1,12.4,10.5c5.5,1.5,11.2-0.1,16.9-0.6c1.4-0.1,2.8-0.2,4.1,0.3c2.1,0.8,3.4,2.8,4.8,4.6
			c11.9,15.8,33.5,21.4,53.3,20.9c6.4-0.2,13.1-1,18-5.1C209.1,983.4,210.2,973.3,205.4,966.8z"/>
	</g>
	<g>
		<path style="fill:#531331;" d="M98.8,1032.1c0.1-0.2,30.1-60.8,30.1-60.8c0.4-5.8,0.5-13.3,0.3-21c-8.2,13.6-16.1,27.4-26.5,39.3
			c1-27.1,5.5-53.7,10.5-80.2c-7.9,9.2-19.2,40.9-34.8,113.5c-3.9,17.9-17.9,55.1-24.2,72.3l26.9-5.5
			C85.7,1070.1,91.6,1050.9,98.8,1032.1z"/>
	</g>
	<g>
		<path style="fill:#531331;" d="M96.7,1094.8c4.6-9.4,12.7-17,22.3-21.2c-5.3-1.8-11.3-1-16.5,1s-9.9,5.3-14.5,8.6
			c0.6-6.4,2.4-12.7,5.3-18.5c-7.7,5.2-13.1,13.6-14.7,22.7c-1.8-4-3.9-7.9-6.4-11.5c-0.2,4.8-0.4,9.6-0.6,14.4l16.6,20.7
			c0.2-4.7,3.3-9,7.3-11.6s8.8-3.6,13.5-4C105.2,1093.6,100.6,1093.3,96.7,1094.8z"/>
	</g>
</g>
<g>
	<g>
		<path style="fill:#531331;" d="M2145.5,1421c-7.3-9-19-14.2-30.6-13.6c4.6-3.3,8.8-7,12.6-11.1c1.3-1.4,2.6-3,2.8-4.9
			c0.3-2.8-2-5.2-4.2-7c-18.8-15.8-44.2-23.5-68.6-20.9c1.7-4.6-0.2-10.2-4.2-13.1c-2-5.5-6.2-10.4-11.1-13.5
			c-8.8-5.5-19.4-6.6-29.7-7.7c-3.7-0.4-7.6-0.8-11.2,0.2c-4.1,1.1-7.6,3.7-10.8,6.4c-7.4,6.2-14.2,13.2-20.3,20.9
			c-2.7,3.4-5.2,7-6.3,11.2s-0.2,9.1,3.1,11.9c2.9,2.5,8,4.5,6.8,8.2c-0.3,1-1.2,1.8-2,2.5c-10.6,9.3-21.1,18.7-31.7,28
			c-5.3,4.7-10.8,9.7-12.5,16.6c-1.7,6.8,2.7,15.5,9.7,15.5c-6.7,1.3-13.1,3.9-18.7,7.7c-1.7,1.2-3.5,2.5-4.5,4.3
			c-1,1.8-1.2,4-1.2,6.1c0,15.4,10.7,29.6,24.6,36s30.4,5.9,44.9,0.8c14.5-5.1,27.1-14.4,38.3-25c0.9-0.9,2-1.8,3.3-2
			c1.8-0.2,3.2,1.3,4.6,2.4c5.9,4.9,14.8,6,21.7,2.5c6.9-3.5,11.3-11.2,10.9-18.9c12.7,6.9,28,8.4,42.2,5.4
			c14.2-3,27.2-10.4,38.1-19.9c4.4-3.8,8.7-8.5,9.4-14.3C2151.3,1430.4,2148.8,1425.1,2145.5,1421z"/>
	</g>
	<g>
		<path style="fill:#531331;" d="M2073.2,1558.1c-1.8-3.4-3.8-6.7-4.8-10.4c-1.1-4.1-0.8-8.3-0.5-12.5c1.8-24.8,3.9-49.6,6.2-74.4
			l-12.9-5.6c-3.4,22.5-6.7,45-10.1,67.5c-0.5-0.2-1.1-0.2-1.7-0.3c-12.3-0.7-24.6-1.6-36.9-2.9c-1.4-0.1-2.8-0.3-3.9-1.1
			c-1.2-0.9-1.8-2.3-2.4-3.7c-4.6-11.4-9.3-22.9-13.9-34.3l-4.5,0.2c3.7,16.5,8,32.8,12.8,49c0.2,0.8,0.5,1.5,1,2.1
			c1.2,1.5,3.5,1.4,5.4,1.3c14.1-1,28.3,0,42.1,2.9c-0.2,1.9-0.4,3.8-0.2,5.6c0.3,2.4,1.1,4.8,1.9,7.1c9.4,26.7,18.9,53.3,28.3,80
			c7.3-0.8,14.3-3.3,20.5-7.3c-6.1-15-12.2-29.9-18.3-44.9C2078.8,1570.1,2076.3,1564,2073.2,1558.1z"/>
	</g>
</g>
<g>
	<g>
		<path style="fill:#3F0021;" d="M2471.7,1125.3c-21.6-18.8-50.6-27.7-79.2-28c5.2-8.6,4.9-20.2-0.6-28.6s-16.1-13.2-26-11.9
			c15.6-11.2,16.8-35.6,6.7-51.9s-28.5-25.7-46.9-31.2c-22.8-6.9-49-8.5-68.9,4.4c-26.9,17.4-32.7,53.6-36,85.5
			c-19-5-40.8-2.5-55.5,10.5c-14.7,13-19.4,37.5-7.1,52.8c-48.4-2.6-100,25.5-114.3,71.8c-5.6,18-4.9,39,6.4,54.1
			c9.1,12.2,24,19,39,21.3c15,2.3,57.7-0.9,72.8-3.1c0,0,24.2,44.8,112.7,36c72-7.2,84-32.4,84-32.4s69.1,20.1,104.3-9.6
			C2479.1,1251.3,2539.7,1184.6,2471.7,1125.3z"/>
	</g>
	<g>
		<path style="fill:#3F0021;" d="M2390.9,1250.9c-5.1,37.4-10.2,74.8-15.4,112.3c-1.5,11.2-3.2,22.7-8.7,32.6
			c-5.3,9.4-13.7,16.7-21.9,23.7c-17.3,14.7-34.5,29.5-51.8,44.2c-9.6-69.2-8.4-139.9,4.3-208.6l-17.6,19.8
			c-4.1,31.4-8.2,62.7-12.3,94.1c-0.8,6.4-1.7,12.9-2.4,19.3c-1.3-1.5-3.6-2.2-5.6-2.6c-14.6-3.1-28.5-9-40.9-17.3
			c-2.1-1.4-4.3-3-5.5-5.3c-1.1-2.1-1.1-4.6-1.1-7c-0.4-36.7-0.7-73.4-1.1-110.1l-27.2-21.2c5.5,48.9,7.9,98.1,7.2,147.3
			c0,3.3-0.1,6.8,1.4,9.7c1.6,3.2,4.8,5.2,7.8,7c19.2,11.4,40.2,19.7,62,24.5c0.4-1.9,0.7-3.9,1.1-5.8c-0.6,8.5-1,17.1-0.8,25.6
			c0.5,25.2,5.4,50.1,9.5,75c7.6,45.8,12.5,92.1,14.6,138.5c19.7-0.5,39.5-1.1,59.2-1.6c-21.6-47.2-37.3-97-47.1-148
			c22.8-22.1,45.6-44.3,68.4-66.4c5.5-5.4,11.2-10.9,14.4-17.9c2.9-6.2,3.7-13.1,4.5-19.8c6.2-53,12.4-106.1,18.6-159.1
			L2390.9,1250.9z"/>
	</g>
</g>
<path style="fill:#3F0021;" d="M2676.4,1359.2l-1.7,78l-234.1,135.5v61l-734.8,62.9c0,0-12.8,2-33.7,16.4l-126.4,87h173.8h170.3h144
	H2850v-592.9L2676.4,1359.2z"/>
<g>
	<path style="fill:#3F0021;" d="M1724.8,1694.8c-1.9-8.7-5.2-17.2-9.6-24.9c9,4.8,17,11.6,23.3,19.7c-0.5-21-10.7-40.4-14.4-61.1
		c8.9,7.8,14.9,18.5,18.7,29.7s5.6,23,7.4,34.7c1-13,2-26.4,7.9-38c0.4,11.2,1.4,22.4,3.1,33.5c1.2-8.7,5.2-17,11.3-23.3
		c-1.8,12.6-2.5,25.4-2.2,38.2"/>
</g>
<g>
	<g>
		<path style="fill:#3F0021;" d="M1826.1,1661.2c-3.9-1.2-7.7-2.3-11.6-3.5c-0.9-0.3-1.9-0.6-2.5-1.3c-0.5-0.5-0.8-1.3-1-2
			c-1.4-3.9-2.9-7.8-4.3-11.8c3.2-0.5,6.3-1.6,9.1-3.3c-3.6-1.3-8.6-1.8-12.2-3.1c0,0-24.3-30.5-36.2-42.3c9.1,1.2,18,3.3,26.7,6.3
			c2.7,0.9,12.8,4.2,12.8,4.2s-2.3,5.2-3.6,7.7c2.2-1.1,4.4-2.2,6.5-3.3c0.7-0.4,2.4-1.3,2.4-1.3s1.6,1.4,2.3,2.1
			c8.4,8.3,14.5,18.7,20.4,28.9c1.6,2.7,3.2,6,2.1,9c1.8,0.5,3.7,0.5,5.4-0.1c3.1,9.6,4.6,19.8,4.6,29.9
			c-5.3-7.2-12.6-12.9-20.8-16.4"/>
	</g>
	<g>
		<g>
			<path style="fill:#3F0021;" d="M1838.3,1664c6.6,12.4,11.1,25.7,13.4,39.6c0.5,2.7,4.5,1.5,4-1.1c-2.4-14.2-7.1-27.8-13.9-40.6
				C1840.6,1659.5,1837,1661.6,1838.3,1664L1838.3,1664z"/>
		</g>
	</g>
	<g>
		<path style="fill:#3F0021;" d="M1843.8,1574.6c-2.6,3.8-5.2,14-6.2,18.5c1.6,1.2,3,2.5,4.4,4c-2,0.6-4.1,0.8-6.2,0.6
			c-0.2,4.6-0.5,9.3-0.7,13.9c-0.1,2.3,0,8.9,0,8.9s3.3,2,5.6,2.1c-1.5,0.8-3,1.5-4.5,2.3c2.6,11,6.8,21.6,12.4,31.3
			c4.4-6.9,8.5-22.7,8.5-22.7l1.7-7l-4.9-4.2h5.8C1863.1,1606.4,1856.7,1584.5,1843.8,1574.6"/>
	</g>
	<g>
		<g>
			<path style="fill:#3F0021;" d="M1847.5,1614c-1.1,14.3-2.6,28.7-2.4,43c0.2,13.7,2.3,27.2,6,40.4c0.7,2.6,4.8,1.5,4-1.1
				c-3.7-13.5-5.8-27.3-5.9-41.3c-0.1-13.7,1.3-27.4,2.4-41.1C1851.9,1611.3,1847.7,1611.4,1847.5,1614L1847.5,1614z"/>
		</g>
	</g>
	<g>
		<g>
			<path style="fill:#3F0021;" d="M1854.6,1696.1c5.8-28.1,19.6-58.3,43.3-75.6c2.2-1.6,0.1-5.2-2.1-3.6
				c-24.7,18-39.2,48.9-45.2,78.2C1850,1697.6,1854,1698.8,1854.6,1696.1L1854.6,1696.1z"/>
		</g>
	</g>
	<g>
		<path style="fill:#3F0021;" d="M1903.6,1634.4c5.8-8.3,10.9-17.1,15.8-25.8c-6.1-0.6-12.3,0.2-18.2,2c-0.7,1.8-1.5,3.6-0.6,5.4
			c-0.8-1.6-1.2-3.2-1.8-4.5c-4.9,1.8-9.7,4.2-14.1,7c-4.8,3.1-9.4,6.7-13,11c-0.9,1-1.7,2.1-2.5,3.3c0.9,1.9,2.5,3.7,3.4,5.6
			c-1.9,0-3.9-0.7-5.8-1.6c-0.9,1.7-1.7,3.4-2.4,5.2c-2.9,8-5.7,20-5.4,28.5l0.7,1.7c7.3-4.1,14.7-8.2,21.3-13.3
			c0.2-0.2,0.5-0.4,0.7-0.6c-0.7-1.5-1.7-2.7-0.7-4.6c0,2.1,1.5,2.5,2.9,2.8c6.4-5.4,12-11.7,17-18.5c-2.1-0.9-3.5-4-5.9-4
			C1897.9,1634.1,1900.8,1633.5,1903.6,1634.4z"/>
	</g>
</g>
<g>
	<path style="fill:#672140;" d="M282,1284.4c3.3-7.3,6.7-14.6,10-21.8c0.5-1.1,1.5-2.4,2.6-1.9c0.5,0.2,0.7,0.8,1,1.3
		c2.6,5.9,5.2,11.9,7.9,17.8c10-21.2,20.9-42,32.7-62.3c7.2,16.8,12.8,34.3,16.8,52.1c2.5-5.2,5-10.4,7.6-15.6
		c0.3-0.6,0.6-1.3,1.2-1.7c2-1.3,4.1,1.5,4.9,3.8c1,3.3,2,6.6,3.1,9.9c3-6.6,6.1-13.2,9.1-19.8c2.8,5.7,4.7,11.9,5.3,18.3"/>
</g>
<g>
	<path style="fill:#672140;" d="M626.4,1252.5c1.6-4.9,4.5-9.4,8.2-13c2.1,6.8,4.2,13.5,6.3,20.3c10.7-18.8,23-36.7,36.5-53.6
		c4.5,12.4,7.9,25.2,10,38.1c1.8-4.1,4.4-7.8,7.6-10.8c1.1,4.9,2.2,9.8,3.3,14.6c3.8-3.2,7.7-6.4,11.5-9.6
		c3.4,11.4,5.5,23.2,6.3,35.1c5.2-7.1,10.3-14.3,15.5-21.4c3.3,4.5,5.1,10,5.2,15.6c3.5-2.8,7.1-5.7,10.6-8.5
		c2.8,6.7,4.8,13.8,5.9,21.1"/>
</g>
<g>
	<path style="fill:#672140;" d="M905.5,1312.9c2.2-7.8,5.2-15.3,8.9-22.4c0.5,8.9,2.2,17.8,4.8,26.4c1.8-4.8,4.1-9.3,7-13.5
		c4.4,6.5-1.5,17.5,4.7,22.3c4.9-16.5,11.2-32.6,18.8-48c0.9-1.8,2.8-3.9,4.5-2.8c4,22.6,6.9,45.4,8.4,68.3c4-8.7,8.1-17.3,12.1-26
		c2.1,8.9,3.6,18,4.5,27.1c3.3-4.9,6.5-9.8,9.8-14.7c1.6,7,2.2,14.3,1.7,21.4"/>
</g>
<g>
	<g>
		<path style="fill:#672140;" d="M1497.3,1320.7l16.8-3.5c-3.1-9.4-6.8-18.6-11-27.6C1500.4,1299.8,1498.4,1310.2,1497.3,1320.7z"/>
	</g>
	<g>
		<path style="fill:#672140;" d="M1514.7,1318.9c0.2-0.7,0.4-1.3,0.6-2l-1.2,0.2C1514.3,1317.8,1514.5,1318.3,1514.7,1318.9z"/>
	</g>
	<g>
		<path style="fill:#672140;" d="M1569.4,1305.7l15.7-3.3c-1.4-8-3.8-15.9-7-23.4c-3,8.5-6.1,17-9.1,25.5
			c-4.2-15-9.4-29.7-15.6-43.9c-2.3,8.9-4.4,17.8-6.3,26.7c-3.6-11.8-7.6-23.4-12.2-34.9c-6.2,21.6-12.7,43.1-19.6,64.4l31.6-6.5
			l21.1-3.7c0.1,0.2,0.1,0.3,0.2,0.4c0.1-0.2,0.1-0.3,0.2-0.5l1.2-0.2C1569.5,1306.2,1569.5,1306,1569.4,1305.7z"/>
	</g>
</g>
<g>
	<g>
		<path style="fill:#672140;" d="M1672.6,1265.6c-0.3-4.8-0.6-10.3-4.3-13.4c-2.5,6.5-4.9,13.1-7.1,19.8c-1.3-9.7-2.3-19.4-2.8-29.2
			c-0.3-5.6-0.5-11.5-3.6-16.2c-2.7,13.3-5.4,26.5-8.1,39.8c-1.9-6.3-4.4-12.4-8.4-17.5c-5.3,16.3-10.5,32.6-15.8,48.9l55.1-5.7
			C1674.9,1283.5,1673.2,1274.6,1672.6,1265.6z"/>
	</g>
	<g>
		<path style="fill:#672140;" d="M1716,1261.9c-0.2-1.6-1.1-3.7-2.6-3.1c-0.8,0.3-1.1,1.1-1.3,1.9c-3,9.4-6.1,18.9-9.1,28.3
			c-3.2-11.8-6.4-23.6-9.6-35.4c-3.9,12.8-7.9,25.6-11.8,38.5l37.1-4.6C1717.8,1278.9,1716.9,1270.4,1716,1261.9z"/>
	</g>
</g>
<g>
	<g>
		<path style="fill:#672140;" d="M1825.3,1285.7c0.3-1.3,0.7-2.5,1.1-3.8l-1.6-0.1C1824.9,1283.1,1825.1,1284.4,1825.3,1285.7z"/>
	</g>
	<g>
		<path style="fill:#672140;" d="M1821.7,1204.2c-8.3,25.4-16.6,50.7-24.9,76.1l28,1.6C1821.4,1256.1,1825.9,1229.8,1821.7,1204.2z"
			/>
	</g>
	<g>
		<path style="fill:#672140;" d="M1849.2,1255.4c-3.7,7.3-6.8,14.9-9.1,22.8c-1.6-9.8-2.2-19.8-1.6-29.8c-4.7,10.9-8.7,22-12.1,33.4
			l25.5,1.4C1852.1,1274,1851.2,1264.6,1849.2,1255.4z"/>
	</g>
	<g>
		<path style="fill:#672140;" d="M1795.8,1251.6c-0.2-7.8-0.5-15.8-4-22.8c-6.2,14.4-12.4,28.7-18.6,43.1c-1-5.1-2.1-10.2-3.1-15.2
			c-4,7.3-6.9,15.2-8.6,23.4l7.9,0.5c-0.2,0.4-0.3,0.8-0.5,1.2l26.1,0.6c0.3,0.2,0.6,0.3,0.9,0.4c0-0.1,0.1-0.2,0.1-0.4l0.6,0
			c0-0.6,0-1.2-0.1-1.8c0-0.1,0.1-0.3,0.1-0.4l-0.2,0C1796.3,1270.7,1796,1261.2,1795.8,1251.6z"/>
	</g>
</g>
<g style="opacity:0.11;">
	<g>
		<path style="fill:#FFFFFF;" d="M642.3,589.8c-21-18.9-55.5-20.4-78-3.4c11.9-32.4-3.5-70.7-30.8-91.8
			c-27.3-21.2-63.9-27.3-98.3-24.1C360.8,477.4,292,527.4,262.4,596c-20.8-19.3-53.5-24.4-79.2-12.5s-42.9,40.2-41.7,68.5l512.3,15
			C668.4,642.9,663.3,608.7,642.3,589.8z"/>
	</g>
	<g>
		<path style="fill:#FFFFFF;" d="M2073.8,561.5c-19.9-11.1-47.2-6.5-62.4,10.5c3.8-57.8-49-110.8-106.8-114.3
			c-57.9-3.5-113.5,37-135.3,90.7c-33.8-26.5-91.5-11-107.4,28.9c-11-18.2-38.1-20.8-56.6-10.5s-30,29.8-38.5,49.3l530.9,4.1
			C2104.1,598.3,2093.7,572.6,2073.8,561.5z"/>
	</g>
	<g>
		<path style="fill:#FFFFFF;" d="M1889.2,236.1c-17-10-40.2-8.4-55.6,3.9c-3.7-49.6-51.9-91.4-101.5-88.2
			c-48.6,3.2-86.6,41.7-119.5,77.6c-13.9-22.8-43.9-32.1-70.1-27.3c-26.2,4.8-48.9,21.4-67.3,40.6c-8.2-12.1-27.1-12.4-39.3-4.4
			s-19.4,21.6-26.1,34.6l503,13.7C1916.1,267.1,1906.3,246.1,1889.2,236.1z"/>
	</g>
	<g>
		<path style="fill:#FFFFFF;" d="M2540.6,352.6c-13.1-3.2-27.1,1.9-37.7,10.3c7.8-23.8-7.2-51.2-29.8-62.1s-50.1-7.4-72.5,3.9
			c-22.4,11.3-40.4,29.6-56.7,48.6c-3.9-16.9-25.8-24.2-42.4-18.8c-16.5,5.4-28.6,19.3-39.8,32.6l299.7,15.5
			C2564.4,369.4,2553.7,355.9,2540.6,352.6z"/>
	</g>
	<g>
		<path style="fill:#FFFFFF;" d="M2695.1,724.8c-2.2-7.4-9.4-13.9-16.9-12.4c-5.7,1.1-11.1,6.3-16.4,4c0-19.8-2-43.3-19.1-53.4
			c-16.5-9.8-38.2-0.9-52.5,12.1c-12.5,11.3-22.2,25.5-28.3,41.1c-10.9-9.6-31.4-1.9-33.2,12.5l165.3,18.9
			C2695.7,740.1,2697.3,732.2,2695.1,724.8z"/>
	</g>
	<g>
		<path style="fill:#FFFFFF;" d="M732,231c-18.3-6.9-41.2,5-46.2,23.9c-4.9-39.4-13.9-85.1-49.5-102.8
			c-29.3-14.6-65.9-2.9-90.7,18.4s-41,50.7-59.1,77.9c-1.4,2.1-3,4.3-5.4,5c-5.5,1.6-9.2-5.2-13.1-9.3c-8.6-8.9-24.7-5.2-32.7,4.3
			c-8,9.4-10.2,22.4-12,34.6l327.7-3.6C759.8,261.9,750.3,237.9,732,231z"/>
	</g>
</g>
</svg>
